G04 #@! TF.GenerationSoftware,KiCad,Pcbnew,10.0.3*
G04 #@! TF.CreationDate,2026-09-28T19:57:04+01:00*
G04 #@! TF.ProjectId,Matrix Routing PCB,4d617472-6978-4205-926f-7574696e6720,rev?*
G04 #@! TF.SameCoordinates,Original*
G04 #@! TF.FileFunction,Legend,Top*
G04 #@! TF.FilePolarity,Positive*
%FSLAX46Y46*%
G04 Gerber Fmt 4.6, Leading zero omitted, Abs format (unit mm)*
G04 Created by KiCad (PCBNEW 10.0.3) date 2026-09-28 19:57:04*
%MOMM*%
%LPD*%
G01*
G04 APERTURE LIST*
%ADD10C,0.125000*%
%ADD11C,0.354000*%
%ADD12C,0.120000*%
%ADD13C,0.254000*%
%ADD14C,0.200000*%
G04 APERTURE END LIST*
D10*
X213677143Y-98623625D02*
X214058096Y-98623625D01*
X213867619Y-98880767D02*
X213867619Y-98366482D01*
X214534286Y-98205767D02*
X214296191Y-98205767D01*
X214296191Y-98205767D02*
X214272382Y-98527196D01*
X214272382Y-98527196D02*
X214296191Y-98495053D01*
X214296191Y-98495053D02*
X214343810Y-98462910D01*
X214343810Y-98462910D02*
X214462858Y-98462910D01*
X214462858Y-98462910D02*
X214510477Y-98495053D01*
X214510477Y-98495053D02*
X214534286Y-98527196D01*
X214534286Y-98527196D02*
X214558096Y-98591482D01*
X214558096Y-98591482D02*
X214558096Y-98752196D01*
X214558096Y-98752196D02*
X214534286Y-98816482D01*
X214534286Y-98816482D02*
X214510477Y-98848625D01*
X214510477Y-98848625D02*
X214462858Y-98880767D01*
X214462858Y-98880767D02*
X214343810Y-98880767D01*
X214343810Y-98880767D02*
X214296191Y-98848625D01*
X214296191Y-98848625D02*
X214272382Y-98816482D01*
X214700953Y-98205767D02*
X214867619Y-98880767D01*
X214867619Y-98880767D02*
X215034286Y-98205767D01*
X191647142Y-89180767D02*
X191647142Y-88505767D01*
X191647142Y-88505767D02*
X191766190Y-88505767D01*
X191766190Y-88505767D02*
X191837618Y-88537910D01*
X191837618Y-88537910D02*
X191885237Y-88602196D01*
X191885237Y-88602196D02*
X191909047Y-88666482D01*
X191909047Y-88666482D02*
X191932856Y-88795053D01*
X191932856Y-88795053D02*
X191932856Y-88891482D01*
X191932856Y-88891482D02*
X191909047Y-89020053D01*
X191909047Y-89020053D02*
X191885237Y-89084339D01*
X191885237Y-89084339D02*
X191837618Y-89148625D01*
X191837618Y-89148625D02*
X191766190Y-89180767D01*
X191766190Y-89180767D02*
X191647142Y-89180767D01*
X192147142Y-89180767D02*
X192147142Y-88505767D01*
X192147142Y-88505767D02*
X192432856Y-89180767D01*
X192432856Y-89180767D02*
X192432856Y-88505767D01*
X215747142Y-98880767D02*
X215747142Y-98205767D01*
X215747142Y-98205767D02*
X215866190Y-98205767D01*
X215866190Y-98205767D02*
X215937618Y-98237910D01*
X215937618Y-98237910D02*
X215985237Y-98302196D01*
X215985237Y-98302196D02*
X216009047Y-98366482D01*
X216009047Y-98366482D02*
X216032856Y-98495053D01*
X216032856Y-98495053D02*
X216032856Y-98591482D01*
X216032856Y-98591482D02*
X216009047Y-98720053D01*
X216009047Y-98720053D02*
X215985237Y-98784339D01*
X215985237Y-98784339D02*
X215937618Y-98848625D01*
X215937618Y-98848625D02*
X215866190Y-98880767D01*
X215866190Y-98880767D02*
X215747142Y-98880767D01*
X216247142Y-98880767D02*
X216247142Y-98205767D01*
X216247142Y-98205767D02*
X216532856Y-98880767D01*
X216532856Y-98880767D02*
X216532856Y-98205767D01*
X217159047Y-98880767D02*
X217159047Y-98205767D01*
X217159047Y-98205767D02*
X217278095Y-98205767D01*
X217278095Y-98205767D02*
X217349523Y-98237910D01*
X217349523Y-98237910D02*
X217397142Y-98302196D01*
X217397142Y-98302196D02*
X217420952Y-98366482D01*
X217420952Y-98366482D02*
X217444761Y-98495053D01*
X217444761Y-98495053D02*
X217444761Y-98591482D01*
X217444761Y-98591482D02*
X217420952Y-98720053D01*
X217420952Y-98720053D02*
X217397142Y-98784339D01*
X217397142Y-98784339D02*
X217349523Y-98848625D01*
X217349523Y-98848625D02*
X217278095Y-98880767D01*
X217278095Y-98880767D02*
X217159047Y-98880767D01*
X217659047Y-98880767D02*
X217659047Y-98205767D01*
X217659047Y-98205767D02*
X217849523Y-98205767D01*
X217849523Y-98205767D02*
X217897142Y-98237910D01*
X217897142Y-98237910D02*
X217920952Y-98270053D01*
X217920952Y-98270053D02*
X217944761Y-98334339D01*
X217944761Y-98334339D02*
X217944761Y-98430767D01*
X217944761Y-98430767D02*
X217920952Y-98495053D01*
X217920952Y-98495053D02*
X217897142Y-98527196D01*
X217897142Y-98527196D02*
X217849523Y-98559339D01*
X217849523Y-98559339D02*
X217659047Y-98559339D01*
X189536651Y-89139476D02*
X189536651Y-88464476D01*
X189536651Y-88464476D02*
X189655699Y-88464476D01*
X189655699Y-88464476D02*
X189727127Y-88496619D01*
X189727127Y-88496619D02*
X189774746Y-88560905D01*
X189774746Y-88560905D02*
X189798556Y-88625191D01*
X189798556Y-88625191D02*
X189822365Y-88753762D01*
X189822365Y-88753762D02*
X189822365Y-88850191D01*
X189822365Y-88850191D02*
X189798556Y-88978762D01*
X189798556Y-88978762D02*
X189774746Y-89043048D01*
X189774746Y-89043048D02*
X189727127Y-89107334D01*
X189727127Y-89107334D02*
X189655699Y-89139476D01*
X189655699Y-89139476D02*
X189536651Y-89139476D01*
X190036651Y-89139476D02*
X190036651Y-88464476D01*
X190036651Y-88464476D02*
X190227127Y-88464476D01*
X190227127Y-88464476D02*
X190274746Y-88496619D01*
X190274746Y-88496619D02*
X190298556Y-88528762D01*
X190298556Y-88528762D02*
X190322365Y-88593048D01*
X190322365Y-88593048D02*
X190322365Y-88689476D01*
X190322365Y-88689476D02*
X190298556Y-88753762D01*
X190298556Y-88753762D02*
X190274746Y-88785905D01*
X190274746Y-88785905D02*
X190227127Y-88818048D01*
X190227127Y-88818048D02*
X190036651Y-88818048D01*
X193413334Y-88505767D02*
X193580000Y-89180767D01*
X193580000Y-89180767D02*
X193746667Y-88505767D01*
X194080000Y-88827196D02*
X194151428Y-88859339D01*
X194151428Y-88859339D02*
X194175238Y-88891482D01*
X194175238Y-88891482D02*
X194199047Y-88955767D01*
X194199047Y-88955767D02*
X194199047Y-89052196D01*
X194199047Y-89052196D02*
X194175238Y-89116482D01*
X194175238Y-89116482D02*
X194151428Y-89148625D01*
X194151428Y-89148625D02*
X194103809Y-89180767D01*
X194103809Y-89180767D02*
X193913333Y-89180767D01*
X193913333Y-89180767D02*
X193913333Y-88505767D01*
X193913333Y-88505767D02*
X194080000Y-88505767D01*
X194080000Y-88505767D02*
X194127619Y-88537910D01*
X194127619Y-88537910D02*
X194151428Y-88570053D01*
X194151428Y-88570053D02*
X194175238Y-88634339D01*
X194175238Y-88634339D02*
X194175238Y-88698625D01*
X194175238Y-88698625D02*
X194151428Y-88762910D01*
X194151428Y-88762910D02*
X194127619Y-88795053D01*
X194127619Y-88795053D02*
X194080000Y-88827196D01*
X194080000Y-88827196D02*
X193913333Y-88827196D01*
X194413333Y-88505767D02*
X194413333Y-89052196D01*
X194413333Y-89052196D02*
X194437143Y-89116482D01*
X194437143Y-89116482D02*
X194460952Y-89148625D01*
X194460952Y-89148625D02*
X194508571Y-89180767D01*
X194508571Y-89180767D02*
X194603809Y-89180767D01*
X194603809Y-89180767D02*
X194651428Y-89148625D01*
X194651428Y-89148625D02*
X194675238Y-89116482D01*
X194675238Y-89116482D02*
X194699047Y-89052196D01*
X194699047Y-89052196D02*
X194699047Y-88505767D01*
X194913334Y-89148625D02*
X194984762Y-89180767D01*
X194984762Y-89180767D02*
X195103810Y-89180767D01*
X195103810Y-89180767D02*
X195151429Y-89148625D01*
X195151429Y-89148625D02*
X195175238Y-89116482D01*
X195175238Y-89116482D02*
X195199048Y-89052196D01*
X195199048Y-89052196D02*
X195199048Y-88987910D01*
X195199048Y-88987910D02*
X195175238Y-88923625D01*
X195175238Y-88923625D02*
X195151429Y-88891482D01*
X195151429Y-88891482D02*
X195103810Y-88859339D01*
X195103810Y-88859339D02*
X195008572Y-88827196D01*
X195008572Y-88827196D02*
X194960953Y-88795053D01*
X194960953Y-88795053D02*
X194937143Y-88762910D01*
X194937143Y-88762910D02*
X194913334Y-88698625D01*
X194913334Y-88698625D02*
X194913334Y-88634339D01*
X194913334Y-88634339D02*
X194937143Y-88570053D01*
X194937143Y-88570053D02*
X194960953Y-88537910D01*
X194960953Y-88537910D02*
X195008572Y-88505767D01*
X195008572Y-88505767D02*
X195127619Y-88505767D01*
X195127619Y-88505767D02*
X195199048Y-88537910D01*
X218809047Y-98197910D02*
X218761428Y-98165767D01*
X218761428Y-98165767D02*
X218689999Y-98165767D01*
X218689999Y-98165767D02*
X218618571Y-98197910D01*
X218618571Y-98197910D02*
X218570952Y-98262196D01*
X218570952Y-98262196D02*
X218547142Y-98326482D01*
X218547142Y-98326482D02*
X218523333Y-98455053D01*
X218523333Y-98455053D02*
X218523333Y-98551482D01*
X218523333Y-98551482D02*
X218547142Y-98680053D01*
X218547142Y-98680053D02*
X218570952Y-98744339D01*
X218570952Y-98744339D02*
X218618571Y-98808625D01*
X218618571Y-98808625D02*
X218689999Y-98840767D01*
X218689999Y-98840767D02*
X218737618Y-98840767D01*
X218737618Y-98840767D02*
X218809047Y-98808625D01*
X218809047Y-98808625D02*
X218832856Y-98776482D01*
X218832856Y-98776482D02*
X218832856Y-98551482D01*
X218832856Y-98551482D02*
X218737618Y-98551482D01*
X219047142Y-98840767D02*
X219047142Y-98165767D01*
X219047142Y-98165767D02*
X219332856Y-98840767D01*
X219332856Y-98840767D02*
X219332856Y-98165767D01*
X219570952Y-98840767D02*
X219570952Y-98165767D01*
X219570952Y-98165767D02*
X219690000Y-98165767D01*
X219690000Y-98165767D02*
X219761428Y-98197910D01*
X219761428Y-98197910D02*
X219809047Y-98262196D01*
X219809047Y-98262196D02*
X219832857Y-98326482D01*
X219832857Y-98326482D02*
X219856666Y-98455053D01*
X219856666Y-98455053D02*
X219856666Y-98551482D01*
X219856666Y-98551482D02*
X219832857Y-98680053D01*
X219832857Y-98680053D02*
X219809047Y-98744339D01*
X219809047Y-98744339D02*
X219761428Y-98808625D01*
X219761428Y-98808625D02*
X219690000Y-98840767D01*
X219690000Y-98840767D02*
X219570952Y-98840767D01*
X186339047Y-88537910D02*
X186291428Y-88505767D01*
X186291428Y-88505767D02*
X186219999Y-88505767D01*
X186219999Y-88505767D02*
X186148571Y-88537910D01*
X186148571Y-88537910D02*
X186100952Y-88602196D01*
X186100952Y-88602196D02*
X186077142Y-88666482D01*
X186077142Y-88666482D02*
X186053333Y-88795053D01*
X186053333Y-88795053D02*
X186053333Y-88891482D01*
X186053333Y-88891482D02*
X186077142Y-89020053D01*
X186077142Y-89020053D02*
X186100952Y-89084339D01*
X186100952Y-89084339D02*
X186148571Y-89148625D01*
X186148571Y-89148625D02*
X186219999Y-89180767D01*
X186219999Y-89180767D02*
X186267618Y-89180767D01*
X186267618Y-89180767D02*
X186339047Y-89148625D01*
X186339047Y-89148625D02*
X186362856Y-89116482D01*
X186362856Y-89116482D02*
X186362856Y-88891482D01*
X186362856Y-88891482D02*
X186267618Y-88891482D01*
X186577142Y-89180767D02*
X186577142Y-88505767D01*
X186577142Y-88505767D02*
X186862856Y-89180767D01*
X186862856Y-89180767D02*
X186862856Y-88505767D01*
X187100952Y-89180767D02*
X187100952Y-88505767D01*
X187100952Y-88505767D02*
X187220000Y-88505767D01*
X187220000Y-88505767D02*
X187291428Y-88537910D01*
X187291428Y-88537910D02*
X187339047Y-88602196D01*
X187339047Y-88602196D02*
X187362857Y-88666482D01*
X187362857Y-88666482D02*
X187386666Y-88795053D01*
X187386666Y-88795053D02*
X187386666Y-88891482D01*
X187386666Y-88891482D02*
X187362857Y-89020053D01*
X187362857Y-89020053D02*
X187339047Y-89084339D01*
X187339047Y-89084339D02*
X187291428Y-89148625D01*
X187291428Y-89148625D02*
X187220000Y-89180767D01*
X187220000Y-89180767D02*
X187100952Y-89180767D01*
X186339047Y-97617910D02*
X186291428Y-97585767D01*
X186291428Y-97585767D02*
X186219999Y-97585767D01*
X186219999Y-97585767D02*
X186148571Y-97617910D01*
X186148571Y-97617910D02*
X186100952Y-97682196D01*
X186100952Y-97682196D02*
X186077142Y-97746482D01*
X186077142Y-97746482D02*
X186053333Y-97875053D01*
X186053333Y-97875053D02*
X186053333Y-97971482D01*
X186053333Y-97971482D02*
X186077142Y-98100053D01*
X186077142Y-98100053D02*
X186100952Y-98164339D01*
X186100952Y-98164339D02*
X186148571Y-98228625D01*
X186148571Y-98228625D02*
X186219999Y-98260767D01*
X186219999Y-98260767D02*
X186267618Y-98260767D01*
X186267618Y-98260767D02*
X186339047Y-98228625D01*
X186339047Y-98228625D02*
X186362856Y-98196482D01*
X186362856Y-98196482D02*
X186362856Y-97971482D01*
X186362856Y-97971482D02*
X186267618Y-97971482D01*
X186577142Y-98260767D02*
X186577142Y-97585767D01*
X186577142Y-97585767D02*
X186862856Y-98260767D01*
X186862856Y-98260767D02*
X186862856Y-97585767D01*
X187100952Y-98260767D02*
X187100952Y-97585767D01*
X187100952Y-97585767D02*
X187220000Y-97585767D01*
X187220000Y-97585767D02*
X187291428Y-97617910D01*
X187291428Y-97617910D02*
X187339047Y-97682196D01*
X187339047Y-97682196D02*
X187362857Y-97746482D01*
X187362857Y-97746482D02*
X187386666Y-97875053D01*
X187386666Y-97875053D02*
X187386666Y-97971482D01*
X187386666Y-97971482D02*
X187362857Y-98100053D01*
X187362857Y-98100053D02*
X187339047Y-98164339D01*
X187339047Y-98164339D02*
X187291428Y-98228625D01*
X187291428Y-98228625D02*
X187220000Y-98260767D01*
X187220000Y-98260767D02*
X187100952Y-98260767D01*
X186329526Y-95495767D02*
X186615240Y-95495767D01*
X186472383Y-96170767D02*
X186472383Y-95495767D01*
X186734287Y-95495767D02*
X187067620Y-96170767D01*
X187067620Y-95495767D02*
X186734287Y-96170767D01*
X187139049Y-96235053D02*
X187520001Y-96235053D01*
X187805715Y-95817196D02*
X187639048Y-95817196D01*
X187639048Y-96170767D02*
X187639048Y-95495767D01*
X187639048Y-95495767D02*
X187877143Y-95495767D01*
X187996191Y-95495767D02*
X188281905Y-95495767D01*
X188139048Y-96170767D02*
X188139048Y-95495767D01*
X188448571Y-96170767D02*
X188448571Y-95495767D01*
X188448571Y-95495767D02*
X188567619Y-95495767D01*
X188567619Y-95495767D02*
X188639047Y-95527910D01*
X188639047Y-95527910D02*
X188686666Y-95592196D01*
X188686666Y-95592196D02*
X188710476Y-95656482D01*
X188710476Y-95656482D02*
X188734285Y-95785053D01*
X188734285Y-95785053D02*
X188734285Y-95881482D01*
X188734285Y-95881482D02*
X188710476Y-96010053D01*
X188710476Y-96010053D02*
X188686666Y-96074339D01*
X188686666Y-96074339D02*
X188639047Y-96138625D01*
X188639047Y-96138625D02*
X188567619Y-96170767D01*
X188567619Y-96170767D02*
X188448571Y-96170767D01*
X188948571Y-96170767D02*
X188948571Y-95495767D01*
X189067619Y-96235053D02*
X189448571Y-96235053D01*
X189853332Y-96170767D02*
X189686666Y-95849339D01*
X189567618Y-96170767D02*
X189567618Y-95495767D01*
X189567618Y-95495767D02*
X189758094Y-95495767D01*
X189758094Y-95495767D02*
X189805713Y-95527910D01*
X189805713Y-95527910D02*
X189829523Y-95560053D01*
X189829523Y-95560053D02*
X189853332Y-95624339D01*
X189853332Y-95624339D02*
X189853332Y-95720767D01*
X189853332Y-95720767D02*
X189829523Y-95785053D01*
X189829523Y-95785053D02*
X189805713Y-95817196D01*
X189805713Y-95817196D02*
X189758094Y-95849339D01*
X189758094Y-95849339D02*
X189567618Y-95849339D01*
X190019999Y-95495767D02*
X190353332Y-96170767D01*
X190353332Y-95495767D02*
X190019999Y-96170767D01*
X190424761Y-96235053D02*
X190805713Y-96235053D01*
X191091427Y-95817196D02*
X191162855Y-95849339D01*
X191162855Y-95849339D02*
X191186665Y-95881482D01*
X191186665Y-95881482D02*
X191210474Y-95945767D01*
X191210474Y-95945767D02*
X191210474Y-96042196D01*
X191210474Y-96042196D02*
X191186665Y-96106482D01*
X191186665Y-96106482D02*
X191162855Y-96138625D01*
X191162855Y-96138625D02*
X191115236Y-96170767D01*
X191115236Y-96170767D02*
X190924760Y-96170767D01*
X190924760Y-96170767D02*
X190924760Y-95495767D01*
X190924760Y-95495767D02*
X191091427Y-95495767D01*
X191091427Y-95495767D02*
X191139046Y-95527910D01*
X191139046Y-95527910D02*
X191162855Y-95560053D01*
X191162855Y-95560053D02*
X191186665Y-95624339D01*
X191186665Y-95624339D02*
X191186665Y-95688625D01*
X191186665Y-95688625D02*
X191162855Y-95752910D01*
X191162855Y-95752910D02*
X191139046Y-95785053D01*
X191139046Y-95785053D02*
X191091427Y-95817196D01*
X191091427Y-95817196D02*
X190924760Y-95817196D01*
X191519998Y-95495767D02*
X191615236Y-95495767D01*
X191615236Y-95495767D02*
X191662855Y-95527910D01*
X191662855Y-95527910D02*
X191710474Y-95592196D01*
X191710474Y-95592196D02*
X191734284Y-95720767D01*
X191734284Y-95720767D02*
X191734284Y-95945767D01*
X191734284Y-95945767D02*
X191710474Y-96074339D01*
X191710474Y-96074339D02*
X191662855Y-96138625D01*
X191662855Y-96138625D02*
X191615236Y-96170767D01*
X191615236Y-96170767D02*
X191519998Y-96170767D01*
X191519998Y-96170767D02*
X191472379Y-96138625D01*
X191472379Y-96138625D02*
X191424760Y-96074339D01*
X191424760Y-96074339D02*
X191400951Y-95945767D01*
X191400951Y-95945767D02*
X191400951Y-95720767D01*
X191400951Y-95720767D02*
X191424760Y-95592196D01*
X191424760Y-95592196D02*
X191472379Y-95527910D01*
X191472379Y-95527910D02*
X191519998Y-95495767D01*
X191924761Y-95977910D02*
X192162856Y-95977910D01*
X191877142Y-96170767D02*
X192043808Y-95495767D01*
X192043808Y-95495767D02*
X192210475Y-96170767D01*
X192662855Y-96170767D02*
X192496189Y-95849339D01*
X192377141Y-96170767D02*
X192377141Y-95495767D01*
X192377141Y-95495767D02*
X192567617Y-95495767D01*
X192567617Y-95495767D02*
X192615236Y-95527910D01*
X192615236Y-95527910D02*
X192639046Y-95560053D01*
X192639046Y-95560053D02*
X192662855Y-95624339D01*
X192662855Y-95624339D02*
X192662855Y-95720767D01*
X192662855Y-95720767D02*
X192639046Y-95785053D01*
X192639046Y-95785053D02*
X192615236Y-95817196D01*
X192615236Y-95817196D02*
X192567617Y-95849339D01*
X192567617Y-95849339D02*
X192377141Y-95849339D01*
X192877141Y-96170767D02*
X192877141Y-95495767D01*
X192877141Y-95495767D02*
X192996189Y-95495767D01*
X192996189Y-95495767D02*
X193067617Y-95527910D01*
X193067617Y-95527910D02*
X193115236Y-95592196D01*
X193115236Y-95592196D02*
X193139046Y-95656482D01*
X193139046Y-95656482D02*
X193162855Y-95785053D01*
X193162855Y-95785053D02*
X193162855Y-95881482D01*
X193162855Y-95881482D02*
X193139046Y-96010053D01*
X193139046Y-96010053D02*
X193115236Y-96074339D01*
X193115236Y-96074339D02*
X193067617Y-96138625D01*
X193067617Y-96138625D02*
X192996189Y-96170767D01*
X192996189Y-96170767D02*
X192877141Y-96170767D01*
X186686668Y-94170767D02*
X186520002Y-93849339D01*
X186400954Y-94170767D02*
X186400954Y-93495767D01*
X186400954Y-93495767D02*
X186591430Y-93495767D01*
X186591430Y-93495767D02*
X186639049Y-93527910D01*
X186639049Y-93527910D02*
X186662859Y-93560053D01*
X186662859Y-93560053D02*
X186686668Y-93624339D01*
X186686668Y-93624339D02*
X186686668Y-93720767D01*
X186686668Y-93720767D02*
X186662859Y-93785053D01*
X186662859Y-93785053D02*
X186639049Y-93817196D01*
X186639049Y-93817196D02*
X186591430Y-93849339D01*
X186591430Y-93849339D02*
X186400954Y-93849339D01*
X186853335Y-93495767D02*
X187186668Y-94170767D01*
X187186668Y-93495767D02*
X186853335Y-94170767D01*
X187258097Y-94235053D02*
X187639049Y-94235053D01*
X187924763Y-93817196D02*
X187758096Y-93817196D01*
X187758096Y-94170767D02*
X187758096Y-93495767D01*
X187758096Y-93495767D02*
X187996191Y-93495767D01*
X188115239Y-93495767D02*
X188400953Y-93495767D01*
X188258096Y-94170767D02*
X188258096Y-93495767D01*
X188567619Y-94170767D02*
X188567619Y-93495767D01*
X188567619Y-93495767D02*
X188686667Y-93495767D01*
X188686667Y-93495767D02*
X188758095Y-93527910D01*
X188758095Y-93527910D02*
X188805714Y-93592196D01*
X188805714Y-93592196D02*
X188829524Y-93656482D01*
X188829524Y-93656482D02*
X188853333Y-93785053D01*
X188853333Y-93785053D02*
X188853333Y-93881482D01*
X188853333Y-93881482D02*
X188829524Y-94010053D01*
X188829524Y-94010053D02*
X188805714Y-94074339D01*
X188805714Y-94074339D02*
X188758095Y-94138625D01*
X188758095Y-94138625D02*
X188686667Y-94170767D01*
X188686667Y-94170767D02*
X188567619Y-94170767D01*
X189067619Y-94170767D02*
X189067619Y-93495767D01*
X189186667Y-94235053D02*
X189567619Y-94235053D01*
X189615238Y-93495767D02*
X189900952Y-93495767D01*
X189758095Y-94170767D02*
X189758095Y-93495767D01*
X190019999Y-93495767D02*
X190353332Y-94170767D01*
X190353332Y-93495767D02*
X190019999Y-94170767D01*
X190424761Y-94235053D02*
X190805713Y-94235053D01*
X191091427Y-93817196D02*
X191162855Y-93849339D01*
X191162855Y-93849339D02*
X191186665Y-93881482D01*
X191186665Y-93881482D02*
X191210474Y-93945767D01*
X191210474Y-93945767D02*
X191210474Y-94042196D01*
X191210474Y-94042196D02*
X191186665Y-94106482D01*
X191186665Y-94106482D02*
X191162855Y-94138625D01*
X191162855Y-94138625D02*
X191115236Y-94170767D01*
X191115236Y-94170767D02*
X190924760Y-94170767D01*
X190924760Y-94170767D02*
X190924760Y-93495767D01*
X190924760Y-93495767D02*
X191091427Y-93495767D01*
X191091427Y-93495767D02*
X191139046Y-93527910D01*
X191139046Y-93527910D02*
X191162855Y-93560053D01*
X191162855Y-93560053D02*
X191186665Y-93624339D01*
X191186665Y-93624339D02*
X191186665Y-93688625D01*
X191186665Y-93688625D02*
X191162855Y-93752910D01*
X191162855Y-93752910D02*
X191139046Y-93785053D01*
X191139046Y-93785053D02*
X191091427Y-93817196D01*
X191091427Y-93817196D02*
X190924760Y-93817196D01*
X191519998Y-93495767D02*
X191615236Y-93495767D01*
X191615236Y-93495767D02*
X191662855Y-93527910D01*
X191662855Y-93527910D02*
X191710474Y-93592196D01*
X191710474Y-93592196D02*
X191734284Y-93720767D01*
X191734284Y-93720767D02*
X191734284Y-93945767D01*
X191734284Y-93945767D02*
X191710474Y-94074339D01*
X191710474Y-94074339D02*
X191662855Y-94138625D01*
X191662855Y-94138625D02*
X191615236Y-94170767D01*
X191615236Y-94170767D02*
X191519998Y-94170767D01*
X191519998Y-94170767D02*
X191472379Y-94138625D01*
X191472379Y-94138625D02*
X191424760Y-94074339D01*
X191424760Y-94074339D02*
X191400951Y-93945767D01*
X191400951Y-93945767D02*
X191400951Y-93720767D01*
X191400951Y-93720767D02*
X191424760Y-93592196D01*
X191424760Y-93592196D02*
X191472379Y-93527910D01*
X191472379Y-93527910D02*
X191519998Y-93495767D01*
X191924761Y-93977910D02*
X192162856Y-93977910D01*
X191877142Y-94170767D02*
X192043808Y-93495767D01*
X192043808Y-93495767D02*
X192210475Y-94170767D01*
X192662855Y-94170767D02*
X192496189Y-93849339D01*
X192377141Y-94170767D02*
X192377141Y-93495767D01*
X192377141Y-93495767D02*
X192567617Y-93495767D01*
X192567617Y-93495767D02*
X192615236Y-93527910D01*
X192615236Y-93527910D02*
X192639046Y-93560053D01*
X192639046Y-93560053D02*
X192662855Y-93624339D01*
X192662855Y-93624339D02*
X192662855Y-93720767D01*
X192662855Y-93720767D02*
X192639046Y-93785053D01*
X192639046Y-93785053D02*
X192615236Y-93817196D01*
X192615236Y-93817196D02*
X192567617Y-93849339D01*
X192567617Y-93849339D02*
X192377141Y-93849339D01*
X192877141Y-94170767D02*
X192877141Y-93495767D01*
X192877141Y-93495767D02*
X192996189Y-93495767D01*
X192996189Y-93495767D02*
X193067617Y-93527910D01*
X193067617Y-93527910D02*
X193115236Y-93592196D01*
X193115236Y-93592196D02*
X193139046Y-93656482D01*
X193139046Y-93656482D02*
X193162855Y-93785053D01*
X193162855Y-93785053D02*
X193162855Y-93881482D01*
X193162855Y-93881482D02*
X193139046Y-94010053D01*
X193139046Y-94010053D02*
X193115236Y-94074339D01*
X193115236Y-94074339D02*
X193067617Y-94138625D01*
X193067617Y-94138625D02*
X192996189Y-94170767D01*
X192996189Y-94170767D02*
X192877141Y-94170767D01*
X186327142Y-92140767D02*
X186327142Y-91465767D01*
X186327142Y-91465767D02*
X186612856Y-92140767D01*
X186612856Y-92140767D02*
X186612856Y-91465767D01*
X187136666Y-92076482D02*
X187112857Y-92108625D01*
X187112857Y-92108625D02*
X187041428Y-92140767D01*
X187041428Y-92140767D02*
X186993809Y-92140767D01*
X186993809Y-92140767D02*
X186922381Y-92108625D01*
X186922381Y-92108625D02*
X186874762Y-92044339D01*
X186874762Y-92044339D02*
X186850952Y-91980053D01*
X186850952Y-91980053D02*
X186827143Y-91851482D01*
X186827143Y-91851482D02*
X186827143Y-91755053D01*
X186827143Y-91755053D02*
X186850952Y-91626482D01*
X186850952Y-91626482D02*
X186874762Y-91562196D01*
X186874762Y-91562196D02*
X186922381Y-91497910D01*
X186922381Y-91497910D02*
X186993809Y-91465767D01*
X186993809Y-91465767D02*
X187041428Y-91465767D01*
X187041428Y-91465767D02*
X187112857Y-91497910D01*
X187112857Y-91497910D02*
X187136666Y-91530053D01*
X251150952Y-93205767D02*
X251150952Y-93752196D01*
X251150952Y-93752196D02*
X251174762Y-93816482D01*
X251174762Y-93816482D02*
X251198571Y-93848625D01*
X251198571Y-93848625D02*
X251246190Y-93880767D01*
X251246190Y-93880767D02*
X251341428Y-93880767D01*
X251341428Y-93880767D02*
X251389047Y-93848625D01*
X251389047Y-93848625D02*
X251412857Y-93816482D01*
X251412857Y-93816482D02*
X251436666Y-93752196D01*
X251436666Y-93752196D02*
X251436666Y-93205767D01*
X251650953Y-93848625D02*
X251722381Y-93880767D01*
X251722381Y-93880767D02*
X251841429Y-93880767D01*
X251841429Y-93880767D02*
X251889048Y-93848625D01*
X251889048Y-93848625D02*
X251912857Y-93816482D01*
X251912857Y-93816482D02*
X251936667Y-93752196D01*
X251936667Y-93752196D02*
X251936667Y-93687910D01*
X251936667Y-93687910D02*
X251912857Y-93623625D01*
X251912857Y-93623625D02*
X251889048Y-93591482D01*
X251889048Y-93591482D02*
X251841429Y-93559339D01*
X251841429Y-93559339D02*
X251746191Y-93527196D01*
X251746191Y-93527196D02*
X251698572Y-93495053D01*
X251698572Y-93495053D02*
X251674762Y-93462910D01*
X251674762Y-93462910D02*
X251650953Y-93398625D01*
X251650953Y-93398625D02*
X251650953Y-93334339D01*
X251650953Y-93334339D02*
X251674762Y-93270053D01*
X251674762Y-93270053D02*
X251698572Y-93237910D01*
X251698572Y-93237910D02*
X251746191Y-93205767D01*
X251746191Y-93205767D02*
X251865238Y-93205767D01*
X251865238Y-93205767D02*
X251936667Y-93237910D01*
X252317619Y-93527196D02*
X252389047Y-93559339D01*
X252389047Y-93559339D02*
X252412857Y-93591482D01*
X252412857Y-93591482D02*
X252436666Y-93655767D01*
X252436666Y-93655767D02*
X252436666Y-93752196D01*
X252436666Y-93752196D02*
X252412857Y-93816482D01*
X252412857Y-93816482D02*
X252389047Y-93848625D01*
X252389047Y-93848625D02*
X252341428Y-93880767D01*
X252341428Y-93880767D02*
X252150952Y-93880767D01*
X252150952Y-93880767D02*
X252150952Y-93205767D01*
X252150952Y-93205767D02*
X252317619Y-93205767D01*
X252317619Y-93205767D02*
X252365238Y-93237910D01*
X252365238Y-93237910D02*
X252389047Y-93270053D01*
X252389047Y-93270053D02*
X252412857Y-93334339D01*
X252412857Y-93334339D02*
X252412857Y-93398625D01*
X252412857Y-93398625D02*
X252389047Y-93462910D01*
X252389047Y-93462910D02*
X252365238Y-93495053D01*
X252365238Y-93495053D02*
X252317619Y-93527196D01*
X252317619Y-93527196D02*
X252150952Y-93527196D01*
X252627143Y-93270053D02*
X252650952Y-93237910D01*
X252650952Y-93237910D02*
X252698571Y-93205767D01*
X252698571Y-93205767D02*
X252817619Y-93205767D01*
X252817619Y-93205767D02*
X252865238Y-93237910D01*
X252865238Y-93237910D02*
X252889047Y-93270053D01*
X252889047Y-93270053D02*
X252912857Y-93334339D01*
X252912857Y-93334339D02*
X252912857Y-93398625D01*
X252912857Y-93398625D02*
X252889047Y-93495053D01*
X252889047Y-93495053D02*
X252603333Y-93880767D01*
X252603333Y-93880767D02*
X252912857Y-93880767D01*
X248270952Y-93205767D02*
X248270952Y-93752196D01*
X248270952Y-93752196D02*
X248294762Y-93816482D01*
X248294762Y-93816482D02*
X248318571Y-93848625D01*
X248318571Y-93848625D02*
X248366190Y-93880767D01*
X248366190Y-93880767D02*
X248461428Y-93880767D01*
X248461428Y-93880767D02*
X248509047Y-93848625D01*
X248509047Y-93848625D02*
X248532857Y-93816482D01*
X248532857Y-93816482D02*
X248556666Y-93752196D01*
X248556666Y-93752196D02*
X248556666Y-93205767D01*
X248770953Y-93848625D02*
X248842381Y-93880767D01*
X248842381Y-93880767D02*
X248961429Y-93880767D01*
X248961429Y-93880767D02*
X249009048Y-93848625D01*
X249009048Y-93848625D02*
X249032857Y-93816482D01*
X249032857Y-93816482D02*
X249056667Y-93752196D01*
X249056667Y-93752196D02*
X249056667Y-93687910D01*
X249056667Y-93687910D02*
X249032857Y-93623625D01*
X249032857Y-93623625D02*
X249009048Y-93591482D01*
X249009048Y-93591482D02*
X248961429Y-93559339D01*
X248961429Y-93559339D02*
X248866191Y-93527196D01*
X248866191Y-93527196D02*
X248818572Y-93495053D01*
X248818572Y-93495053D02*
X248794762Y-93462910D01*
X248794762Y-93462910D02*
X248770953Y-93398625D01*
X248770953Y-93398625D02*
X248770953Y-93334339D01*
X248770953Y-93334339D02*
X248794762Y-93270053D01*
X248794762Y-93270053D02*
X248818572Y-93237910D01*
X248818572Y-93237910D02*
X248866191Y-93205767D01*
X248866191Y-93205767D02*
X248985238Y-93205767D01*
X248985238Y-93205767D02*
X249056667Y-93237910D01*
X249437619Y-93527196D02*
X249509047Y-93559339D01*
X249509047Y-93559339D02*
X249532857Y-93591482D01*
X249532857Y-93591482D02*
X249556666Y-93655767D01*
X249556666Y-93655767D02*
X249556666Y-93752196D01*
X249556666Y-93752196D02*
X249532857Y-93816482D01*
X249532857Y-93816482D02*
X249509047Y-93848625D01*
X249509047Y-93848625D02*
X249461428Y-93880767D01*
X249461428Y-93880767D02*
X249270952Y-93880767D01*
X249270952Y-93880767D02*
X249270952Y-93205767D01*
X249270952Y-93205767D02*
X249437619Y-93205767D01*
X249437619Y-93205767D02*
X249485238Y-93237910D01*
X249485238Y-93237910D02*
X249509047Y-93270053D01*
X249509047Y-93270053D02*
X249532857Y-93334339D01*
X249532857Y-93334339D02*
X249532857Y-93398625D01*
X249532857Y-93398625D02*
X249509047Y-93462910D01*
X249509047Y-93462910D02*
X249485238Y-93495053D01*
X249485238Y-93495053D02*
X249437619Y-93527196D01*
X249437619Y-93527196D02*
X249270952Y-93527196D01*
X250032857Y-93880767D02*
X249747143Y-93880767D01*
X249890000Y-93880767D02*
X249890000Y-93205767D01*
X249890000Y-93205767D02*
X249842381Y-93302196D01*
X249842381Y-93302196D02*
X249794762Y-93366482D01*
X249794762Y-93366482D02*
X249747143Y-93398625D01*
X245297142Y-79940767D02*
X245297142Y-79265767D01*
X245297142Y-79265767D02*
X245582856Y-79940767D01*
X245582856Y-79940767D02*
X245582856Y-79265767D01*
X246106666Y-79876482D02*
X246082857Y-79908625D01*
X246082857Y-79908625D02*
X246011428Y-79940767D01*
X246011428Y-79940767D02*
X245963809Y-79940767D01*
X245963809Y-79940767D02*
X245892381Y-79908625D01*
X245892381Y-79908625D02*
X245844762Y-79844339D01*
X245844762Y-79844339D02*
X245820952Y-79780053D01*
X245820952Y-79780053D02*
X245797143Y-79651482D01*
X245797143Y-79651482D02*
X245797143Y-79555053D01*
X245797143Y-79555053D02*
X245820952Y-79426482D01*
X245820952Y-79426482D02*
X245844762Y-79362196D01*
X245844762Y-79362196D02*
X245892381Y-79297910D01*
X245892381Y-79297910D02*
X245963809Y-79265767D01*
X245963809Y-79265767D02*
X246011428Y-79265767D01*
X246011428Y-79265767D02*
X246082857Y-79297910D01*
X246082857Y-79297910D02*
X246106666Y-79330053D01*
X245047143Y-90173625D02*
X245428096Y-90173625D01*
X245237619Y-90430767D02*
X245237619Y-89916482D01*
X245904286Y-89755767D02*
X245666191Y-89755767D01*
X245666191Y-89755767D02*
X245642382Y-90077196D01*
X245642382Y-90077196D02*
X245666191Y-90045053D01*
X245666191Y-90045053D02*
X245713810Y-90012910D01*
X245713810Y-90012910D02*
X245832858Y-90012910D01*
X245832858Y-90012910D02*
X245880477Y-90045053D01*
X245880477Y-90045053D02*
X245904286Y-90077196D01*
X245904286Y-90077196D02*
X245928096Y-90141482D01*
X245928096Y-90141482D02*
X245928096Y-90302196D01*
X245928096Y-90302196D02*
X245904286Y-90366482D01*
X245904286Y-90366482D02*
X245880477Y-90398625D01*
X245880477Y-90398625D02*
X245832858Y-90430767D01*
X245832858Y-90430767D02*
X245713810Y-90430767D01*
X245713810Y-90430767D02*
X245666191Y-90398625D01*
X245666191Y-90398625D02*
X245642382Y-90366482D01*
X246070953Y-89755767D02*
X246237619Y-90430767D01*
X246237619Y-90430767D02*
X246404286Y-89755767D01*
X245297142Y-87780767D02*
X245297142Y-87105767D01*
X245297142Y-87105767D02*
X245416190Y-87105767D01*
X245416190Y-87105767D02*
X245487618Y-87137910D01*
X245487618Y-87137910D02*
X245535237Y-87202196D01*
X245535237Y-87202196D02*
X245559047Y-87266482D01*
X245559047Y-87266482D02*
X245582856Y-87395053D01*
X245582856Y-87395053D02*
X245582856Y-87491482D01*
X245582856Y-87491482D02*
X245559047Y-87620053D01*
X245559047Y-87620053D02*
X245535237Y-87684339D01*
X245535237Y-87684339D02*
X245487618Y-87748625D01*
X245487618Y-87748625D02*
X245416190Y-87780767D01*
X245416190Y-87780767D02*
X245297142Y-87780767D01*
X245797142Y-87780767D02*
X245797142Y-87105767D01*
X245797142Y-87105767D02*
X246082856Y-87780767D01*
X246082856Y-87780767D02*
X246082856Y-87105767D01*
X245309047Y-85210767D02*
X245309047Y-84535767D01*
X245309047Y-84535767D02*
X245428095Y-84535767D01*
X245428095Y-84535767D02*
X245499523Y-84567910D01*
X245499523Y-84567910D02*
X245547142Y-84632196D01*
X245547142Y-84632196D02*
X245570952Y-84696482D01*
X245570952Y-84696482D02*
X245594761Y-84825053D01*
X245594761Y-84825053D02*
X245594761Y-84921482D01*
X245594761Y-84921482D02*
X245570952Y-85050053D01*
X245570952Y-85050053D02*
X245547142Y-85114339D01*
X245547142Y-85114339D02*
X245499523Y-85178625D01*
X245499523Y-85178625D02*
X245428095Y-85210767D01*
X245428095Y-85210767D02*
X245309047Y-85210767D01*
X245809047Y-85210767D02*
X245809047Y-84535767D01*
X245809047Y-84535767D02*
X245999523Y-84535767D01*
X245999523Y-84535767D02*
X246047142Y-84567910D01*
X246047142Y-84567910D02*
X246070952Y-84600053D01*
X246070952Y-84600053D02*
X246094761Y-84664339D01*
X246094761Y-84664339D02*
X246094761Y-84760767D01*
X246094761Y-84760767D02*
X246070952Y-84825053D01*
X246070952Y-84825053D02*
X246047142Y-84857196D01*
X246047142Y-84857196D02*
X245999523Y-84889339D01*
X245999523Y-84889339D02*
X245809047Y-84889339D01*
X245309047Y-81797910D02*
X245261428Y-81765767D01*
X245261428Y-81765767D02*
X245189999Y-81765767D01*
X245189999Y-81765767D02*
X245118571Y-81797910D01*
X245118571Y-81797910D02*
X245070952Y-81862196D01*
X245070952Y-81862196D02*
X245047142Y-81926482D01*
X245047142Y-81926482D02*
X245023333Y-82055053D01*
X245023333Y-82055053D02*
X245023333Y-82151482D01*
X245023333Y-82151482D02*
X245047142Y-82280053D01*
X245047142Y-82280053D02*
X245070952Y-82344339D01*
X245070952Y-82344339D02*
X245118571Y-82408625D01*
X245118571Y-82408625D02*
X245189999Y-82440767D01*
X245189999Y-82440767D02*
X245237618Y-82440767D01*
X245237618Y-82440767D02*
X245309047Y-82408625D01*
X245309047Y-82408625D02*
X245332856Y-82376482D01*
X245332856Y-82376482D02*
X245332856Y-82151482D01*
X245332856Y-82151482D02*
X245237618Y-82151482D01*
X245547142Y-82440767D02*
X245547142Y-81765767D01*
X245547142Y-81765767D02*
X245832856Y-82440767D01*
X245832856Y-82440767D02*
X245832856Y-81765767D01*
X246070952Y-82440767D02*
X246070952Y-81765767D01*
X246070952Y-81765767D02*
X246190000Y-81765767D01*
X246190000Y-81765767D02*
X246261428Y-81797910D01*
X246261428Y-81797910D02*
X246309047Y-81862196D01*
X246309047Y-81862196D02*
X246332857Y-81926482D01*
X246332857Y-81926482D02*
X246356666Y-82055053D01*
X246356666Y-82055053D02*
X246356666Y-82151482D01*
X246356666Y-82151482D02*
X246332857Y-82280053D01*
X246332857Y-82280053D02*
X246309047Y-82344339D01*
X246309047Y-82344339D02*
X246261428Y-82408625D01*
X246261428Y-82408625D02*
X246190000Y-82440767D01*
X246190000Y-82440767D02*
X246070952Y-82440767D01*
D11*
X254325000Y-79682000D02*
G75*
G02*
X253971000Y-79682000I-177000J0D01*
G01*
X253971000Y-79682000D02*
G75*
G02*
X254325000Y-79682000I177000J0D01*
G01*
D10*
X255759047Y-91700767D02*
X255759047Y-91025767D01*
X255759047Y-91025767D02*
X255878095Y-91025767D01*
X255878095Y-91025767D02*
X255949523Y-91057910D01*
X255949523Y-91057910D02*
X255997142Y-91122196D01*
X255997142Y-91122196D02*
X256020952Y-91186482D01*
X256020952Y-91186482D02*
X256044761Y-91315053D01*
X256044761Y-91315053D02*
X256044761Y-91411482D01*
X256044761Y-91411482D02*
X256020952Y-91540053D01*
X256020952Y-91540053D02*
X255997142Y-91604339D01*
X255997142Y-91604339D02*
X255949523Y-91668625D01*
X255949523Y-91668625D02*
X255878095Y-91700767D01*
X255878095Y-91700767D02*
X255759047Y-91700767D01*
X256259047Y-91700767D02*
X256259047Y-91025767D01*
X256259047Y-91025767D02*
X256449523Y-91025767D01*
X256449523Y-91025767D02*
X256497142Y-91057910D01*
X256497142Y-91057910D02*
X256520952Y-91090053D01*
X256520952Y-91090053D02*
X256544761Y-91154339D01*
X256544761Y-91154339D02*
X256544761Y-91250767D01*
X256544761Y-91250767D02*
X256520952Y-91315053D01*
X256520952Y-91315053D02*
X256497142Y-91347196D01*
X256497142Y-91347196D02*
X256449523Y-91379339D01*
X256449523Y-91379339D02*
X256259047Y-91379339D01*
X255759047Y-92577910D02*
X255711428Y-92545767D01*
X255711428Y-92545767D02*
X255639999Y-92545767D01*
X255639999Y-92545767D02*
X255568571Y-92577910D01*
X255568571Y-92577910D02*
X255520952Y-92642196D01*
X255520952Y-92642196D02*
X255497142Y-92706482D01*
X255497142Y-92706482D02*
X255473333Y-92835053D01*
X255473333Y-92835053D02*
X255473333Y-92931482D01*
X255473333Y-92931482D02*
X255497142Y-93060053D01*
X255497142Y-93060053D02*
X255520952Y-93124339D01*
X255520952Y-93124339D02*
X255568571Y-93188625D01*
X255568571Y-93188625D02*
X255639999Y-93220767D01*
X255639999Y-93220767D02*
X255687618Y-93220767D01*
X255687618Y-93220767D02*
X255759047Y-93188625D01*
X255759047Y-93188625D02*
X255782856Y-93156482D01*
X255782856Y-93156482D02*
X255782856Y-92931482D01*
X255782856Y-92931482D02*
X255687618Y-92931482D01*
X255997142Y-93220767D02*
X255997142Y-92545767D01*
X255997142Y-92545767D02*
X256282856Y-93220767D01*
X256282856Y-93220767D02*
X256282856Y-92545767D01*
X256520952Y-93220767D02*
X256520952Y-92545767D01*
X256520952Y-92545767D02*
X256640000Y-92545767D01*
X256640000Y-92545767D02*
X256711428Y-92577910D01*
X256711428Y-92577910D02*
X256759047Y-92642196D01*
X256759047Y-92642196D02*
X256782857Y-92706482D01*
X256782857Y-92706482D02*
X256806666Y-92835053D01*
X256806666Y-92835053D02*
X256806666Y-92931482D01*
X256806666Y-92931482D02*
X256782857Y-93060053D01*
X256782857Y-93060053D02*
X256759047Y-93124339D01*
X256759047Y-93124339D02*
X256711428Y-93188625D01*
X256711428Y-93188625D02*
X256640000Y-93220767D01*
X256640000Y-93220767D02*
X256520952Y-93220767D01*
X258327142Y-91700767D02*
X258327142Y-91025767D01*
X258327142Y-91025767D02*
X258446190Y-91025767D01*
X258446190Y-91025767D02*
X258517618Y-91057910D01*
X258517618Y-91057910D02*
X258565237Y-91122196D01*
X258565237Y-91122196D02*
X258589047Y-91186482D01*
X258589047Y-91186482D02*
X258612856Y-91315053D01*
X258612856Y-91315053D02*
X258612856Y-91411482D01*
X258612856Y-91411482D02*
X258589047Y-91540053D01*
X258589047Y-91540053D02*
X258565237Y-91604339D01*
X258565237Y-91604339D02*
X258517618Y-91668625D01*
X258517618Y-91668625D02*
X258446190Y-91700767D01*
X258446190Y-91700767D02*
X258327142Y-91700767D01*
X258827142Y-91700767D02*
X258827142Y-91025767D01*
X258827142Y-91025767D02*
X259112856Y-91700767D01*
X259112856Y-91700767D02*
X259112856Y-91025767D01*
X257833334Y-92545767D02*
X258000000Y-93220767D01*
X258000000Y-93220767D02*
X258166667Y-92545767D01*
X258500000Y-92867196D02*
X258571428Y-92899339D01*
X258571428Y-92899339D02*
X258595238Y-92931482D01*
X258595238Y-92931482D02*
X258619047Y-92995767D01*
X258619047Y-92995767D02*
X258619047Y-93092196D01*
X258619047Y-93092196D02*
X258595238Y-93156482D01*
X258595238Y-93156482D02*
X258571428Y-93188625D01*
X258571428Y-93188625D02*
X258523809Y-93220767D01*
X258523809Y-93220767D02*
X258333333Y-93220767D01*
X258333333Y-93220767D02*
X258333333Y-92545767D01*
X258333333Y-92545767D02*
X258500000Y-92545767D01*
X258500000Y-92545767D02*
X258547619Y-92577910D01*
X258547619Y-92577910D02*
X258571428Y-92610053D01*
X258571428Y-92610053D02*
X258595238Y-92674339D01*
X258595238Y-92674339D02*
X258595238Y-92738625D01*
X258595238Y-92738625D02*
X258571428Y-92802910D01*
X258571428Y-92802910D02*
X258547619Y-92835053D01*
X258547619Y-92835053D02*
X258500000Y-92867196D01*
X258500000Y-92867196D02*
X258333333Y-92867196D01*
X258833333Y-92545767D02*
X258833333Y-93092196D01*
X258833333Y-93092196D02*
X258857143Y-93156482D01*
X258857143Y-93156482D02*
X258880952Y-93188625D01*
X258880952Y-93188625D02*
X258928571Y-93220767D01*
X258928571Y-93220767D02*
X259023809Y-93220767D01*
X259023809Y-93220767D02*
X259071428Y-93188625D01*
X259071428Y-93188625D02*
X259095238Y-93156482D01*
X259095238Y-93156482D02*
X259119047Y-93092196D01*
X259119047Y-93092196D02*
X259119047Y-92545767D01*
X259333334Y-93188625D02*
X259404762Y-93220767D01*
X259404762Y-93220767D02*
X259523810Y-93220767D01*
X259523810Y-93220767D02*
X259571429Y-93188625D01*
X259571429Y-93188625D02*
X259595238Y-93156482D01*
X259595238Y-93156482D02*
X259619048Y-93092196D01*
X259619048Y-93092196D02*
X259619048Y-93027910D01*
X259619048Y-93027910D02*
X259595238Y-92963625D01*
X259595238Y-92963625D02*
X259571429Y-92931482D01*
X259571429Y-92931482D02*
X259523810Y-92899339D01*
X259523810Y-92899339D02*
X259428572Y-92867196D01*
X259428572Y-92867196D02*
X259380953Y-92835053D01*
X259380953Y-92835053D02*
X259357143Y-92802910D01*
X259357143Y-92802910D02*
X259333334Y-92738625D01*
X259333334Y-92738625D02*
X259333334Y-92674339D01*
X259333334Y-92674339D02*
X259357143Y-92610053D01*
X259357143Y-92610053D02*
X259380953Y-92577910D01*
X259380953Y-92577910D02*
X259428572Y-92545767D01*
X259428572Y-92545767D02*
X259547619Y-92545767D01*
X259547619Y-92545767D02*
X259619048Y-92577910D01*
X207219047Y-74330767D02*
X207219047Y-73655767D01*
X207219047Y-73977196D02*
X207504761Y-73977196D01*
X207504761Y-74330767D02*
X207504761Y-73655767D01*
X208004762Y-74330767D02*
X207719048Y-74330767D01*
X207861905Y-74330767D02*
X207861905Y-73655767D01*
X207861905Y-73655767D02*
X207814286Y-73752196D01*
X207814286Y-73752196D02*
X207766667Y-73816482D01*
X207766667Y-73816482D02*
X207719048Y-73848625D01*
X176188333Y-86905767D02*
X176188333Y-87387910D01*
X176188333Y-87387910D02*
X176164524Y-87484339D01*
X176164524Y-87484339D02*
X176116905Y-87548625D01*
X176116905Y-87548625D02*
X176045476Y-87580767D01*
X176045476Y-87580767D02*
X175997857Y-87580767D01*
X176402619Y-86970053D02*
X176426428Y-86937910D01*
X176426428Y-86937910D02*
X176474047Y-86905767D01*
X176474047Y-86905767D02*
X176593095Y-86905767D01*
X176593095Y-86905767D02*
X176640714Y-86937910D01*
X176640714Y-86937910D02*
X176664523Y-86970053D01*
X176664523Y-86970053D02*
X176688333Y-87034339D01*
X176688333Y-87034339D02*
X176688333Y-87098625D01*
X176688333Y-87098625D02*
X176664523Y-87195053D01*
X176664523Y-87195053D02*
X176378809Y-87580767D01*
X176378809Y-87580767D02*
X176688333Y-87580767D01*
X250564286Y-100427196D02*
X250397619Y-100427196D01*
X250397619Y-100780767D02*
X250397619Y-100105767D01*
X250397619Y-100105767D02*
X250635714Y-100105767D01*
X250826190Y-100780767D02*
X250826190Y-100105767D01*
X251064285Y-100780767D02*
X251064285Y-100105767D01*
X251064285Y-100105767D02*
X251183333Y-100105767D01*
X251183333Y-100105767D02*
X251254761Y-100137910D01*
X251254761Y-100137910D02*
X251302380Y-100202196D01*
X251302380Y-100202196D02*
X251326190Y-100266482D01*
X251326190Y-100266482D02*
X251349999Y-100395053D01*
X251349999Y-100395053D02*
X251349999Y-100491482D01*
X251349999Y-100491482D02*
X251326190Y-100620053D01*
X251326190Y-100620053D02*
X251302380Y-100684339D01*
X251302380Y-100684339D02*
X251254761Y-100748625D01*
X251254761Y-100748625D02*
X251183333Y-100780767D01*
X251183333Y-100780767D02*
X251064285Y-100780767D01*
X251516666Y-100105767D02*
X251826190Y-100105767D01*
X251826190Y-100105767D02*
X251659523Y-100362910D01*
X251659523Y-100362910D02*
X251730952Y-100362910D01*
X251730952Y-100362910D02*
X251778571Y-100395053D01*
X251778571Y-100395053D02*
X251802380Y-100427196D01*
X251802380Y-100427196D02*
X251826190Y-100491482D01*
X251826190Y-100491482D02*
X251826190Y-100652196D01*
X251826190Y-100652196D02*
X251802380Y-100716482D01*
X251802380Y-100716482D02*
X251778571Y-100748625D01*
X251778571Y-100748625D02*
X251730952Y-100780767D01*
X251730952Y-100780767D02*
X251588095Y-100780767D01*
X251588095Y-100780767D02*
X251540476Y-100748625D01*
X251540476Y-100748625D02*
X251516666Y-100716482D01*
X238116666Y-100916482D02*
X238092857Y-100948625D01*
X238092857Y-100948625D02*
X238021428Y-100980767D01*
X238021428Y-100980767D02*
X237973809Y-100980767D01*
X237973809Y-100980767D02*
X237902381Y-100948625D01*
X237902381Y-100948625D02*
X237854762Y-100884339D01*
X237854762Y-100884339D02*
X237830952Y-100820053D01*
X237830952Y-100820053D02*
X237807143Y-100691482D01*
X237807143Y-100691482D02*
X237807143Y-100595053D01*
X237807143Y-100595053D02*
X237830952Y-100466482D01*
X237830952Y-100466482D02*
X237854762Y-100402196D01*
X237854762Y-100402196D02*
X237902381Y-100337910D01*
X237902381Y-100337910D02*
X237973809Y-100305767D01*
X237973809Y-100305767D02*
X238021428Y-100305767D01*
X238021428Y-100305767D02*
X238092857Y-100337910D01*
X238092857Y-100337910D02*
X238116666Y-100370053D01*
X238592857Y-100980767D02*
X238307143Y-100980767D01*
X238450000Y-100980767D02*
X238450000Y-100305767D01*
X238450000Y-100305767D02*
X238402381Y-100402196D01*
X238402381Y-100402196D02*
X238354762Y-100466482D01*
X238354762Y-100466482D02*
X238307143Y-100498625D01*
X239716666Y-92396482D02*
X239692857Y-92428625D01*
X239692857Y-92428625D02*
X239621428Y-92460767D01*
X239621428Y-92460767D02*
X239573809Y-92460767D01*
X239573809Y-92460767D02*
X239502381Y-92428625D01*
X239502381Y-92428625D02*
X239454762Y-92364339D01*
X239454762Y-92364339D02*
X239430952Y-92300053D01*
X239430952Y-92300053D02*
X239407143Y-92171482D01*
X239407143Y-92171482D02*
X239407143Y-92075053D01*
X239407143Y-92075053D02*
X239430952Y-91946482D01*
X239430952Y-91946482D02*
X239454762Y-91882196D01*
X239454762Y-91882196D02*
X239502381Y-91817910D01*
X239502381Y-91817910D02*
X239573809Y-91785767D01*
X239573809Y-91785767D02*
X239621428Y-91785767D01*
X239621428Y-91785767D02*
X239692857Y-91817910D01*
X239692857Y-91817910D02*
X239716666Y-91850053D01*
X240145238Y-92010767D02*
X240145238Y-92460767D01*
X240026190Y-91753625D02*
X239907143Y-92235767D01*
X239907143Y-92235767D02*
X240216666Y-92235767D01*
X246233333Y-78005767D02*
X246233333Y-78487910D01*
X246233333Y-78487910D02*
X246209524Y-78584339D01*
X246209524Y-78584339D02*
X246161905Y-78648625D01*
X246161905Y-78648625D02*
X246090476Y-78680767D01*
X246090476Y-78680767D02*
X246042857Y-78680767D01*
X246423809Y-78005767D02*
X246733333Y-78005767D01*
X246733333Y-78005767D02*
X246566666Y-78262910D01*
X246566666Y-78262910D02*
X246638095Y-78262910D01*
X246638095Y-78262910D02*
X246685714Y-78295053D01*
X246685714Y-78295053D02*
X246709523Y-78327196D01*
X246709523Y-78327196D02*
X246733333Y-78391482D01*
X246733333Y-78391482D02*
X246733333Y-78552196D01*
X246733333Y-78552196D02*
X246709523Y-78616482D01*
X246709523Y-78616482D02*
X246685714Y-78648625D01*
X246685714Y-78648625D02*
X246638095Y-78680767D01*
X246638095Y-78680767D02*
X246495238Y-78680767D01*
X246495238Y-78680767D02*
X246447619Y-78648625D01*
X246447619Y-78648625D02*
X246423809Y-78616482D01*
X182393758Y-72505767D02*
X182393758Y-72987910D01*
X182393758Y-72987910D02*
X182369949Y-73084339D01*
X182369949Y-73084339D02*
X182322330Y-73148625D01*
X182322330Y-73148625D02*
X182250901Y-73180767D01*
X182250901Y-73180767D02*
X182203282Y-73180767D01*
X182869948Y-72505767D02*
X182631853Y-72505767D01*
X182631853Y-72505767D02*
X182608044Y-72827196D01*
X182608044Y-72827196D02*
X182631853Y-72795053D01*
X182631853Y-72795053D02*
X182679472Y-72762910D01*
X182679472Y-72762910D02*
X182798520Y-72762910D01*
X182798520Y-72762910D02*
X182846139Y-72795053D01*
X182846139Y-72795053D02*
X182869948Y-72827196D01*
X182869948Y-72827196D02*
X182893758Y-72891482D01*
X182893758Y-72891482D02*
X182893758Y-73052196D01*
X182893758Y-73052196D02*
X182869948Y-73116482D01*
X182869948Y-73116482D02*
X182846139Y-73148625D01*
X182846139Y-73148625D02*
X182798520Y-73180767D01*
X182798520Y-73180767D02*
X182679472Y-73180767D01*
X182679472Y-73180767D02*
X182631853Y-73148625D01*
X182631853Y-73148625D02*
X182608044Y-73116482D01*
X225416666Y-92341482D02*
X225392857Y-92373625D01*
X225392857Y-92373625D02*
X225321428Y-92405767D01*
X225321428Y-92405767D02*
X225273809Y-92405767D01*
X225273809Y-92405767D02*
X225202381Y-92373625D01*
X225202381Y-92373625D02*
X225154762Y-92309339D01*
X225154762Y-92309339D02*
X225130952Y-92245053D01*
X225130952Y-92245053D02*
X225107143Y-92116482D01*
X225107143Y-92116482D02*
X225107143Y-92020053D01*
X225107143Y-92020053D02*
X225130952Y-91891482D01*
X225130952Y-91891482D02*
X225154762Y-91827196D01*
X225154762Y-91827196D02*
X225202381Y-91762910D01*
X225202381Y-91762910D02*
X225273809Y-91730767D01*
X225273809Y-91730767D02*
X225321428Y-91730767D01*
X225321428Y-91730767D02*
X225392857Y-91762910D01*
X225392857Y-91762910D02*
X225416666Y-91795053D01*
X225607143Y-91795053D02*
X225630952Y-91762910D01*
X225630952Y-91762910D02*
X225678571Y-91730767D01*
X225678571Y-91730767D02*
X225797619Y-91730767D01*
X225797619Y-91730767D02*
X225845238Y-91762910D01*
X225845238Y-91762910D02*
X225869047Y-91795053D01*
X225869047Y-91795053D02*
X225892857Y-91859339D01*
X225892857Y-91859339D02*
X225892857Y-91923625D01*
X225892857Y-91923625D02*
X225869047Y-92020053D01*
X225869047Y-92020053D02*
X225583333Y-92405767D01*
X225583333Y-92405767D02*
X225892857Y-92405767D01*
X229099047Y-89355767D02*
X229099047Y-89902196D01*
X229099047Y-89902196D02*
X229122857Y-89966482D01*
X229122857Y-89966482D02*
X229146666Y-89998625D01*
X229146666Y-89998625D02*
X229194285Y-90030767D01*
X229194285Y-90030767D02*
X229289523Y-90030767D01*
X229289523Y-90030767D02*
X229337142Y-89998625D01*
X229337142Y-89998625D02*
X229360952Y-89966482D01*
X229360952Y-89966482D02*
X229384761Y-89902196D01*
X229384761Y-89902196D02*
X229384761Y-89355767D01*
X229884762Y-90030767D02*
X229599048Y-90030767D01*
X229741905Y-90030767D02*
X229741905Y-89355767D01*
X229741905Y-89355767D02*
X229694286Y-89452196D01*
X229694286Y-89452196D02*
X229646667Y-89516482D01*
X229646667Y-89516482D02*
X229599048Y-89548625D01*
X238016666Y-92316482D02*
X237992857Y-92348625D01*
X237992857Y-92348625D02*
X237921428Y-92380767D01*
X237921428Y-92380767D02*
X237873809Y-92380767D01*
X237873809Y-92380767D02*
X237802381Y-92348625D01*
X237802381Y-92348625D02*
X237754762Y-92284339D01*
X237754762Y-92284339D02*
X237730952Y-92220053D01*
X237730952Y-92220053D02*
X237707143Y-92091482D01*
X237707143Y-92091482D02*
X237707143Y-91995053D01*
X237707143Y-91995053D02*
X237730952Y-91866482D01*
X237730952Y-91866482D02*
X237754762Y-91802196D01*
X237754762Y-91802196D02*
X237802381Y-91737910D01*
X237802381Y-91737910D02*
X237873809Y-91705767D01*
X237873809Y-91705767D02*
X237921428Y-91705767D01*
X237921428Y-91705767D02*
X237992857Y-91737910D01*
X237992857Y-91737910D02*
X238016666Y-91770053D01*
X238183333Y-91705767D02*
X238492857Y-91705767D01*
X238492857Y-91705767D02*
X238326190Y-91962910D01*
X238326190Y-91962910D02*
X238397619Y-91962910D01*
X238397619Y-91962910D02*
X238445238Y-91995053D01*
X238445238Y-91995053D02*
X238469047Y-92027196D01*
X238469047Y-92027196D02*
X238492857Y-92091482D01*
X238492857Y-92091482D02*
X238492857Y-92252196D01*
X238492857Y-92252196D02*
X238469047Y-92316482D01*
X238469047Y-92316482D02*
X238445238Y-92348625D01*
X238445238Y-92348625D02*
X238397619Y-92380767D01*
X238397619Y-92380767D02*
X238254762Y-92380767D01*
X238254762Y-92380767D02*
X238207143Y-92348625D01*
X238207143Y-92348625D02*
X238183333Y-92316482D01*
X188664286Y-100927196D02*
X188497619Y-100927196D01*
X188497619Y-101280767D02*
X188497619Y-100605767D01*
X188497619Y-100605767D02*
X188735714Y-100605767D01*
X188926190Y-101280767D02*
X188926190Y-100605767D01*
X189164285Y-101280767D02*
X189164285Y-100605767D01*
X189164285Y-100605767D02*
X189283333Y-100605767D01*
X189283333Y-100605767D02*
X189354761Y-100637910D01*
X189354761Y-100637910D02*
X189402380Y-100702196D01*
X189402380Y-100702196D02*
X189426190Y-100766482D01*
X189426190Y-100766482D02*
X189449999Y-100895053D01*
X189449999Y-100895053D02*
X189449999Y-100991482D01*
X189449999Y-100991482D02*
X189426190Y-101120053D01*
X189426190Y-101120053D02*
X189402380Y-101184339D01*
X189402380Y-101184339D02*
X189354761Y-101248625D01*
X189354761Y-101248625D02*
X189283333Y-101280767D01*
X189283333Y-101280767D02*
X189164285Y-101280767D01*
X189640476Y-100670053D02*
X189664285Y-100637910D01*
X189664285Y-100637910D02*
X189711904Y-100605767D01*
X189711904Y-100605767D02*
X189830952Y-100605767D01*
X189830952Y-100605767D02*
X189878571Y-100637910D01*
X189878571Y-100637910D02*
X189902380Y-100670053D01*
X189902380Y-100670053D02*
X189926190Y-100734339D01*
X189926190Y-100734339D02*
X189926190Y-100798625D01*
X189926190Y-100798625D02*
X189902380Y-100895053D01*
X189902380Y-100895053D02*
X189616666Y-101280767D01*
X189616666Y-101280767D02*
X189926190Y-101280767D01*
X211114286Y-74827196D02*
X210947619Y-74827196D01*
X210947619Y-75180767D02*
X210947619Y-74505767D01*
X210947619Y-74505767D02*
X211185714Y-74505767D01*
X211376190Y-75180767D02*
X211376190Y-74505767D01*
X211614285Y-75180767D02*
X211614285Y-74505767D01*
X211614285Y-74505767D02*
X211733333Y-74505767D01*
X211733333Y-74505767D02*
X211804761Y-74537910D01*
X211804761Y-74537910D02*
X211852380Y-74602196D01*
X211852380Y-74602196D02*
X211876190Y-74666482D01*
X211876190Y-74666482D02*
X211899999Y-74795053D01*
X211899999Y-74795053D02*
X211899999Y-74891482D01*
X211899999Y-74891482D02*
X211876190Y-75020053D01*
X211876190Y-75020053D02*
X211852380Y-75084339D01*
X211852380Y-75084339D02*
X211804761Y-75148625D01*
X211804761Y-75148625D02*
X211733333Y-75180767D01*
X211733333Y-75180767D02*
X211614285Y-75180767D01*
X212376190Y-75180767D02*
X212090476Y-75180767D01*
X212233333Y-75180767D02*
X212233333Y-74505767D01*
X212233333Y-74505767D02*
X212185714Y-74602196D01*
X212185714Y-74602196D02*
X212138095Y-74666482D01*
X212138095Y-74666482D02*
X212090476Y-74698625D01*
X224033333Y-104205767D02*
X224033333Y-104687910D01*
X224033333Y-104687910D02*
X224009524Y-104784339D01*
X224009524Y-104784339D02*
X223961905Y-104848625D01*
X223961905Y-104848625D02*
X223890476Y-104880767D01*
X223890476Y-104880767D02*
X223842857Y-104880767D01*
X224533333Y-104880767D02*
X224247619Y-104880767D01*
X224390476Y-104880767D02*
X224390476Y-104205767D01*
X224390476Y-104205767D02*
X224342857Y-104302196D01*
X224342857Y-104302196D02*
X224295238Y-104366482D01*
X224295238Y-104366482D02*
X224247619Y-104398625D01*
X260363333Y-75835767D02*
X260363333Y-76317910D01*
X260363333Y-76317910D02*
X260339524Y-76414339D01*
X260339524Y-76414339D02*
X260291905Y-76478625D01*
X260291905Y-76478625D02*
X260220476Y-76510767D01*
X260220476Y-76510767D02*
X260172857Y-76510767D01*
X260815714Y-76060767D02*
X260815714Y-76510767D01*
X260696666Y-75803625D02*
X260577619Y-76285767D01*
X260577619Y-76285767D02*
X260887142Y-76285767D01*
D12*
X175420000Y-90535000D02*
X175420000Y-99215000D01*
X178990000Y-88815000D02*
X183240000Y-88815000D01*
X178990000Y-100935000D02*
X183240000Y-100935000D01*
X181640000Y-89835000D02*
X181640000Y-91115000D01*
X181640000Y-91115000D02*
X184530000Y-91115000D01*
X181640000Y-99915000D02*
X181640000Y-98635000D01*
X183240000Y-88815000D02*
X183240000Y-89835000D01*
X183240000Y-89835000D02*
X181640000Y-89835000D01*
X183240000Y-99915000D02*
X181640000Y-99915000D01*
X183240000Y-100935000D02*
X183240000Y-99915000D01*
X237590000Y-98515580D02*
X237590000Y-98234420D01*
X238610000Y-98515580D02*
X238610000Y-98234420D01*
X239090000Y-94415580D02*
X239090000Y-94134420D01*
X240110000Y-94415580D02*
X240110000Y-94134420D01*
D13*
X247546000Y-77723000D02*
X253514000Y-77723000D01*
X247546000Y-91947000D02*
X247546000Y-77723000D01*
X253514000Y-77723000D02*
X253514000Y-91947000D01*
X253514000Y-91947000D02*
X247546000Y-91947000D01*
D14*
X184300000Y-71725000D02*
X197500000Y-71725000D01*
X184300000Y-80275000D02*
X184300000Y-71725000D01*
X186600000Y-85425000D02*
X185250000Y-85425000D01*
X196550000Y-85425000D02*
X195200000Y-85425000D01*
X197500000Y-71725000D02*
X197500000Y-80275000D01*
X195750000Y-86525000D02*
G75*
G02*
X195550000Y-86525000I-100000J0D01*
G01*
X195550000Y-86525000D02*
G75*
G02*
X195750000Y-86525000I100000J0D01*
G01*
D12*
X225090000Y-94334420D02*
X225090000Y-94615580D01*
X226110000Y-94334420D02*
X226110000Y-94615580D01*
X229040000Y-90565000D02*
X234560000Y-90565000D01*
X229040000Y-91090000D02*
X229040000Y-90565000D01*
X229040000Y-100985000D02*
X229040000Y-100460000D01*
X234560000Y-90565000D02*
X234560000Y-91090000D01*
X234560000Y-100460000D02*
X234560000Y-100985000D01*
X234560000Y-100985000D02*
X229040000Y-100985000D01*
X228300000Y-91085000D02*
X227960000Y-90615000D01*
X228640000Y-90615000D01*
X228300000Y-91085000D01*
G36*
X228300000Y-91085000D02*
G01*
X227960000Y-90615000D01*
X228640000Y-90615000D01*
X228300000Y-91085000D01*
G37*
X237590000Y-94415580D02*
X237590000Y-94134420D01*
X238610000Y-94415580D02*
X238610000Y-94134420D01*
X213315000Y-102065000D02*
X214265000Y-102065000D01*
X213315000Y-102515000D02*
X213315000Y-102065000D01*
X213315000Y-106035000D02*
X213315000Y-106485000D01*
X213315000Y-106485000D02*
X220285000Y-106485000D01*
X214265000Y-102065000D02*
X214265000Y-100575000D01*
X220285000Y-102065000D02*
X219335000Y-102065000D01*
X220285000Y-102515000D02*
X220285000Y-102065000D01*
X220285000Y-106485000D02*
X220285000Y-106035000D01*
D14*
X254739151Y-79405000D02*
X254739151Y-76865000D01*
X259819151Y-76865000D02*
X254739151Y-76865000D01*
X259819151Y-76865000D02*
X259819151Y-79405000D01*
X259819151Y-79405000D02*
X254739151Y-79405000D01*
X260569151Y-82440000D02*
G75*
G02*
X260369151Y-82440000I-100000J0D01*
G01*
X260369151Y-82440000D02*
G75*
G02*
X260569151Y-82440000I100000J0D01*
G01*
M02*
