M48
; DRILL file KiCad 10.0.3 date 2026-09-28T18:19:50
; FORMAT={-:-/ absolute / inch / decimal}
; #@! TF.CreationDate,2026-09-28T18:19:50+01:00
; #@! TF.GenerationSoftware,Kicad,Pcbnew,10.0.3
; #@! TF.FileFunction,MixedPlating,1,4
FMAT,2
INCH
; #@! TA.AperFunction,Plated,PTH,ViaDrill
T1C0.0118
; #@! TA.AperFunction,Plated,PTH,ComponentDrill
T2C0.0400
; #@! TA.AperFunction,NonPlated,NPTH,ComponentDrill
T3C0.0512
; #@! TA.AperFunction,NonPlated,NPTH,ComponentDrill
T4C0.0701
; #@! TA.AperFunction,NonPlated,NPTH,ComponentDrill
T5C0.1260
%
G90
G05
T1
X6.9858Y-2.8959
X6.9858Y-3.0959
X6.9858Y-3.2959
X6.9858Y-4.0959
X7.1142Y-3.8537
X7.2268Y-3.4006
X7.2307Y-3.1604
X7.2358Y-2.8959
X7.2358Y-3.0959
X7.2358Y-4.0959
X7.2756Y-3.8537
X7.378Y-3.2982
X7.378Y-3.4439
X7.4858Y-2.8959
X7.4858Y-3.0959
X7.4858Y-3.8959
X7.4858Y-4.0959
X7.652Y-3.4518
X7.6535Y-3.2927
X7.7358Y-2.8959
X7.7358Y-3.0959
X7.7358Y-3.8959
X7.7358Y-4.0959
X7.8016Y-3.1644
X7.8016Y-3.4045
X7.9858Y-3.0959
X7.9858Y-3.2959
X7.9858Y-3.8959
X7.9858Y-4.0959
X8.2358Y-2.8959
X8.2358Y-3.0959
X8.2358Y-3.8959
X8.2358Y-4.0959
X8.4606Y-3.936
X8.4606Y-4.0463
X8.4858Y-2.8959
X8.4858Y-3.2959
X8.4858Y-4.0959
X8.6102Y-3.936
X8.6102Y-4.0463
X8.7358Y-2.8959
X8.7358Y-3.0959
X8.7358Y-3.2959
X8.8346Y-3.6919
X8.8386Y-3.751
X8.9858Y-2.8959
X8.9858Y-3.0959
X8.9858Y-3.2959
X9.185Y-3.7825
X9.2358Y-2.8959
X9.2358Y-3.0959
X9.2358Y-3.2959
X9.4142Y-3.8427
X9.4764Y-3.6801
X9.4764Y-3.7392
X9.4858Y-2.8959
X9.4858Y-3.0959
X9.4858Y-3.2959
X9.4858Y-3.8959
X9.7358Y-2.8959
X9.7358Y-3.0959
X9.7358Y-3.2959
X9.7358Y-3.8959
X9.9858Y-2.8959
X9.9858Y-3.2959
X9.9858Y-3.8959
X9.9858Y-4.0959
X10.0791Y-3.4813
X10.1791Y-3.4813
X10.2358Y-2.8959
X10.2358Y-3.0959
X10.2358Y-3.8959
X10.2358Y-4.0959
T2
X9.8134Y-3.14
X9.8134Y-3.24
X9.8134Y-3.34
X9.8134Y-3.44
X9.8134Y-3.54
X9.9134Y-3.14
X9.9134Y-3.24
X9.9134Y-3.34
X9.9134Y-3.44
X9.9134Y-3.54
T3
X7.4173Y-3.2195
X7.6142Y-3.2195
T4
X10.1291Y-3.0762
T5
X7.9882Y-2.9852
M30
