G04 #@! TF.GenerationSoftware,KiCad,Pcbnew,10.0.3*
G04 #@! TF.CreationDate,2026-09-28T19:57:04+01:00*
G04 #@! TF.ProjectId,Matrix Routing PCB,4d617472-6978-4205-926f-7574696e6720,rev?*
G04 #@! TF.SameCoordinates,Original*
G04 #@! TF.FileFunction,Copper,L4,Bot*
G04 #@! TF.FilePolarity,Positive*
%FSLAX46Y46*%
G04 Gerber Fmt 4.6, Leading zero omitted, Abs format (unit mm)*
G04 Created by KiCad (PCBNEW 10.0.3) date 2026-09-28 19:57:04*
%MOMM*%
%LPD*%
G01*
G04 APERTURE LIST*
G04 #@! TA.AperFunction,ComponentPad*
%ADD10C,1.524000*%
G04 #@! TD*
G04 #@! TA.AperFunction,ViaPad*
%ADD11C,0.700000*%
G04 #@! TD*
G04 APERTURE END LIST*
D10*
X251800000Y-79755000D03*
X249260000Y-79755000D03*
X251800000Y-82295000D03*
X249260000Y-82295000D03*
X251800000Y-84835000D03*
X249260000Y-84835000D03*
X251800000Y-87375000D03*
X249260000Y-87375000D03*
X251800000Y-89915000D03*
X249260000Y-89915000D03*
D11*
X258570000Y-84695000D03*
X240940000Y-78635000D03*
X253640000Y-73555000D03*
X215540000Y-104035000D03*
X247290000Y-78635000D03*
X177440000Y-83715000D03*
X256009151Y-88425000D03*
X239120000Y-97605000D03*
X240940000Y-83715000D03*
X240700000Y-93475000D03*
X259990000Y-73555000D03*
X196490000Y-73555000D03*
X190140000Y-78635000D03*
X234590000Y-78635000D03*
X253640000Y-98955000D03*
X183790000Y-78635000D03*
X247290000Y-98955000D03*
X202840000Y-98955000D03*
X234590000Y-73555000D03*
X183660425Y-80275000D03*
X209190000Y-98955000D03*
X224500000Y-95275000D03*
X221890000Y-78635000D03*
X196490000Y-98955000D03*
X209190000Y-73555000D03*
X215540000Y-83715000D03*
X183790000Y-104035000D03*
X183560425Y-86375000D03*
X202840000Y-83715000D03*
X253640000Y-83715000D03*
X221890000Y-83715000D03*
X187400000Y-87475000D03*
X180700000Y-97885000D03*
X259990000Y-78635000D03*
X184800000Y-97885000D03*
X202840000Y-104035000D03*
X228240000Y-83715000D03*
X177440000Y-73555000D03*
X253640000Y-104035000D03*
X218700000Y-102775000D03*
X209190000Y-78635000D03*
X177440000Y-104035000D03*
X240940000Y-73555000D03*
X228240000Y-73555000D03*
X187400000Y-83775000D03*
X196490000Y-78635000D03*
X215540000Y-73555000D03*
X259990000Y-98955000D03*
X202840000Y-78635000D03*
X218700000Y-99975000D03*
X240940000Y-98955000D03*
X209190000Y-104035000D03*
X247290000Y-73555000D03*
X259990000Y-104035000D03*
X177440000Y-78635000D03*
X198160425Y-86475000D03*
X234590000Y-83715000D03*
X183790000Y-73555000D03*
X196490000Y-104035000D03*
X233300000Y-96075000D03*
X190140000Y-98955000D03*
X190140000Y-104035000D03*
X228240000Y-78635000D03*
X190140000Y-73555000D03*
X247290000Y-83715000D03*
X221890000Y-73555000D03*
X198160425Y-80375000D03*
X258549151Y-88425849D03*
X194360425Y-87675000D03*
X194400000Y-83635425D03*
X214900000Y-99975000D03*
X214900000Y-102775000D03*
X240700000Y-94975000D03*
X224400000Y-93775000D03*
X259530000Y-86630000D03*
G04 #@! TA.AperFunction,Conductor*
G36*
X193391868Y-71995185D02*
G01*
X193437623Y-72047989D01*
X193447567Y-72117147D01*
X193418542Y-72180703D01*
X193412510Y-72187181D01*
X193278892Y-72320798D01*
X193278855Y-72320837D01*
X193242728Y-72361055D01*
X193242718Y-72361067D01*
X193226076Y-72381718D01*
X193194433Y-72425600D01*
X193134663Y-72556474D01*
X193114976Y-72623519D01*
X193094500Y-72765938D01*
X193094500Y-80800293D01*
X193094581Y-80809320D01*
X193094659Y-80813712D01*
X193094901Y-80822773D01*
X193095383Y-80827451D01*
X193093912Y-80827602D01*
X193087123Y-80890613D01*
X193043269Y-80945006D01*
X193020026Y-80957694D01*
X192973462Y-80976981D01*
X192973456Y-80976984D01*
X192973439Y-80976994D01*
X192825962Y-81075536D01*
X192825961Y-81075537D01*
X192825955Y-81075542D01*
X192700542Y-81200955D01*
X192700537Y-81200961D01*
X192700536Y-81200962D01*
X192601994Y-81348439D01*
X192601985Y-81348454D01*
X192601977Y-81348472D01*
X192534109Y-81512322D01*
X192534101Y-81512345D01*
X192534099Y-81512352D01*
X192499500Y-81686299D01*
X192499500Y-81863699D01*
X192534099Y-82037646D01*
X192534101Y-82037653D01*
X192534109Y-82037676D01*
X192601977Y-82201526D01*
X192601985Y-82201544D01*
X192601994Y-82201559D01*
X192700536Y-82349036D01*
X192700537Y-82349037D01*
X192700542Y-82349043D01*
X192825955Y-82474456D01*
X192825961Y-82474461D01*
X192825965Y-82474464D01*
X192973446Y-82573009D01*
X192973459Y-82573016D01*
X192996852Y-82582705D01*
X193022678Y-82593403D01*
X193077082Y-82637243D01*
X193099147Y-82703537D01*
X193097964Y-82725609D01*
X193094500Y-82749704D01*
X193094500Y-89451000D01*
X193094501Y-89451009D01*
X193106052Y-89558450D01*
X193106054Y-89558462D01*
X193117260Y-89609972D01*
X193151383Y-89712497D01*
X193151386Y-89712503D01*
X193229171Y-89833537D01*
X193229179Y-89833548D01*
X193274923Y-89886340D01*
X193274926Y-89886343D01*
X193274930Y-89886347D01*
X193383664Y-89980567D01*
X193383667Y-89980568D01*
X193383668Y-89980569D01*
X193460883Y-90015833D01*
X193514541Y-90040338D01*
X193581580Y-90060023D01*
X193581584Y-90060024D01*
X193724000Y-90080500D01*
X193724003Y-90080500D01*
X199848638Y-90080500D01*
X199848640Y-90080500D01*
X199858786Y-90079955D01*
X199902678Y-90077603D01*
X199902686Y-90077602D01*
X199902688Y-90077602D01*
X199902689Y-90077602D01*
X199909682Y-90076849D01*
X199929036Y-90074769D01*
X199929046Y-90074767D01*
X199929049Y-90074767D01*
X199938648Y-90073211D01*
X199982448Y-90066114D01*
X200117257Y-90015832D01*
X200178580Y-89982347D01*
X200293762Y-89896123D01*
X200374207Y-89815678D01*
X247998000Y-89815678D01*
X247998000Y-90014321D01*
X248027548Y-90200878D01*
X248027549Y-90200886D01*
X248029075Y-90210524D01*
X248090458Y-90399441D01*
X248180641Y-90576433D01*
X248207727Y-90613712D01*
X248207730Y-90613716D01*
X248207730Y-90613715D01*
X248207731Y-90613716D01*
X248644442Y-90177003D01*
X248705762Y-90143521D01*
X248775453Y-90148505D01*
X248831387Y-90190376D01*
X248839506Y-90202685D01*
X248853498Y-90226920D01*
X248948080Y-90321502D01*
X248948081Y-90321503D01*
X248948083Y-90321504D01*
X248972308Y-90335490D01*
X249020525Y-90386056D01*
X249033749Y-90454663D01*
X249007782Y-90519528D01*
X248997991Y-90530559D01*
X248561282Y-90967268D01*
X248561283Y-90967268D01*
X248561283Y-90967269D01*
X248598567Y-90994358D01*
X248682187Y-91036965D01*
X248775557Y-91084540D01*
X248775559Y-91084540D01*
X248775562Y-91084542D01*
X248876826Y-91117444D01*
X248964476Y-91145924D01*
X249062578Y-91161462D01*
X249160679Y-91177000D01*
X249359320Y-91177000D01*
X249359321Y-91177000D01*
X249466070Y-91160091D01*
X249545880Y-91147451D01*
X249545886Y-91147450D01*
X249547408Y-91147208D01*
X249555520Y-91145924D01*
X249555523Y-91145924D01*
X249744437Y-91084542D01*
X249921425Y-90994362D01*
X249958716Y-90967268D01*
X249958715Y-90967267D01*
X249958716Y-90967267D01*
X249522008Y-90530559D01*
X249488523Y-90469236D01*
X249493507Y-90399544D01*
X249535379Y-90343611D01*
X249547681Y-90335496D01*
X249571920Y-90321502D01*
X249666502Y-90226920D01*
X249680491Y-90202689D01*
X249731057Y-90154473D01*
X249799664Y-90141249D01*
X249864529Y-90167216D01*
X249875560Y-90177007D01*
X250312267Y-90613714D01*
X250312268Y-90613715D01*
X250339362Y-90576425D01*
X250411423Y-90434997D01*
X250431752Y-90406160D01*
X250440644Y-90396744D01*
X250500981Y-90361520D01*
X250570787Y-90364508D01*
X250624507Y-90400677D01*
X250630580Y-90407686D01*
X250647350Y-90432591D01*
X250720641Y-90576432D01*
X250720644Y-90576438D01*
X250747727Y-90613712D01*
X250747730Y-90613716D01*
X250747730Y-90613715D01*
X250747731Y-90613716D01*
X251184442Y-90177003D01*
X251245762Y-90143521D01*
X251315453Y-90148505D01*
X251371387Y-90190376D01*
X251379506Y-90202685D01*
X251393498Y-90226920D01*
X251488080Y-90321502D01*
X251488081Y-90321503D01*
X251488083Y-90321504D01*
X251512308Y-90335490D01*
X251560525Y-90386056D01*
X251573749Y-90454663D01*
X251547782Y-90519528D01*
X251537991Y-90530559D01*
X251101282Y-90967268D01*
X251101283Y-90967268D01*
X251101283Y-90967269D01*
X251138567Y-90994358D01*
X251222187Y-91036965D01*
X251315557Y-91084540D01*
X251315559Y-91084540D01*
X251315562Y-91084542D01*
X251416826Y-91117444D01*
X251504476Y-91145924D01*
X251602578Y-91161462D01*
X251700679Y-91177000D01*
X251899320Y-91177000D01*
X251899321Y-91177000D01*
X252006070Y-91160091D01*
X252085880Y-91147451D01*
X252085886Y-91147450D01*
X252087408Y-91147208D01*
X252095520Y-91145924D01*
X252095523Y-91145924D01*
X252284437Y-91084542D01*
X252461425Y-90994362D01*
X252498716Y-90967268D01*
X252498715Y-90967267D01*
X252498716Y-90967267D01*
X252062008Y-90530559D01*
X252028523Y-90469236D01*
X252033507Y-90399544D01*
X252075379Y-90343611D01*
X252087681Y-90335496D01*
X252111920Y-90321502D01*
X252206502Y-90226920D01*
X252220491Y-90202689D01*
X252271057Y-90154473D01*
X252339664Y-90141249D01*
X252404529Y-90167216D01*
X252415560Y-90177007D01*
X252852267Y-90613714D01*
X252852268Y-90613715D01*
X252879362Y-90576425D01*
X252968909Y-90400679D01*
X252969540Y-90399441D01*
X252969540Y-90399440D01*
X252969542Y-90399437D01*
X253030924Y-90210523D01*
X253030924Y-90210520D01*
X253062000Y-90014321D01*
X253062000Y-89815678D01*
X253039802Y-89675528D01*
X253032451Y-89629118D01*
X253032450Y-89629112D01*
X253032450Y-89629113D01*
X253030924Y-89619479D01*
X253030924Y-89619476D01*
X252969542Y-89430562D01*
X252969539Y-89430557D01*
X252969538Y-89430552D01*
X252879362Y-89253574D01*
X252879360Y-89253572D01*
X252879358Y-89253567D01*
X252852268Y-89216283D01*
X252852267Y-89216283D01*
X252415559Y-89652991D01*
X252354236Y-89686476D01*
X252284544Y-89681492D01*
X252228611Y-89639620D01*
X252220490Y-89627308D01*
X252206504Y-89603083D01*
X252206500Y-89603078D01*
X252111921Y-89508499D01*
X252111920Y-89508498D01*
X252087687Y-89494507D01*
X252039472Y-89443941D01*
X252026248Y-89375334D01*
X252052216Y-89310469D01*
X252061988Y-89299457D01*
X252498716Y-88862731D01*
X252498715Y-88862730D01*
X252498716Y-88862730D01*
X252498712Y-88862727D01*
X252461433Y-88835641D01*
X252284439Y-88745458D01*
X252284438Y-88745457D01*
X252284437Y-88745457D01*
X252235443Y-88729538D01*
X252095522Y-88684074D01*
X251899326Y-88653000D01*
X251899321Y-88653000D01*
X251700679Y-88653000D01*
X251700674Y-88653000D01*
X251514120Y-88682548D01*
X251514112Y-88682547D01*
X251514113Y-88682549D01*
X251504474Y-88684075D01*
X251378533Y-88724996D01*
X251315562Y-88745457D01*
X251281111Y-88763011D01*
X251138564Y-88835642D01*
X251101282Y-88862729D01*
X251101282Y-88862730D01*
X251537992Y-89299439D01*
X251571477Y-89360762D01*
X251566493Y-89430453D01*
X251524622Y-89486387D01*
X251512313Y-89494506D01*
X251488083Y-89508495D01*
X251488078Y-89508499D01*
X251393499Y-89603078D01*
X251393495Y-89603083D01*
X251379506Y-89627313D01*
X251328938Y-89675528D01*
X251260331Y-89688749D01*
X251195466Y-89662780D01*
X251184439Y-89652992D01*
X250747731Y-89216282D01*
X250747730Y-89216282D01*
X250720641Y-89253567D01*
X250648577Y-89394997D01*
X250634427Y-89415070D01*
X250628247Y-89423837D01*
X250619357Y-89433251D01*
X250559018Y-89468477D01*
X250489212Y-89465489D01*
X250435492Y-89429320D01*
X250429421Y-89422314D01*
X250412648Y-89397404D01*
X250339362Y-89253574D01*
X250339360Y-89253572D01*
X250339358Y-89253567D01*
X250312268Y-89216283D01*
X250312267Y-89216283D01*
X249875559Y-89652991D01*
X249814236Y-89686476D01*
X249744544Y-89681492D01*
X249688611Y-89639620D01*
X249680490Y-89627308D01*
X249666504Y-89603083D01*
X249666500Y-89603078D01*
X249571921Y-89508499D01*
X249571920Y-89508498D01*
X249547687Y-89494507D01*
X249499472Y-89443941D01*
X249486248Y-89375334D01*
X249512216Y-89310469D01*
X249521988Y-89299457D01*
X249958716Y-88862731D01*
X249958715Y-88862730D01*
X249958716Y-88862730D01*
X249958712Y-88862727D01*
X249921433Y-88835641D01*
X249744439Y-88745458D01*
X249744438Y-88745457D01*
X249744437Y-88745457D01*
X249695443Y-88729538D01*
X249555522Y-88684074D01*
X249359326Y-88653000D01*
X249359321Y-88653000D01*
X249160679Y-88653000D01*
X249160674Y-88653000D01*
X248974120Y-88682548D01*
X248974112Y-88682547D01*
X248974113Y-88682549D01*
X248964474Y-88684075D01*
X248838533Y-88724996D01*
X248775562Y-88745457D01*
X248741111Y-88763011D01*
X248598564Y-88835642D01*
X248561282Y-88862729D01*
X248561282Y-88862730D01*
X248997992Y-89299439D01*
X249031477Y-89360762D01*
X249026493Y-89430453D01*
X248984622Y-89486387D01*
X248972313Y-89494506D01*
X248948083Y-89508495D01*
X248948078Y-89508499D01*
X248853499Y-89603078D01*
X248853495Y-89603083D01*
X248839506Y-89627313D01*
X248788938Y-89675528D01*
X248720331Y-89688749D01*
X248655466Y-89662780D01*
X248644439Y-89652992D01*
X248207731Y-89216282D01*
X248207730Y-89216282D01*
X248180642Y-89253564D01*
X248157268Y-89299439D01*
X248090457Y-89430562D01*
X248082213Y-89455935D01*
X248029075Y-89619474D01*
X248027835Y-89627308D01*
X247998000Y-89815678D01*
X200374207Y-89815678D01*
X200466761Y-89723125D01*
X203473065Y-86716819D01*
X203534388Y-86683334D01*
X203560746Y-86680500D01*
X248334473Y-86680500D01*
X248401512Y-86700185D01*
X248447267Y-86752989D01*
X248457211Y-86822147D01*
X248437575Y-86873391D01*
X248407040Y-86919089D01*
X248334488Y-87094246D01*
X248334482Y-87094273D01*
X248297500Y-87280194D01*
X248297500Y-87280197D01*
X248297500Y-87469802D01*
X248297500Y-87469804D01*
X248297499Y-87469804D01*
X248334482Y-87655725D01*
X248334486Y-87655742D01*
X248334487Y-87655750D01*
X248407039Y-87830908D01*
X248512378Y-87988560D01*
X248646437Y-88122619D01*
X248646445Y-88122625D01*
X248744259Y-88187982D01*
X248744260Y-88187982D01*
X248793934Y-88221173D01*
X248799932Y-88225181D01*
X248799933Y-88225182D01*
X248805104Y-88228637D01*
X248809703Y-88230283D01*
X248979249Y-88300512D01*
X249153207Y-88335114D01*
X249162226Y-88336908D01*
X249164461Y-88337409D01*
X249165199Y-88337500D01*
X249354799Y-88337500D01*
X249358919Y-88337500D01*
X249366768Y-88335118D01*
X249540751Y-88300512D01*
X249715915Y-88227956D01*
X249873558Y-88122622D01*
X250007622Y-87988558D01*
X250112956Y-87830915D01*
X250185512Y-87655751D01*
X250222500Y-87469798D01*
X250222500Y-87280202D01*
X250185512Y-87094249D01*
X250112956Y-86919085D01*
X250077686Y-86866300D01*
X250077686Y-86866299D01*
X250077684Y-86866298D01*
X250007622Y-86761441D01*
X250007619Y-86761437D01*
X249873560Y-86627378D01*
X249715908Y-86522039D01*
X249540752Y-86449488D01*
X249540725Y-86449482D01*
X249354804Y-86412500D01*
X249354802Y-86412500D01*
X249354798Y-86412500D01*
X249302314Y-86412500D01*
X249235275Y-86392815D01*
X249189520Y-86340011D01*
X249179576Y-86270853D01*
X249184943Y-86248500D01*
X249194868Y-86219376D01*
X249194870Y-86219371D01*
X249221427Y-86077963D01*
X249207070Y-85934801D01*
X249206977Y-85933873D01*
X249208893Y-85923666D01*
X249206614Y-85913532D01*
X249215233Y-85889911D01*
X249219874Y-85865204D01*
X249227005Y-85857653D01*
X249230566Y-85847896D01*
X249250584Y-85832687D01*
X249267848Y-85814409D01*
X249279408Y-85810789D01*
X249286201Y-85805629D01*
X249309718Y-85801299D01*
X249320634Y-85797882D01*
X249325489Y-85797500D01*
X249354799Y-85797500D01*
X249354800Y-85797499D01*
X249540751Y-85760512D01*
X249715915Y-85687956D01*
X249873558Y-85582622D01*
X250007622Y-85448558D01*
X250112956Y-85290915D01*
X250185512Y-85115751D01*
X250222500Y-84929798D01*
X250222500Y-84740202D01*
X250185512Y-84554249D01*
X250112956Y-84379085D01*
X250112954Y-84379082D01*
X250112952Y-84379078D01*
X250029703Y-84254488D01*
X250007620Y-84221438D01*
X249873560Y-84087378D01*
X249715908Y-83982039D01*
X249540752Y-83909488D01*
X249540725Y-83909482D01*
X249397926Y-83881077D01*
X249336015Y-83848692D01*
X249301441Y-83787976D01*
X249300249Y-83736572D01*
X249306643Y-83702525D01*
X249327407Y-83591963D01*
X249313050Y-83448801D01*
X249301083Y-83400476D01*
X249304075Y-83330674D01*
X249344331Y-83273567D01*
X249397253Y-83249054D01*
X249540751Y-83220512D01*
X249715915Y-83147956D01*
X249873558Y-83042622D01*
X250007622Y-82908558D01*
X250112956Y-82750915D01*
X250185512Y-82575751D01*
X250222500Y-82389798D01*
X250222500Y-82200202D01*
X250185512Y-82014249D01*
X250112956Y-81839085D01*
X250077686Y-81786300D01*
X250077686Y-81786299D01*
X250077684Y-81786298D01*
X250010873Y-81686306D01*
X250007623Y-81681442D01*
X250007619Y-81681437D01*
X249873560Y-81547378D01*
X249715908Y-81442039D01*
X249540752Y-81369488D01*
X249540725Y-81369482D01*
X249397926Y-81341077D01*
X249336015Y-81308692D01*
X249301441Y-81247976D01*
X249300249Y-81196572D01*
X249310648Y-81141197D01*
X249327407Y-81051963D01*
X249313050Y-80908801D01*
X249301083Y-80860476D01*
X249304075Y-80790674D01*
X249344331Y-80733567D01*
X249397253Y-80709054D01*
X249540751Y-80680512D01*
X249715915Y-80607956D01*
X249873558Y-80502622D01*
X250007622Y-80368558D01*
X250112956Y-80210915D01*
X250185512Y-80035751D01*
X250213921Y-79892923D01*
X250246305Y-79831015D01*
X250307021Y-79796441D01*
X250358426Y-79795248D01*
X250361625Y-79795848D01*
X250361629Y-79795850D01*
X250503037Y-79822407D01*
X250646199Y-79808050D01*
X250694520Y-79796084D01*
X250764325Y-79799076D01*
X250821432Y-79839333D01*
X250845944Y-79892256D01*
X250874482Y-80035725D01*
X250874488Y-80035752D01*
X250947039Y-80210908D01*
X251052378Y-80368560D01*
X251186437Y-80502619D01*
X251186441Y-80502622D01*
X251291300Y-80572686D01*
X251344085Y-80607956D01*
X251344086Y-80607956D01*
X251344087Y-80607957D01*
X251356298Y-80613015D01*
X251519249Y-80680512D01*
X251662074Y-80708921D01*
X251723981Y-80741304D01*
X251758556Y-80802019D01*
X251759750Y-80853423D01*
X251759147Y-80856636D01*
X251736547Y-80976981D01*
X251732592Y-80998039D01*
X251746948Y-81141197D01*
X251746949Y-81141200D01*
X251758915Y-81189522D01*
X251755921Y-81259327D01*
X251715663Y-81316433D01*
X251662742Y-81340944D01*
X251519273Y-81369482D01*
X251519246Y-81369488D01*
X251344090Y-81442039D01*
X251186438Y-81547378D01*
X251052378Y-81681438D01*
X250947039Y-81839090D01*
X250874488Y-82014246D01*
X250874482Y-82014273D01*
X250837500Y-82200194D01*
X250837500Y-82200197D01*
X250837500Y-82389802D01*
X250837500Y-82389804D01*
X250837499Y-82389804D01*
X250874482Y-82575725D01*
X250874488Y-82575752D01*
X250947039Y-82750908D01*
X251052378Y-82908560D01*
X251186437Y-83042619D01*
X251186441Y-83042622D01*
X251291300Y-83112686D01*
X251344085Y-83147956D01*
X251344086Y-83147956D01*
X251344087Y-83147957D01*
X251383766Y-83164392D01*
X251519249Y-83220512D01*
X251662736Y-83249053D01*
X251702226Y-83256908D01*
X251704461Y-83257409D01*
X251705199Y-83257500D01*
X251894799Y-83257500D01*
X251898919Y-83257500D01*
X251906768Y-83255118D01*
X252080751Y-83220512D01*
X252255915Y-83147956D01*
X252259235Y-83145737D01*
X252261240Y-83145109D01*
X252261282Y-83145087D01*
X252261286Y-83145094D01*
X252325905Y-83124854D01*
X252393287Y-83143332D01*
X252439983Y-83195305D01*
X252442268Y-83200369D01*
X252478683Y-83286127D01*
X252478685Y-83286131D01*
X252478687Y-83286135D01*
X252553233Y-83376982D01*
X252569957Y-83397363D01*
X252605637Y-83429997D01*
X252611691Y-83437828D01*
X252678155Y-83483107D01*
X252740422Y-83525527D01*
X252877336Y-83569754D01*
X252946202Y-83581550D01*
X252946203Y-83581550D01*
X252946218Y-83581550D01*
X252946520Y-83581576D01*
X252947876Y-83581595D01*
X252952961Y-83581731D01*
X252968825Y-83582157D01*
X253035313Y-83603632D01*
X253079635Y-83657644D01*
X253089500Y-83706112D01*
X253089500Y-83787477D01*
X253095304Y-83809138D01*
X253095169Y-83814801D01*
X253097677Y-83819881D01*
X253094346Y-83849341D01*
X253093641Y-83878988D01*
X253090465Y-83883680D01*
X253089829Y-83889308D01*
X253071099Y-83912291D01*
X253054477Y-83936850D01*
X253048330Y-83940232D01*
X253045691Y-83943471D01*
X253018764Y-83956500D01*
X253014045Y-83959097D01*
X253010564Y-83960234D01*
X253010270Y-83960281D01*
X252943518Y-83980921D01*
X252943516Y-83980922D01*
X252935225Y-83984852D01*
X252935217Y-83984855D01*
X252813506Y-84042554D01*
X252763246Y-84087378D01*
X252706125Y-84138320D01*
X252682697Y-84166149D01*
X252624466Y-84204758D01*
X252554603Y-84205756D01*
X252500155Y-84173973D01*
X252413560Y-84087378D01*
X252255908Y-83982039D01*
X252080752Y-83909488D01*
X252080725Y-83909482D01*
X251894804Y-83872500D01*
X251894802Y-83872500D01*
X251894798Y-83872500D01*
X251705202Y-83872500D01*
X251705197Y-83872500D01*
X251705195Y-83872500D01*
X251519273Y-83909482D01*
X251519246Y-83909488D01*
X251344090Y-83982039D01*
X251186438Y-84087378D01*
X251052378Y-84221438D01*
X250947039Y-84379090D01*
X250874488Y-84554246D01*
X250874482Y-84554273D01*
X250837500Y-84740194D01*
X250837500Y-84740197D01*
X250837500Y-84929802D01*
X250837500Y-84929804D01*
X250837499Y-84929804D01*
X250874482Y-85115725D01*
X250874488Y-85115752D01*
X250947039Y-85290908D01*
X251052378Y-85448560D01*
X251186437Y-85582619D01*
X251186441Y-85582622D01*
X251291300Y-85652686D01*
X251344085Y-85687956D01*
X251519249Y-85760512D01*
X251705197Y-85797499D01*
X251705201Y-85797500D01*
X251705202Y-85797500D01*
X251730665Y-85797500D01*
X251734425Y-85797729D01*
X251763888Y-85808364D01*
X251793927Y-85817185D01*
X251796477Y-85820128D01*
X251800144Y-85821452D01*
X251819181Y-85846330D01*
X251839682Y-85869989D01*
X251840236Y-85873844D01*
X251842605Y-85876940D01*
X251845169Y-85908151D01*
X251849626Y-85939147D01*
X251848239Y-85945521D01*
X251848326Y-85946575D01*
X251847791Y-85947578D01*
X251845866Y-85956429D01*
X251844402Y-85961417D01*
X251844402Y-85961418D01*
X251844402Y-86105293D01*
X251854348Y-86174461D01*
X251877576Y-86253564D01*
X251877576Y-86323434D01*
X251839802Y-86382212D01*
X251776247Y-86411238D01*
X251758599Y-86412500D01*
X251705195Y-86412500D01*
X251519273Y-86449482D01*
X251519246Y-86449488D01*
X251344090Y-86522039D01*
X251186438Y-86627378D01*
X251052378Y-86761438D01*
X250947039Y-86919090D01*
X250874488Y-87094246D01*
X250874482Y-87094273D01*
X250837500Y-87280194D01*
X250837500Y-87280197D01*
X250837500Y-87469802D01*
X250837500Y-87469804D01*
X250837499Y-87469804D01*
X250874482Y-87655725D01*
X250874486Y-87655742D01*
X250874487Y-87655750D01*
X250947039Y-87830908D01*
X251052378Y-87988560D01*
X251186437Y-88122619D01*
X251186445Y-88122625D01*
X251284259Y-88187982D01*
X251284260Y-88187982D01*
X251333934Y-88221173D01*
X251339932Y-88225181D01*
X251339933Y-88225182D01*
X251345104Y-88228637D01*
X251349703Y-88230283D01*
X251519249Y-88300512D01*
X251693207Y-88335114D01*
X251702226Y-88336908D01*
X251704461Y-88337409D01*
X251705199Y-88337500D01*
X251894799Y-88337500D01*
X251898919Y-88337500D01*
X251906768Y-88335118D01*
X252080751Y-88300512D01*
X252255915Y-88227956D01*
X252413558Y-88122622D01*
X252547622Y-87988558D01*
X252652956Y-87830915D01*
X252725512Y-87655751D01*
X252762500Y-87469798D01*
X252762500Y-87280202D01*
X252725512Y-87094249D01*
X252652956Y-86919085D01*
X252622423Y-86873390D01*
X252601546Y-86806713D01*
X252620031Y-86739333D01*
X252672010Y-86692643D01*
X252725526Y-86680500D01*
X256239254Y-86680500D01*
X256268694Y-86689144D01*
X256298681Y-86695668D01*
X256303696Y-86699422D01*
X256306293Y-86700185D01*
X256326935Y-86716819D01*
X256358181Y-86748065D01*
X256391666Y-86809388D01*
X256394500Y-86835746D01*
X256394500Y-87796734D01*
X256374815Y-87863773D01*
X256322011Y-87909528D01*
X256252853Y-87919472D01*
X256238408Y-87916509D01*
X256210159Y-87908940D01*
X256210158Y-87908940D01*
X256145891Y-87891720D01*
X256081626Y-87874500D01*
X256081625Y-87874500D01*
X255936676Y-87874500D01*
X255808145Y-87908939D01*
X255808144Y-87908940D01*
X255800489Y-87910991D01*
X255796661Y-87912017D01*
X255671142Y-87984485D01*
X255671135Y-87984490D01*
X255671119Y-87984505D01*
X255568656Y-88086968D01*
X255568641Y-88086984D01*
X255568636Y-88086992D01*
X255496167Y-88212511D01*
X255492688Y-88225498D01*
X255492688Y-88225500D01*
X255462678Y-88337499D01*
X255458651Y-88352526D01*
X255458651Y-88497474D01*
X255496164Y-88637477D01*
X255496167Y-88637485D01*
X255496168Y-88637488D01*
X255522184Y-88682549D01*
X255566782Y-88759795D01*
X255568640Y-88763013D01*
X255671136Y-88865509D01*
X255671825Y-88866005D01*
X255674329Y-88867353D01*
X255793220Y-88935995D01*
X255796238Y-88937869D01*
X255796665Y-88937983D01*
X255796666Y-88937984D01*
X255936676Y-88975500D01*
X255936679Y-88975500D01*
X256081623Y-88975500D01*
X256081626Y-88975500D01*
X256221636Y-88937984D01*
X256221645Y-88937978D01*
X256223045Y-88937400D01*
X256224328Y-88937262D01*
X256229486Y-88935880D01*
X256229701Y-88936684D01*
X256292514Y-88929930D01*
X256354994Y-88961203D01*
X256390648Y-89021292D01*
X256394500Y-89051960D01*
X256394500Y-93223640D01*
X256397397Y-93277688D01*
X256397397Y-93277689D01*
X256400229Y-93304022D01*
X256400232Y-93304049D01*
X256408885Y-93357445D01*
X256408885Y-93357447D01*
X256428459Y-93409925D01*
X256459168Y-93492257D01*
X256492653Y-93553580D01*
X256578877Y-93668761D01*
X256706239Y-93796123D01*
X256706255Y-93796137D01*
X256706262Y-93796144D01*
X256746480Y-93832271D01*
X256746487Y-93832277D01*
X256746494Y-93832282D01*
X256746500Y-93832288D01*
X256767142Y-93848922D01*
X256811067Y-93880593D01*
X256821310Y-93885270D01*
X256849675Y-93903499D01*
X256912809Y-93927046D01*
X256916829Y-93928882D01*
X256916831Y-93928882D01*
X256941951Y-93940352D01*
X256944547Y-93941114D01*
X256944547Y-93941113D01*
X256968352Y-93948101D01*
X256968375Y-93948107D01*
X256972605Y-93949349D01*
X256984484Y-93953780D01*
X256996829Y-93956465D01*
X257002518Y-93958135D01*
X257003322Y-93958372D01*
X257005186Y-93959017D01*
X257008943Y-93960023D01*
X257008946Y-93960024D01*
X257151362Y-93980500D01*
X257151365Y-93980500D01*
X261375500Y-93980500D01*
X261442539Y-94000185D01*
X261488294Y-94052989D01*
X261499500Y-94104500D01*
X261499500Y-104568356D01*
X261499420Y-104572808D01*
X261499261Y-104577234D01*
X261499025Y-104581628D01*
X261484168Y-104789365D01*
X261483222Y-104798167D01*
X261481963Y-104806923D01*
X261480391Y-104815634D01*
X261437536Y-105012630D01*
X261435348Y-105021202D01*
X261432856Y-105029690D01*
X261430060Y-105038092D01*
X261359603Y-105226998D01*
X261356213Y-105235183D01*
X261352543Y-105243218D01*
X261348583Y-105251127D01*
X261251960Y-105428077D01*
X261247441Y-105435694D01*
X261242654Y-105443142D01*
X261237608Y-105450408D01*
X261116794Y-105611798D01*
X261111240Y-105618690D01*
X261105444Y-105625379D01*
X261099412Y-105631858D01*
X260956858Y-105774412D01*
X260950379Y-105780444D01*
X260943690Y-105786240D01*
X260936798Y-105791794D01*
X260775408Y-105912608D01*
X260768142Y-105917654D01*
X260760694Y-105922441D01*
X260753077Y-105926960D01*
X260576127Y-106023583D01*
X260568218Y-106027543D01*
X260560183Y-106031213D01*
X260551998Y-106034603D01*
X260363092Y-106105060D01*
X260354690Y-106107856D01*
X260346202Y-106110348D01*
X260337630Y-106112536D01*
X260140634Y-106155391D01*
X260131923Y-106156963D01*
X260123167Y-106158222D01*
X260114365Y-106159168D01*
X259906628Y-106174025D01*
X259902235Y-106174261D01*
X259897810Y-106174420D01*
X259893357Y-106174500D01*
X176906643Y-106174500D01*
X176902191Y-106174420D01*
X176897765Y-106174261D01*
X176893371Y-106174025D01*
X176685633Y-106159168D01*
X176676831Y-106158222D01*
X176668075Y-106156963D01*
X176659364Y-106155391D01*
X176462368Y-106112536D01*
X176453796Y-106110348D01*
X176445308Y-106107856D01*
X176436906Y-106105060D01*
X176248000Y-106034603D01*
X176239830Y-106031219D01*
X176231775Y-106027540D01*
X176223871Y-106023583D01*
X176046921Y-105926960D01*
X176039304Y-105922441D01*
X176031856Y-105917654D01*
X176024590Y-105912608D01*
X175863200Y-105791794D01*
X175856308Y-105786240D01*
X175849619Y-105780444D01*
X175843140Y-105774412D01*
X175700586Y-105631858D01*
X175694554Y-105625379D01*
X175688758Y-105618690D01*
X175683204Y-105611798D01*
X175562390Y-105450408D01*
X175557344Y-105443142D01*
X175552557Y-105435694D01*
X175548046Y-105428092D01*
X175451403Y-105251106D01*
X175447454Y-105243214D01*
X175443784Y-105235177D01*
X175440403Y-105227016D01*
X175369929Y-105038070D01*
X175367141Y-105029690D01*
X175364646Y-105021191D01*
X175362463Y-105012634D01*
X175319606Y-104815624D01*
X175318036Y-104806924D01*
X175317629Y-104804100D01*
X175316776Y-104798163D01*
X175315832Y-104789391D01*
X175300973Y-104581621D01*
X175300737Y-104577206D01*
X175300579Y-104572779D01*
X175300500Y-104568356D01*
X175300500Y-103962525D01*
X176889500Y-103962525D01*
X176889500Y-103969925D01*
X176889500Y-104107474D01*
X176927013Y-104247477D01*
X176927017Y-104247488D01*
X176927018Y-104247489D01*
X176997631Y-104369795D01*
X176999489Y-104373013D01*
X177101985Y-104475509D01*
X177102674Y-104476005D01*
X177105178Y-104477353D01*
X177224069Y-104545995D01*
X177227087Y-104547869D01*
X177227514Y-104547983D01*
X177227515Y-104547984D01*
X177367525Y-104585500D01*
X177367528Y-104585500D01*
X177512472Y-104585500D01*
X177512475Y-104585500D01*
X177652485Y-104547984D01*
X177778015Y-104475509D01*
X177880509Y-104373015D01*
X177952984Y-104247485D01*
X177990500Y-104107475D01*
X177990500Y-103962525D01*
X183239500Y-103962525D01*
X183239500Y-103969925D01*
X183239500Y-104107474D01*
X183277013Y-104247477D01*
X183277017Y-104247488D01*
X183277018Y-104247489D01*
X183347631Y-104369795D01*
X183349489Y-104373013D01*
X183451985Y-104475509D01*
X183452674Y-104476005D01*
X183455178Y-104477353D01*
X183574069Y-104545995D01*
X183577087Y-104547869D01*
X183577514Y-104547983D01*
X183577515Y-104547984D01*
X183717525Y-104585500D01*
X183717528Y-104585500D01*
X183862472Y-104585500D01*
X183862475Y-104585500D01*
X184002485Y-104547984D01*
X184128015Y-104475509D01*
X184230509Y-104373015D01*
X184302984Y-104247485D01*
X184340500Y-104107475D01*
X184340500Y-103962525D01*
X189589500Y-103962525D01*
X189589500Y-103969925D01*
X189589500Y-104107474D01*
X189627013Y-104247477D01*
X189627017Y-104247488D01*
X189627018Y-104247489D01*
X189697631Y-104369795D01*
X189699489Y-104373013D01*
X189801985Y-104475509D01*
X189802674Y-104476005D01*
X189805178Y-104477353D01*
X189924069Y-104545995D01*
X189927087Y-104547869D01*
X189927514Y-104547983D01*
X189927515Y-104547984D01*
X190067525Y-104585500D01*
X190067528Y-104585500D01*
X190212472Y-104585500D01*
X190212475Y-104585500D01*
X190352485Y-104547984D01*
X190478015Y-104475509D01*
X190580509Y-104373015D01*
X190652984Y-104247485D01*
X190690500Y-104107475D01*
X190690500Y-103962525D01*
X195939500Y-103962525D01*
X195939500Y-103969925D01*
X195939500Y-104107474D01*
X195977013Y-104247477D01*
X195977017Y-104247488D01*
X195977018Y-104247489D01*
X196047631Y-104369795D01*
X196049489Y-104373013D01*
X196151985Y-104475509D01*
X196152674Y-104476005D01*
X196155178Y-104477353D01*
X196274069Y-104545995D01*
X196277087Y-104547869D01*
X196277514Y-104547983D01*
X196277515Y-104547984D01*
X196417525Y-104585500D01*
X196417528Y-104585500D01*
X196562472Y-104585500D01*
X196562475Y-104585500D01*
X196702485Y-104547984D01*
X196828015Y-104475509D01*
X196930509Y-104373015D01*
X197002984Y-104247485D01*
X197040500Y-104107475D01*
X197040500Y-103962525D01*
X202289500Y-103962525D01*
X202289500Y-103969925D01*
X202289500Y-104107474D01*
X202327013Y-104247477D01*
X202327017Y-104247488D01*
X202327018Y-104247489D01*
X202397631Y-104369795D01*
X202399489Y-104373013D01*
X202501985Y-104475509D01*
X202502674Y-104476005D01*
X202505178Y-104477353D01*
X202624069Y-104545995D01*
X202627087Y-104547869D01*
X202627514Y-104547983D01*
X202627515Y-104547984D01*
X202767525Y-104585500D01*
X202767528Y-104585500D01*
X202912472Y-104585500D01*
X202912475Y-104585500D01*
X203052485Y-104547984D01*
X203178015Y-104475509D01*
X203280509Y-104373015D01*
X203352984Y-104247485D01*
X203390500Y-104107475D01*
X203390500Y-103962525D01*
X208639500Y-103962525D01*
X208639500Y-103969925D01*
X208639500Y-104107474D01*
X208677013Y-104247477D01*
X208677017Y-104247488D01*
X208677018Y-104247489D01*
X208747631Y-104369795D01*
X208749489Y-104373013D01*
X208851985Y-104475509D01*
X208852674Y-104476005D01*
X208855178Y-104477353D01*
X208974069Y-104545995D01*
X208977087Y-104547869D01*
X208977514Y-104547983D01*
X208977515Y-104547984D01*
X209117525Y-104585500D01*
X209117528Y-104585500D01*
X209262472Y-104585500D01*
X209262475Y-104585500D01*
X209402485Y-104547984D01*
X209528015Y-104475509D01*
X209630509Y-104373015D01*
X209702984Y-104247485D01*
X209740500Y-104107475D01*
X209740500Y-103962525D01*
X214989500Y-103962525D01*
X214989500Y-103969925D01*
X214989500Y-104107474D01*
X215027013Y-104247477D01*
X215027017Y-104247488D01*
X215027018Y-104247489D01*
X215097631Y-104369795D01*
X215099489Y-104373013D01*
X215201985Y-104475509D01*
X215202674Y-104476005D01*
X215205178Y-104477353D01*
X215324069Y-104545995D01*
X215327087Y-104547869D01*
X215327514Y-104547983D01*
X215327515Y-104547984D01*
X215467525Y-104585500D01*
X215467528Y-104585500D01*
X215612472Y-104585500D01*
X215612475Y-104585500D01*
X215752485Y-104547984D01*
X215878015Y-104475509D01*
X215980509Y-104373015D01*
X216052984Y-104247485D01*
X216090500Y-104107475D01*
X216090500Y-103962525D01*
X253089500Y-103962525D01*
X253089500Y-103969925D01*
X253089500Y-104107474D01*
X253127013Y-104247477D01*
X253127017Y-104247488D01*
X253127018Y-104247489D01*
X253197631Y-104369795D01*
X253199489Y-104373013D01*
X253301985Y-104475509D01*
X253302674Y-104476005D01*
X253305178Y-104477353D01*
X253424069Y-104545995D01*
X253427087Y-104547869D01*
X253427514Y-104547983D01*
X253427515Y-104547984D01*
X253567525Y-104585500D01*
X253567528Y-104585500D01*
X253712472Y-104585500D01*
X253712475Y-104585500D01*
X253852485Y-104547984D01*
X253978015Y-104475509D01*
X254080509Y-104373015D01*
X254152984Y-104247485D01*
X254190500Y-104107475D01*
X254190500Y-103962525D01*
X259439500Y-103962525D01*
X259439500Y-103969925D01*
X259439500Y-104107474D01*
X259477013Y-104247477D01*
X259477017Y-104247488D01*
X259477018Y-104247489D01*
X259547631Y-104369795D01*
X259549489Y-104373013D01*
X259651985Y-104475509D01*
X259652674Y-104476005D01*
X259655178Y-104477353D01*
X259774069Y-104545995D01*
X259777087Y-104547869D01*
X259777514Y-104547983D01*
X259777515Y-104547984D01*
X259917525Y-104585500D01*
X259917528Y-104585500D01*
X260062472Y-104585500D01*
X260062475Y-104585500D01*
X260202485Y-104547984D01*
X260328015Y-104475509D01*
X260430509Y-104373015D01*
X260502984Y-104247485D01*
X260540500Y-104107475D01*
X260540500Y-103962525D01*
X260502984Y-103822515D01*
X260430509Y-103696985D01*
X260328015Y-103594491D01*
X260328013Y-103594489D01*
X260327321Y-103593990D01*
X260324802Y-103592635D01*
X260274243Y-103563445D01*
X260245808Y-103533624D01*
X260191007Y-103518939D01*
X260191007Y-103518940D01*
X260126740Y-103501720D01*
X260062475Y-103484500D01*
X260062474Y-103484500D01*
X259917525Y-103484500D01*
X259788994Y-103518939D01*
X259788993Y-103518940D01*
X259781338Y-103520991D01*
X259777510Y-103522017D01*
X259651991Y-103594485D01*
X259651984Y-103594490D01*
X259651968Y-103594505D01*
X259549505Y-103696968D01*
X259549490Y-103696984D01*
X259549485Y-103696992D01*
X259477017Y-103822509D01*
X259477004Y-103822541D01*
X259476909Y-103822914D01*
X259439500Y-103962525D01*
X254190500Y-103962525D01*
X254152984Y-103822515D01*
X254080509Y-103696985D01*
X253978015Y-103594491D01*
X253978013Y-103594489D01*
X253977321Y-103593990D01*
X253974802Y-103592635D01*
X253924243Y-103563445D01*
X253895808Y-103533624D01*
X253841007Y-103518939D01*
X253841007Y-103518940D01*
X253776740Y-103501720D01*
X253712475Y-103484500D01*
X253712474Y-103484500D01*
X253567525Y-103484500D01*
X253438994Y-103518939D01*
X253438993Y-103518940D01*
X253431338Y-103520991D01*
X253427510Y-103522017D01*
X253301991Y-103594485D01*
X253301984Y-103594490D01*
X253301968Y-103594505D01*
X253199505Y-103696968D01*
X253199490Y-103696984D01*
X253199485Y-103696992D01*
X253127017Y-103822509D01*
X253127004Y-103822541D01*
X253126909Y-103822914D01*
X253089500Y-103962525D01*
X216090500Y-103962525D01*
X216052984Y-103822515D01*
X215980509Y-103696985D01*
X215878015Y-103594491D01*
X215878013Y-103594489D01*
X215877321Y-103593990D01*
X215874802Y-103592635D01*
X215824243Y-103563445D01*
X215795808Y-103533624D01*
X215741007Y-103518939D01*
X215741007Y-103518940D01*
X215676740Y-103501720D01*
X215612475Y-103484500D01*
X215612474Y-103484500D01*
X215467525Y-103484500D01*
X215338994Y-103518939D01*
X215338993Y-103518940D01*
X215331338Y-103520991D01*
X215327510Y-103522017D01*
X215201991Y-103594485D01*
X215201984Y-103594490D01*
X215201968Y-103594505D01*
X215099505Y-103696968D01*
X215099490Y-103696984D01*
X215099485Y-103696992D01*
X215027017Y-103822509D01*
X215027004Y-103822541D01*
X215026909Y-103822914D01*
X214989500Y-103962525D01*
X209740500Y-103962525D01*
X209702984Y-103822515D01*
X209630509Y-103696985D01*
X209528015Y-103594491D01*
X209528013Y-103594489D01*
X209527321Y-103593990D01*
X209524802Y-103592635D01*
X209474243Y-103563445D01*
X209445808Y-103533624D01*
X209391007Y-103518939D01*
X209391007Y-103518940D01*
X209326740Y-103501720D01*
X209262475Y-103484500D01*
X209262474Y-103484500D01*
X209117525Y-103484500D01*
X208988994Y-103518939D01*
X208988993Y-103518940D01*
X208981338Y-103520991D01*
X208977510Y-103522017D01*
X208851991Y-103594485D01*
X208851984Y-103594490D01*
X208851968Y-103594505D01*
X208749505Y-103696968D01*
X208749490Y-103696984D01*
X208749485Y-103696992D01*
X208677017Y-103822509D01*
X208677004Y-103822541D01*
X208676909Y-103822914D01*
X208639500Y-103962525D01*
X203390500Y-103962525D01*
X203352984Y-103822515D01*
X203280509Y-103696985D01*
X203178015Y-103594491D01*
X203178013Y-103594489D01*
X203177321Y-103593990D01*
X203174802Y-103592635D01*
X203124243Y-103563445D01*
X203095808Y-103533624D01*
X203041007Y-103518939D01*
X203041007Y-103518940D01*
X202976740Y-103501720D01*
X202912475Y-103484500D01*
X202912474Y-103484500D01*
X202767525Y-103484500D01*
X202638994Y-103518939D01*
X202638993Y-103518940D01*
X202631338Y-103520991D01*
X202627510Y-103522017D01*
X202501991Y-103594485D01*
X202501984Y-103594490D01*
X202501968Y-103594505D01*
X202399505Y-103696968D01*
X202399490Y-103696984D01*
X202399485Y-103696992D01*
X202327017Y-103822509D01*
X202327004Y-103822541D01*
X202326909Y-103822914D01*
X202289500Y-103962525D01*
X197040500Y-103962525D01*
X197002984Y-103822515D01*
X196930509Y-103696985D01*
X196828015Y-103594491D01*
X196828013Y-103594489D01*
X196827321Y-103593990D01*
X196824802Y-103592635D01*
X196774243Y-103563445D01*
X196745808Y-103533624D01*
X196691007Y-103518939D01*
X196691007Y-103518940D01*
X196626740Y-103501720D01*
X196562475Y-103484500D01*
X196562474Y-103484500D01*
X196417525Y-103484500D01*
X196288994Y-103518939D01*
X196288993Y-103518940D01*
X196281338Y-103520991D01*
X196277510Y-103522017D01*
X196151991Y-103594485D01*
X196151984Y-103594490D01*
X196151968Y-103594505D01*
X196049505Y-103696968D01*
X196049490Y-103696984D01*
X196049485Y-103696992D01*
X195977017Y-103822509D01*
X195977004Y-103822541D01*
X195976909Y-103822914D01*
X195939500Y-103962525D01*
X190690500Y-103962525D01*
X190652984Y-103822515D01*
X190580509Y-103696985D01*
X190478015Y-103594491D01*
X190478013Y-103594489D01*
X190477321Y-103593990D01*
X190474802Y-103592635D01*
X190424243Y-103563445D01*
X190395808Y-103533624D01*
X190341007Y-103518939D01*
X190341007Y-103518940D01*
X190276740Y-103501720D01*
X190212475Y-103484500D01*
X190212474Y-103484500D01*
X190067525Y-103484500D01*
X189938994Y-103518939D01*
X189938993Y-103518940D01*
X189931338Y-103520991D01*
X189927510Y-103522017D01*
X189801991Y-103594485D01*
X189801984Y-103594490D01*
X189801968Y-103594505D01*
X189699505Y-103696968D01*
X189699490Y-103696984D01*
X189699485Y-103696992D01*
X189627017Y-103822509D01*
X189627004Y-103822541D01*
X189626909Y-103822914D01*
X189589500Y-103962525D01*
X184340500Y-103962525D01*
X184302984Y-103822515D01*
X184230509Y-103696985D01*
X184128015Y-103594491D01*
X184128013Y-103594489D01*
X184127321Y-103593990D01*
X184124802Y-103592635D01*
X184074243Y-103563445D01*
X184045808Y-103533624D01*
X183991007Y-103518939D01*
X183991007Y-103518940D01*
X183926740Y-103501720D01*
X183862475Y-103484500D01*
X183862474Y-103484500D01*
X183717525Y-103484500D01*
X183588994Y-103518939D01*
X183588993Y-103518940D01*
X183581338Y-103520991D01*
X183577510Y-103522017D01*
X183451991Y-103594485D01*
X183451984Y-103594490D01*
X183451968Y-103594505D01*
X183349505Y-103696968D01*
X183349490Y-103696984D01*
X183349485Y-103696992D01*
X183277017Y-103822509D01*
X183277004Y-103822541D01*
X183276909Y-103822914D01*
X183239500Y-103962525D01*
X177990500Y-103962525D01*
X177952984Y-103822515D01*
X177880509Y-103696985D01*
X177778015Y-103594491D01*
X177778013Y-103594489D01*
X177777321Y-103593990D01*
X177774802Y-103592635D01*
X177724243Y-103563445D01*
X177695808Y-103533624D01*
X177641007Y-103518939D01*
X177641007Y-103518940D01*
X177576740Y-103501720D01*
X177512475Y-103484500D01*
X177512474Y-103484500D01*
X177367525Y-103484500D01*
X177238994Y-103518939D01*
X177238993Y-103518940D01*
X177231338Y-103520991D01*
X177227510Y-103522017D01*
X177101991Y-103594485D01*
X177101984Y-103594490D01*
X177101968Y-103594505D01*
X176999505Y-103696968D01*
X176999490Y-103696984D01*
X176999485Y-103696992D01*
X176927017Y-103822509D01*
X176927004Y-103822541D01*
X176926909Y-103822914D01*
X176889500Y-103962525D01*
X175300500Y-103962525D01*
X175300500Y-102702525D01*
X218149500Y-102702525D01*
X218149500Y-102709925D01*
X218149500Y-102847474D01*
X218187013Y-102987477D01*
X218187017Y-102987488D01*
X218187018Y-102987489D01*
X218257631Y-103109795D01*
X218259489Y-103113013D01*
X218361985Y-103215509D01*
X218362674Y-103216005D01*
X218365178Y-103217353D01*
X218484069Y-103285995D01*
X218487087Y-103287869D01*
X218487514Y-103287983D01*
X218487515Y-103287984D01*
X218627525Y-103325500D01*
X218627528Y-103325500D01*
X218772472Y-103325500D01*
X218772475Y-103325500D01*
X218912485Y-103287984D01*
X219038015Y-103215509D01*
X219140509Y-103113015D01*
X219212984Y-102987485D01*
X219250500Y-102847475D01*
X219250500Y-102702525D01*
X219212984Y-102562515D01*
X219140509Y-102436985D01*
X219038015Y-102334491D01*
X219038013Y-102334489D01*
X219037321Y-102333990D01*
X219034802Y-102332635D01*
X218984243Y-102303445D01*
X218955808Y-102273624D01*
X218901007Y-102258939D01*
X218901007Y-102258940D01*
X218836740Y-102241720D01*
X218772475Y-102224500D01*
X218772474Y-102224500D01*
X218627525Y-102224500D01*
X218498994Y-102258939D01*
X218498993Y-102258940D01*
X218491338Y-102260991D01*
X218487510Y-102262017D01*
X218361991Y-102334485D01*
X218361984Y-102334490D01*
X218361968Y-102334505D01*
X218259505Y-102436968D01*
X218259490Y-102436984D01*
X218259485Y-102436992D01*
X218187017Y-102562509D01*
X218187004Y-102562541D01*
X218186909Y-102562914D01*
X218149500Y-102702525D01*
X175300500Y-102702525D01*
X175300500Y-99902525D01*
X218149500Y-99902525D01*
X218149500Y-99909925D01*
X218149500Y-100047474D01*
X218187013Y-100187477D01*
X218187017Y-100187488D01*
X218187018Y-100187489D01*
X218257631Y-100309795D01*
X218259489Y-100313013D01*
X218361985Y-100415509D01*
X218362674Y-100416005D01*
X218365178Y-100417353D01*
X218484069Y-100485995D01*
X218487087Y-100487869D01*
X218487514Y-100487983D01*
X218487515Y-100487984D01*
X218627525Y-100525500D01*
X218627528Y-100525500D01*
X218772472Y-100525500D01*
X218772475Y-100525500D01*
X218912485Y-100487984D01*
X219038015Y-100415509D01*
X219140509Y-100313015D01*
X219212984Y-100187485D01*
X219250500Y-100047475D01*
X219250500Y-99902525D01*
X219212984Y-99762515D01*
X219140509Y-99636985D01*
X219038015Y-99534491D01*
X219038013Y-99534489D01*
X219037321Y-99533990D01*
X219034802Y-99532635D01*
X218984243Y-99503445D01*
X218955808Y-99473624D01*
X218901007Y-99458939D01*
X218901007Y-99458940D01*
X218836740Y-99441720D01*
X218772475Y-99424500D01*
X218772474Y-99424500D01*
X218627525Y-99424500D01*
X218498994Y-99458939D01*
X218498993Y-99458940D01*
X218491338Y-99460991D01*
X218487510Y-99462017D01*
X218361991Y-99534485D01*
X218361984Y-99534490D01*
X218361968Y-99534505D01*
X218259505Y-99636968D01*
X218259490Y-99636984D01*
X218259485Y-99636992D01*
X218187017Y-99762509D01*
X218187004Y-99762541D01*
X218186909Y-99762914D01*
X218149500Y-99902525D01*
X175300500Y-99902525D01*
X175300500Y-98882525D01*
X189589500Y-98882525D01*
X189589500Y-98889925D01*
X189589500Y-99027474D01*
X189627013Y-99167477D01*
X189627017Y-99167488D01*
X189627018Y-99167489D01*
X189697631Y-99289795D01*
X189699489Y-99293013D01*
X189801985Y-99395509D01*
X189802674Y-99396005D01*
X189805178Y-99397353D01*
X189924069Y-99465995D01*
X189927087Y-99467869D01*
X189927514Y-99467983D01*
X189927515Y-99467984D01*
X190067525Y-99505500D01*
X190067528Y-99505500D01*
X190212472Y-99505500D01*
X190212475Y-99505500D01*
X190352485Y-99467984D01*
X190478015Y-99395509D01*
X190580509Y-99293015D01*
X190652984Y-99167485D01*
X190690500Y-99027475D01*
X190690500Y-98882525D01*
X195939500Y-98882525D01*
X195939500Y-98889925D01*
X195939500Y-99027474D01*
X195977013Y-99167477D01*
X195977017Y-99167488D01*
X195977018Y-99167489D01*
X196047631Y-99289795D01*
X196049489Y-99293013D01*
X196151985Y-99395509D01*
X196152674Y-99396005D01*
X196155178Y-99397353D01*
X196274069Y-99465995D01*
X196277087Y-99467869D01*
X196277514Y-99467983D01*
X196277515Y-99467984D01*
X196417525Y-99505500D01*
X196417528Y-99505500D01*
X196562472Y-99505500D01*
X196562475Y-99505500D01*
X196702485Y-99467984D01*
X196828015Y-99395509D01*
X196930509Y-99293015D01*
X197002984Y-99167485D01*
X197040500Y-99027475D01*
X197040500Y-98882525D01*
X202289500Y-98882525D01*
X202289500Y-98889925D01*
X202289500Y-99027474D01*
X202327013Y-99167477D01*
X202327017Y-99167488D01*
X202327018Y-99167489D01*
X202397631Y-99289795D01*
X202399489Y-99293013D01*
X202501985Y-99395509D01*
X202502674Y-99396005D01*
X202505178Y-99397353D01*
X202624069Y-99465995D01*
X202627087Y-99467869D01*
X202627514Y-99467983D01*
X202627515Y-99467984D01*
X202767525Y-99505500D01*
X202767528Y-99505500D01*
X202912472Y-99505500D01*
X202912475Y-99505500D01*
X203052485Y-99467984D01*
X203178015Y-99395509D01*
X203280509Y-99293015D01*
X203352984Y-99167485D01*
X203390500Y-99027475D01*
X203390500Y-98882525D01*
X208639500Y-98882525D01*
X208639500Y-98889925D01*
X208639500Y-99027474D01*
X208677013Y-99167477D01*
X208677017Y-99167488D01*
X208677018Y-99167489D01*
X208747631Y-99289795D01*
X208749489Y-99293013D01*
X208851985Y-99395509D01*
X208852674Y-99396005D01*
X208855178Y-99397353D01*
X208974069Y-99465995D01*
X208977087Y-99467869D01*
X208977514Y-99467983D01*
X208977515Y-99467984D01*
X209117525Y-99505500D01*
X209117528Y-99505500D01*
X209262472Y-99505500D01*
X209262475Y-99505500D01*
X209402485Y-99467984D01*
X209528015Y-99395509D01*
X209630509Y-99293015D01*
X209702984Y-99167485D01*
X209740500Y-99027475D01*
X209740500Y-98882525D01*
X240389500Y-98882525D01*
X240389500Y-98889925D01*
X240389500Y-99027474D01*
X240427013Y-99167477D01*
X240427017Y-99167488D01*
X240427018Y-99167489D01*
X240497631Y-99289795D01*
X240499489Y-99293013D01*
X240601985Y-99395509D01*
X240602674Y-99396005D01*
X240605178Y-99397353D01*
X240724069Y-99465995D01*
X240727087Y-99467869D01*
X240727514Y-99467983D01*
X240727515Y-99467984D01*
X240867525Y-99505500D01*
X240867528Y-99505500D01*
X241012472Y-99505500D01*
X241012475Y-99505500D01*
X241152485Y-99467984D01*
X241278015Y-99395509D01*
X241380509Y-99293015D01*
X241452984Y-99167485D01*
X241490500Y-99027475D01*
X241490500Y-98882525D01*
X246739500Y-98882525D01*
X246739500Y-98889925D01*
X246739500Y-99027474D01*
X246777013Y-99167477D01*
X246777017Y-99167488D01*
X246777018Y-99167489D01*
X246847631Y-99289795D01*
X246849489Y-99293013D01*
X246951985Y-99395509D01*
X246952674Y-99396005D01*
X246955178Y-99397353D01*
X247074069Y-99465995D01*
X247077087Y-99467869D01*
X247077514Y-99467983D01*
X247077515Y-99467984D01*
X247217525Y-99505500D01*
X247217528Y-99505500D01*
X247362472Y-99505500D01*
X247362475Y-99505500D01*
X247502485Y-99467984D01*
X247628015Y-99395509D01*
X247730509Y-99293015D01*
X247802984Y-99167485D01*
X247840500Y-99027475D01*
X247840500Y-98882525D01*
X253089500Y-98882525D01*
X253089500Y-98889925D01*
X253089500Y-99027474D01*
X253127013Y-99167477D01*
X253127017Y-99167488D01*
X253127018Y-99167489D01*
X253197631Y-99289795D01*
X253199489Y-99293013D01*
X253301985Y-99395509D01*
X253302674Y-99396005D01*
X253305178Y-99397353D01*
X253424069Y-99465995D01*
X253427087Y-99467869D01*
X253427514Y-99467983D01*
X253427515Y-99467984D01*
X253567525Y-99505500D01*
X253567528Y-99505500D01*
X253712472Y-99505500D01*
X253712475Y-99505500D01*
X253852485Y-99467984D01*
X253978015Y-99395509D01*
X254080509Y-99293015D01*
X254152984Y-99167485D01*
X254190500Y-99027475D01*
X254190500Y-98882525D01*
X259439500Y-98882525D01*
X259439500Y-98889925D01*
X259439500Y-99027474D01*
X259477013Y-99167477D01*
X259477017Y-99167488D01*
X259477018Y-99167489D01*
X259547631Y-99289795D01*
X259549489Y-99293013D01*
X259651985Y-99395509D01*
X259652674Y-99396005D01*
X259655178Y-99397353D01*
X259774069Y-99465995D01*
X259777087Y-99467869D01*
X259777514Y-99467983D01*
X259777515Y-99467984D01*
X259917525Y-99505500D01*
X259917528Y-99505500D01*
X260062472Y-99505500D01*
X260062475Y-99505500D01*
X260202485Y-99467984D01*
X260328015Y-99395509D01*
X260430509Y-99293015D01*
X260502984Y-99167485D01*
X260540500Y-99027475D01*
X260540500Y-98882525D01*
X260502984Y-98742515D01*
X260430509Y-98616985D01*
X260328015Y-98514491D01*
X260328013Y-98514489D01*
X260327321Y-98513990D01*
X260324802Y-98512635D01*
X260274242Y-98483444D01*
X260245808Y-98453624D01*
X260178167Y-98435500D01*
X260178166Y-98435499D01*
X260093474Y-98412806D01*
X260062475Y-98404500D01*
X260062474Y-98404500D01*
X259917525Y-98404500D01*
X259801832Y-98435500D01*
X259801831Y-98435499D01*
X259777512Y-98442016D01*
X259777507Y-98442018D01*
X259651992Y-98514485D01*
X259651984Y-98514490D01*
X259651968Y-98514505D01*
X259549505Y-98616968D01*
X259549490Y-98616984D01*
X259549485Y-98616992D01*
X259477017Y-98742509D01*
X259477004Y-98742541D01*
X259476909Y-98742914D01*
X259439500Y-98882525D01*
X254190500Y-98882525D01*
X254152984Y-98742515D01*
X254080509Y-98616985D01*
X253978015Y-98514491D01*
X253978013Y-98514489D01*
X253977321Y-98513990D01*
X253974802Y-98512635D01*
X253924242Y-98483444D01*
X253895808Y-98453624D01*
X253828167Y-98435500D01*
X253828166Y-98435499D01*
X253743474Y-98412806D01*
X253712475Y-98404500D01*
X253712474Y-98404500D01*
X253567525Y-98404500D01*
X253451832Y-98435500D01*
X253451831Y-98435499D01*
X253427512Y-98442016D01*
X253427507Y-98442018D01*
X253301992Y-98514485D01*
X253301984Y-98514490D01*
X253301968Y-98514505D01*
X253199505Y-98616968D01*
X253199490Y-98616984D01*
X253199485Y-98616992D01*
X253127017Y-98742509D01*
X253127004Y-98742541D01*
X253126909Y-98742914D01*
X253089500Y-98882525D01*
X247840500Y-98882525D01*
X247802984Y-98742515D01*
X247730509Y-98616985D01*
X247628015Y-98514491D01*
X247628013Y-98514489D01*
X247627321Y-98513990D01*
X247624802Y-98512635D01*
X247574242Y-98483444D01*
X247545808Y-98453624D01*
X247478167Y-98435500D01*
X247478166Y-98435499D01*
X247393474Y-98412806D01*
X247362475Y-98404500D01*
X247362474Y-98404500D01*
X247217525Y-98404500D01*
X247101832Y-98435500D01*
X247101831Y-98435499D01*
X247077512Y-98442016D01*
X247077507Y-98442018D01*
X246951992Y-98514485D01*
X246951984Y-98514490D01*
X246951968Y-98514505D01*
X246849505Y-98616968D01*
X246849490Y-98616984D01*
X246849485Y-98616992D01*
X246777017Y-98742509D01*
X246777004Y-98742541D01*
X246776909Y-98742914D01*
X246739500Y-98882525D01*
X241490500Y-98882525D01*
X241452984Y-98742515D01*
X241380509Y-98616985D01*
X241278015Y-98514491D01*
X241278013Y-98514489D01*
X241277321Y-98513990D01*
X241274802Y-98512635D01*
X241224242Y-98483444D01*
X241195808Y-98453624D01*
X241128167Y-98435500D01*
X241128166Y-98435499D01*
X241043474Y-98412806D01*
X241012475Y-98404500D01*
X241012474Y-98404500D01*
X240867525Y-98404500D01*
X240751832Y-98435500D01*
X240751831Y-98435499D01*
X240727512Y-98442016D01*
X240727507Y-98442018D01*
X240601992Y-98514485D01*
X240601984Y-98514490D01*
X240601968Y-98514505D01*
X240499505Y-98616968D01*
X240499490Y-98616984D01*
X240499485Y-98616992D01*
X240427017Y-98742509D01*
X240427004Y-98742541D01*
X240426909Y-98742914D01*
X240389500Y-98882525D01*
X209740500Y-98882525D01*
X209702984Y-98742515D01*
X209630509Y-98616985D01*
X209528015Y-98514491D01*
X209528013Y-98514489D01*
X209527321Y-98513990D01*
X209524802Y-98512635D01*
X209474242Y-98483444D01*
X209445808Y-98453624D01*
X209378167Y-98435500D01*
X209378166Y-98435499D01*
X209293474Y-98412806D01*
X209262475Y-98404500D01*
X209262474Y-98404500D01*
X209117525Y-98404500D01*
X209001832Y-98435500D01*
X209001831Y-98435499D01*
X208977512Y-98442016D01*
X208977507Y-98442018D01*
X208851992Y-98514485D01*
X208851984Y-98514490D01*
X208851968Y-98514505D01*
X208749505Y-98616968D01*
X208749490Y-98616984D01*
X208749485Y-98616992D01*
X208677017Y-98742509D01*
X208677004Y-98742541D01*
X208676909Y-98742914D01*
X208639500Y-98882525D01*
X203390500Y-98882525D01*
X203352984Y-98742515D01*
X203280509Y-98616985D01*
X203178015Y-98514491D01*
X203178013Y-98514489D01*
X203177321Y-98513990D01*
X203174802Y-98512635D01*
X203124242Y-98483444D01*
X203095808Y-98453624D01*
X203028167Y-98435500D01*
X203028166Y-98435499D01*
X202943474Y-98412806D01*
X202912475Y-98404500D01*
X202912474Y-98404500D01*
X202767525Y-98404500D01*
X202651832Y-98435500D01*
X202651831Y-98435499D01*
X202627512Y-98442016D01*
X202627507Y-98442018D01*
X202501992Y-98514485D01*
X202501984Y-98514490D01*
X202501968Y-98514505D01*
X202399505Y-98616968D01*
X202399490Y-98616984D01*
X202399485Y-98616992D01*
X202327017Y-98742509D01*
X202327004Y-98742541D01*
X202326909Y-98742914D01*
X202289500Y-98882525D01*
X197040500Y-98882525D01*
X197002984Y-98742515D01*
X196930509Y-98616985D01*
X196828015Y-98514491D01*
X196828013Y-98514489D01*
X196827321Y-98513990D01*
X196824802Y-98512635D01*
X196774242Y-98483444D01*
X196745808Y-98453624D01*
X196678167Y-98435500D01*
X196678166Y-98435499D01*
X196593474Y-98412806D01*
X196562475Y-98404500D01*
X196562474Y-98404500D01*
X196417525Y-98404500D01*
X196301832Y-98435500D01*
X196301831Y-98435499D01*
X196277512Y-98442016D01*
X196277507Y-98442018D01*
X196151992Y-98514485D01*
X196151984Y-98514490D01*
X196151968Y-98514505D01*
X196049505Y-98616968D01*
X196049490Y-98616984D01*
X196049485Y-98616992D01*
X195977017Y-98742509D01*
X195977004Y-98742541D01*
X195976909Y-98742914D01*
X195939500Y-98882525D01*
X190690500Y-98882525D01*
X190652984Y-98742515D01*
X190580509Y-98616985D01*
X190478015Y-98514491D01*
X190478013Y-98514489D01*
X190477321Y-98513990D01*
X190474802Y-98512635D01*
X190424242Y-98483444D01*
X190395808Y-98453624D01*
X190328167Y-98435500D01*
X190328166Y-98435499D01*
X190243474Y-98412806D01*
X190212475Y-98404500D01*
X190212474Y-98404500D01*
X190067525Y-98404500D01*
X189951832Y-98435500D01*
X189951831Y-98435499D01*
X189927512Y-98442016D01*
X189927507Y-98442018D01*
X189801992Y-98514485D01*
X189801984Y-98514490D01*
X189801968Y-98514505D01*
X189699505Y-98616968D01*
X189699490Y-98616984D01*
X189699485Y-98616992D01*
X189627017Y-98742509D01*
X189627004Y-98742541D01*
X189626909Y-98742914D01*
X189589500Y-98882525D01*
X175300500Y-98882525D01*
X175300500Y-97812525D01*
X180149500Y-97812525D01*
X180149500Y-97819925D01*
X180149500Y-97957474D01*
X180187013Y-98097477D01*
X180187016Y-98097485D01*
X180187017Y-98097488D01*
X180220510Y-98155499D01*
X180257631Y-98219795D01*
X180259489Y-98223013D01*
X180361985Y-98325509D01*
X180362674Y-98326005D01*
X180365178Y-98327353D01*
X180484069Y-98395995D01*
X180487087Y-98397869D01*
X180487514Y-98397983D01*
X180487515Y-98397984D01*
X180627525Y-98435500D01*
X180627528Y-98435500D01*
X180772472Y-98435500D01*
X180772475Y-98435500D01*
X180912485Y-98397984D01*
X181038015Y-98325509D01*
X181140509Y-98223015D01*
X181212984Y-98097485D01*
X181250500Y-97957475D01*
X181250500Y-97812525D01*
X184249500Y-97812525D01*
X184249500Y-97819925D01*
X184249500Y-97957474D01*
X184287013Y-98097477D01*
X184287016Y-98097485D01*
X184287017Y-98097488D01*
X184320510Y-98155499D01*
X184357631Y-98219795D01*
X184359489Y-98223013D01*
X184461985Y-98325509D01*
X184462674Y-98326005D01*
X184465178Y-98327353D01*
X184584069Y-98395995D01*
X184587087Y-98397869D01*
X184587514Y-98397983D01*
X184587515Y-98397984D01*
X184727525Y-98435500D01*
X184727528Y-98435500D01*
X184872472Y-98435500D01*
X184872475Y-98435500D01*
X185012485Y-98397984D01*
X185138015Y-98325509D01*
X185240509Y-98223015D01*
X185312984Y-98097485D01*
X185350500Y-97957475D01*
X185350500Y-97812525D01*
X185312984Y-97672515D01*
X185240509Y-97546985D01*
X185226049Y-97532525D01*
X238569500Y-97532525D01*
X238569500Y-97677474D01*
X238607013Y-97817477D01*
X238607017Y-97817488D01*
X238607018Y-97817489D01*
X238677631Y-97939795D01*
X238679489Y-97943013D01*
X238781985Y-98045509D01*
X238782674Y-98046005D01*
X238785178Y-98047353D01*
X238904069Y-98115995D01*
X238907087Y-98117869D01*
X238907514Y-98117983D01*
X238907515Y-98117984D01*
X239047525Y-98155500D01*
X239047528Y-98155500D01*
X239192472Y-98155500D01*
X239192475Y-98155500D01*
X239332485Y-98117984D01*
X239458015Y-98045509D01*
X239560509Y-97943015D01*
X239632984Y-97817485D01*
X239670500Y-97677475D01*
X239670500Y-97532525D01*
X239632984Y-97392515D01*
X239632982Y-97392512D01*
X239632983Y-97392512D01*
X239621149Y-97372016D01*
X239621148Y-97372015D01*
X239560513Y-97266991D01*
X239560508Y-97266984D01*
X239560493Y-97266968D01*
X239458030Y-97164505D01*
X239458014Y-97164490D01*
X239458006Y-97164485D01*
X239404243Y-97133445D01*
X239375808Y-97103624D01*
X239321007Y-97088939D01*
X239321007Y-97088940D01*
X239256740Y-97071720D01*
X239192475Y-97054500D01*
X239192474Y-97054500D01*
X239047525Y-97054500D01*
X238918994Y-97088939D01*
X238918993Y-97088940D01*
X238911338Y-97090991D01*
X238907510Y-97092017D01*
X238781991Y-97164485D01*
X238781984Y-97164490D01*
X238781968Y-97164505D01*
X238679505Y-97266968D01*
X238679490Y-97266984D01*
X238679485Y-97266992D01*
X238607017Y-97392509D01*
X238606989Y-97392578D01*
X238606748Y-97393511D01*
X238569500Y-97532525D01*
X185226049Y-97532525D01*
X185138015Y-97444491D01*
X185138013Y-97444490D01*
X185138011Y-97444488D01*
X185084242Y-97413444D01*
X185055808Y-97383624D01*
X185001007Y-97368939D01*
X185001007Y-97368940D01*
X184936740Y-97351720D01*
X184872475Y-97334500D01*
X184872474Y-97334500D01*
X184727525Y-97334500D01*
X184598994Y-97368939D01*
X184598993Y-97368940D01*
X184591338Y-97370991D01*
X184587510Y-97372017D01*
X184461991Y-97444485D01*
X184461984Y-97444490D01*
X184461968Y-97444505D01*
X184359505Y-97546968D01*
X184359490Y-97546984D01*
X184359485Y-97546992D01*
X184287017Y-97672509D01*
X184287004Y-97672541D01*
X184286909Y-97672914D01*
X184249500Y-97812525D01*
X181250500Y-97812525D01*
X181212984Y-97672515D01*
X181140509Y-97546985D01*
X181038015Y-97444491D01*
X181038013Y-97444489D01*
X181037321Y-97443990D01*
X181034802Y-97442635D01*
X180984243Y-97413445D01*
X180955808Y-97383624D01*
X180901007Y-97368939D01*
X180901007Y-97368940D01*
X180836740Y-97351720D01*
X180772475Y-97334500D01*
X180772474Y-97334500D01*
X180627525Y-97334500D01*
X180498994Y-97368939D01*
X180498993Y-97368940D01*
X180491338Y-97370991D01*
X180487510Y-97372017D01*
X180361991Y-97444485D01*
X180361984Y-97444490D01*
X180361968Y-97444505D01*
X180259505Y-97546968D01*
X180259490Y-97546984D01*
X180259485Y-97546992D01*
X180187017Y-97672509D01*
X180187004Y-97672541D01*
X180186909Y-97672914D01*
X180149500Y-97812525D01*
X175300500Y-97812525D01*
X175300500Y-96002525D01*
X232749500Y-96002525D01*
X232749500Y-96009925D01*
X232749500Y-96147474D01*
X232787013Y-96287477D01*
X232787017Y-96287488D01*
X232787018Y-96287489D01*
X232857631Y-96409795D01*
X232859489Y-96413013D01*
X232961985Y-96515509D01*
X232962674Y-96516005D01*
X232965178Y-96517353D01*
X233084069Y-96585995D01*
X233087087Y-96587869D01*
X233087514Y-96587983D01*
X233087515Y-96587984D01*
X233227525Y-96625500D01*
X233227528Y-96625500D01*
X233372472Y-96625500D01*
X233372475Y-96625500D01*
X233512485Y-96587984D01*
X233638015Y-96515509D01*
X233740509Y-96413015D01*
X233812984Y-96287485D01*
X233850500Y-96147475D01*
X233850500Y-96002525D01*
X233812984Y-95862515D01*
X233791613Y-95825500D01*
X233740511Y-95736988D01*
X233740506Y-95736982D01*
X233740493Y-95736968D01*
X233638030Y-95634505D01*
X233638014Y-95634490D01*
X233638006Y-95634485D01*
X233584243Y-95603445D01*
X233555808Y-95573624D01*
X233501007Y-95558939D01*
X233501007Y-95558940D01*
X233436740Y-95541720D01*
X233372475Y-95524500D01*
X233372474Y-95524500D01*
X233227525Y-95524500D01*
X233098994Y-95558939D01*
X233098993Y-95558940D01*
X233091338Y-95560991D01*
X233087510Y-95562017D01*
X232961991Y-95634485D01*
X232961984Y-95634490D01*
X232961968Y-95634505D01*
X232859505Y-95736968D01*
X232859490Y-95736984D01*
X232859485Y-95736992D01*
X232787017Y-95862509D01*
X232787004Y-95862541D01*
X232786909Y-95862914D01*
X232749500Y-96002525D01*
X175300500Y-96002525D01*
X175300500Y-95202525D01*
X223949500Y-95202525D01*
X223949500Y-95209925D01*
X223949500Y-95347474D01*
X223987013Y-95487477D01*
X223987016Y-95487485D01*
X223987017Y-95487488D01*
X224032411Y-95566112D01*
X224057631Y-95609795D01*
X224059489Y-95613013D01*
X224161985Y-95715509D01*
X224162674Y-95716005D01*
X224165178Y-95717353D01*
X224284069Y-95785995D01*
X224287087Y-95787869D01*
X224287514Y-95787983D01*
X224287515Y-95787984D01*
X224427525Y-95825500D01*
X224427528Y-95825500D01*
X224572472Y-95825500D01*
X224572475Y-95825500D01*
X224712485Y-95787984D01*
X224838015Y-95715509D01*
X224940509Y-95613015D01*
X225012984Y-95487485D01*
X225050500Y-95347475D01*
X225050500Y-95202525D01*
X225012984Y-95062515D01*
X224940509Y-94936985D01*
X224838015Y-94834491D01*
X224838013Y-94834489D01*
X224837321Y-94833990D01*
X224834802Y-94832635D01*
X224784243Y-94803445D01*
X224755808Y-94773624D01*
X224701007Y-94758939D01*
X224701007Y-94758940D01*
X224636740Y-94741720D01*
X224572475Y-94724500D01*
X224572474Y-94724500D01*
X224427525Y-94724500D01*
X224298994Y-94758939D01*
X224298993Y-94758940D01*
X224291338Y-94760991D01*
X224287510Y-94762017D01*
X224161991Y-94834485D01*
X224161984Y-94834490D01*
X224161968Y-94834505D01*
X224059505Y-94936968D01*
X224059490Y-94936984D01*
X224059485Y-94936992D01*
X223987017Y-95062509D01*
X223987004Y-95062541D01*
X223986909Y-95062914D01*
X223949500Y-95202525D01*
X175300500Y-95202525D01*
X175300500Y-93402525D01*
X240149500Y-93402525D01*
X240149500Y-93409925D01*
X240149500Y-93547474D01*
X240187013Y-93687477D01*
X240187017Y-93687488D01*
X240187018Y-93687489D01*
X240257631Y-93809795D01*
X240259489Y-93813013D01*
X240361985Y-93915509D01*
X240362674Y-93916005D01*
X240365178Y-93917353D01*
X240484069Y-93985995D01*
X240487087Y-93987869D01*
X240487514Y-93987983D01*
X240487515Y-93987984D01*
X240627525Y-94025500D01*
X240627528Y-94025500D01*
X240772472Y-94025500D01*
X240772475Y-94025500D01*
X240912485Y-93987984D01*
X241038015Y-93915509D01*
X241140509Y-93813015D01*
X241212984Y-93687485D01*
X241250500Y-93547475D01*
X241250500Y-93402525D01*
X241212984Y-93262515D01*
X241190539Y-93223640D01*
X241140511Y-93136988D01*
X241140506Y-93136982D01*
X241038013Y-93034489D01*
X241037321Y-93033990D01*
X241034802Y-93032635D01*
X240984243Y-93003445D01*
X240955808Y-92973624D01*
X240901007Y-92958939D01*
X240901007Y-92958940D01*
X240836740Y-92941720D01*
X240772475Y-92924500D01*
X240772474Y-92924500D01*
X240627525Y-92924500D01*
X240498994Y-92958939D01*
X240498993Y-92958940D01*
X240491338Y-92960991D01*
X240487510Y-92962017D01*
X240361991Y-93034485D01*
X240361984Y-93034490D01*
X240361968Y-93034505D01*
X240259505Y-93136968D01*
X240259490Y-93136984D01*
X240259485Y-93136992D01*
X240187017Y-93262509D01*
X240187004Y-93262541D01*
X240186909Y-93262914D01*
X240149500Y-93402525D01*
X175300500Y-93402525D01*
X175300500Y-87402525D01*
X186849500Y-87402525D01*
X186849500Y-87547475D01*
X186878511Y-87655743D01*
X186878510Y-87655743D01*
X186887016Y-87687486D01*
X186887018Y-87687491D01*
X186957631Y-87809795D01*
X186959489Y-87813013D01*
X187061985Y-87915509D01*
X187062674Y-87916005D01*
X187065178Y-87917353D01*
X187184069Y-87985995D01*
X187187087Y-87987869D01*
X187187514Y-87987983D01*
X187187515Y-87987984D01*
X187327525Y-88025500D01*
X187327528Y-88025500D01*
X187472472Y-88025500D01*
X187472475Y-88025500D01*
X187612485Y-87987984D01*
X187738015Y-87915509D01*
X187840509Y-87813015D01*
X187912984Y-87687485D01*
X187950500Y-87547475D01*
X187950500Y-87402525D01*
X187912984Y-87262515D01*
X187896805Y-87234493D01*
X187840511Y-87136988D01*
X187840506Y-87136982D01*
X187840493Y-87136968D01*
X187738030Y-87034505D01*
X187738014Y-87034490D01*
X187738006Y-87034485D01*
X187684243Y-87003445D01*
X187655808Y-86973624D01*
X187601007Y-86958939D01*
X187601007Y-86958940D01*
X187536740Y-86941720D01*
X187472475Y-86924500D01*
X187472474Y-86924500D01*
X187327525Y-86924500D01*
X187198994Y-86958939D01*
X187198993Y-86958940D01*
X187191338Y-86960991D01*
X187187510Y-86962017D01*
X187061991Y-87034485D01*
X187061984Y-87034490D01*
X187061968Y-87034505D01*
X186959505Y-87136968D01*
X186959490Y-87136984D01*
X186959485Y-87136992D01*
X186887017Y-87262509D01*
X186887004Y-87262541D01*
X186886909Y-87262914D01*
X186849500Y-87402525D01*
X175300500Y-87402525D01*
X175300500Y-86302525D01*
X183009925Y-86302525D01*
X183009925Y-86447475D01*
X183020718Y-86487755D01*
X183039412Y-86557523D01*
X183047441Y-86587486D01*
X183047443Y-86587491D01*
X183118056Y-86709795D01*
X183119914Y-86713013D01*
X183222410Y-86815509D01*
X183223099Y-86816005D01*
X183225603Y-86817353D01*
X183344494Y-86885995D01*
X183347512Y-86887869D01*
X183347939Y-86887983D01*
X183347940Y-86887984D01*
X183487950Y-86925500D01*
X183487953Y-86925500D01*
X183632897Y-86925500D01*
X183632900Y-86925500D01*
X183772910Y-86887984D01*
X183898440Y-86815509D01*
X184000934Y-86713015D01*
X184073409Y-86587485D01*
X184110925Y-86447475D01*
X184110925Y-86302525D01*
X184073409Y-86162515D01*
X184058669Y-86136985D01*
X184000936Y-86036988D01*
X184000931Y-86036982D01*
X184000918Y-86036968D01*
X183898455Y-85934505D01*
X183898439Y-85934490D01*
X183898431Y-85934485D01*
X183844668Y-85903445D01*
X183816233Y-85873624D01*
X183761432Y-85858939D01*
X183761432Y-85858940D01*
X183663454Y-85832687D01*
X183632900Y-85824500D01*
X183632899Y-85824500D01*
X183487950Y-85824500D01*
X183359419Y-85858939D01*
X183359418Y-85858940D01*
X183351763Y-85860991D01*
X183347935Y-85862017D01*
X183222416Y-85934485D01*
X183222409Y-85934490D01*
X183222393Y-85934505D01*
X183119930Y-86036968D01*
X183119915Y-86036984D01*
X183119910Y-86036992D01*
X183047442Y-86162509D01*
X183047429Y-86162541D01*
X183047334Y-86162914D01*
X183009925Y-86302525D01*
X175300500Y-86302525D01*
X175300500Y-83642525D01*
X176889500Y-83642525D01*
X176889500Y-83787475D01*
X176905694Y-83847910D01*
X176914581Y-83881077D01*
X176927018Y-83927492D01*
X176997631Y-84049795D01*
X176999489Y-84053013D01*
X177101985Y-84155509D01*
X177102674Y-84156005D01*
X177105178Y-84157353D01*
X177224069Y-84225995D01*
X177227087Y-84227869D01*
X177227514Y-84227983D01*
X177227515Y-84227984D01*
X177367525Y-84265500D01*
X177367528Y-84265500D01*
X177512472Y-84265500D01*
X177512475Y-84265500D01*
X177652485Y-84227984D01*
X177778015Y-84155509D01*
X177880509Y-84053015D01*
X177952984Y-83927485D01*
X177990500Y-83787475D01*
X177990500Y-83702525D01*
X186849500Y-83702525D01*
X186849500Y-83847475D01*
X186866117Y-83909488D01*
X186886311Y-83984855D01*
X186887018Y-83987491D01*
X186957631Y-84109795D01*
X186959489Y-84113013D01*
X187061985Y-84215509D01*
X187062674Y-84216005D01*
X187065178Y-84217353D01*
X187184069Y-84285995D01*
X187187087Y-84287869D01*
X187187514Y-84287983D01*
X187187515Y-84287984D01*
X187327525Y-84325500D01*
X187327528Y-84325500D01*
X187472472Y-84325500D01*
X187472475Y-84325500D01*
X187612485Y-84287984D01*
X187738015Y-84215509D01*
X187840509Y-84113015D01*
X187912984Y-83987485D01*
X187950500Y-83847475D01*
X187950500Y-83702525D01*
X187912984Y-83562515D01*
X187891628Y-83525526D01*
X187840511Y-83436988D01*
X187840510Y-83436987D01*
X187840509Y-83436985D01*
X187738015Y-83334491D01*
X187738013Y-83334489D01*
X187737321Y-83333990D01*
X187734802Y-83332635D01*
X187684242Y-83303444D01*
X187655808Y-83273624D01*
X187595631Y-83257500D01*
X187595630Y-83257499D01*
X187505474Y-83233342D01*
X187472475Y-83224500D01*
X187472474Y-83224500D01*
X187327525Y-83224500D01*
X187204368Y-83257500D01*
X187204367Y-83257499D01*
X187187513Y-83262016D01*
X187187508Y-83262018D01*
X187061992Y-83334485D01*
X187061984Y-83334490D01*
X187061968Y-83334505D01*
X186959505Y-83436968D01*
X186959494Y-83436981D01*
X186959493Y-83436982D01*
X186959491Y-83436985D01*
X186959485Y-83436992D01*
X186887017Y-83562509D01*
X186887004Y-83562541D01*
X186886909Y-83562914D01*
X186849500Y-83702525D01*
X177990500Y-83702525D01*
X177990500Y-83642525D01*
X177952984Y-83502515D01*
X177915148Y-83436982D01*
X177915148Y-83436981D01*
X177892274Y-83397362D01*
X177880511Y-83376988D01*
X177880506Y-83376982D01*
X177880493Y-83376968D01*
X177778030Y-83274505D01*
X177778014Y-83274490D01*
X177778011Y-83274488D01*
X177728532Y-83245921D01*
X177728530Y-83245920D01*
X177652488Y-83202017D01*
X177652489Y-83202017D01*
X177625995Y-83194918D01*
X177615070Y-83191990D01*
X177615067Y-83191989D01*
X177537929Y-83171320D01*
X177512475Y-83164500D01*
X177512474Y-83164500D01*
X177367525Y-83164500D01*
X177254004Y-83194918D01*
X177254003Y-83194917D01*
X177227512Y-83202016D01*
X177227507Y-83202018D01*
X177101992Y-83274485D01*
X177101984Y-83274490D01*
X177101968Y-83274505D01*
X176999505Y-83376968D01*
X176999490Y-83376984D01*
X176999485Y-83376992D01*
X176927017Y-83502509D01*
X176927004Y-83502541D01*
X176926909Y-83502914D01*
X176889500Y-83642525D01*
X175300500Y-83642525D01*
X175300500Y-81686299D01*
X187499500Y-81686299D01*
X187499500Y-81863699D01*
X187534099Y-82037646D01*
X187534101Y-82037653D01*
X187534109Y-82037676D01*
X187601977Y-82201526D01*
X187601985Y-82201544D01*
X187601994Y-82201559D01*
X187700536Y-82349036D01*
X187700537Y-82349037D01*
X187700542Y-82349043D01*
X187825955Y-82474456D01*
X187825961Y-82474461D01*
X187825965Y-82474464D01*
X187973446Y-82573009D01*
X187973459Y-82573016D01*
X188009579Y-82587977D01*
X188095144Y-82623419D01*
X188095182Y-82623434D01*
X188096363Y-82623923D01*
X188137334Y-82640894D01*
X188137336Y-82640894D01*
X188137341Y-82640896D01*
X188303680Y-82673982D01*
X188306403Y-82674704D01*
X188311306Y-82675500D01*
X188488693Y-82675500D01*
X188492814Y-82675500D01*
X188500667Y-82673117D01*
X188546682Y-82663964D01*
X188546683Y-82663964D01*
X188662653Y-82640897D01*
X188662653Y-82640896D01*
X188662658Y-82640896D01*
X188662661Y-82640894D01*
X188662666Y-82640894D01*
X188665854Y-82639573D01*
X188673835Y-82636273D01*
X188673876Y-82636251D01*
X188826540Y-82573016D01*
X188826540Y-82573015D01*
X188826547Y-82573013D01*
X188974035Y-82474464D01*
X189099464Y-82349035D01*
X189198013Y-82201547D01*
X189198574Y-82200194D01*
X189207958Y-82177535D01*
X189265894Y-82037666D01*
X189270548Y-82014273D01*
X189300499Y-81863695D01*
X189300500Y-81863693D01*
X189300500Y-81686125D01*
X189300074Y-81684169D01*
X189265896Y-81512341D01*
X189265893Y-81512332D01*
X189198016Y-81348459D01*
X189198009Y-81348446D01*
X189099464Y-81200965D01*
X189099461Y-81200961D01*
X189099456Y-81200955D01*
X188974043Y-81075542D01*
X188974037Y-81075537D01*
X188974036Y-81075536D01*
X188826559Y-80976994D01*
X188826558Y-80976993D01*
X188826553Y-80976990D01*
X188826540Y-80976983D01*
X188826526Y-80976977D01*
X188662676Y-80909109D01*
X188662653Y-80909101D01*
X188662646Y-80909099D01*
X188488698Y-80874500D01*
X188488694Y-80874500D01*
X188488691Y-80874500D01*
X188311309Y-80874500D01*
X188311306Y-80874500D01*
X188311301Y-80874500D01*
X188137352Y-80909100D01*
X188137345Y-80909101D01*
X188137322Y-80909109D01*
X187973472Y-80976977D01*
X187973454Y-80976985D01*
X187973439Y-80976994D01*
X187825962Y-81075536D01*
X187825961Y-81075537D01*
X187825955Y-81075542D01*
X187700542Y-81200955D01*
X187700537Y-81200961D01*
X187700536Y-81200962D01*
X187601994Y-81348439D01*
X187601985Y-81348454D01*
X187601977Y-81348472D01*
X187534109Y-81512322D01*
X187534101Y-81512345D01*
X187534099Y-81512352D01*
X187499500Y-81686299D01*
X175300500Y-81686299D01*
X175300500Y-80202525D01*
X183109925Y-80202525D01*
X183109925Y-80209925D01*
X183109925Y-80347474D01*
X183147438Y-80487477D01*
X183147441Y-80487485D01*
X183147442Y-80487488D01*
X183192836Y-80566112D01*
X183218056Y-80609795D01*
X183219914Y-80613013D01*
X183322410Y-80715509D01*
X183323099Y-80716005D01*
X183325603Y-80717353D01*
X183444494Y-80785995D01*
X183447512Y-80787869D01*
X183447939Y-80787983D01*
X183447940Y-80787984D01*
X183587950Y-80825500D01*
X183587953Y-80825500D01*
X183732897Y-80825500D01*
X183732900Y-80825500D01*
X183872910Y-80787984D01*
X183998440Y-80715509D01*
X184100934Y-80613015D01*
X184173409Y-80487485D01*
X184210925Y-80347475D01*
X184210925Y-80202525D01*
X184173409Y-80062515D01*
X184158669Y-80036985D01*
X184100936Y-79936988D01*
X184100931Y-79936982D01*
X184100918Y-79936968D01*
X183998455Y-79834505D01*
X183998439Y-79834490D01*
X183998431Y-79834485D01*
X183944668Y-79803445D01*
X183916233Y-79773624D01*
X183861432Y-79758939D01*
X183861432Y-79758940D01*
X183776262Y-79736119D01*
X183732900Y-79724500D01*
X183732899Y-79724500D01*
X183587950Y-79724500D01*
X183459419Y-79758939D01*
X183459418Y-79758940D01*
X183451763Y-79760991D01*
X183447935Y-79762017D01*
X183322416Y-79834485D01*
X183322409Y-79834490D01*
X183322393Y-79834505D01*
X183219930Y-79936968D01*
X183219915Y-79936984D01*
X183219910Y-79936992D01*
X183147442Y-80062509D01*
X183147429Y-80062541D01*
X183147334Y-80062914D01*
X183109925Y-80202525D01*
X175300500Y-80202525D01*
X175300500Y-78562525D01*
X176889500Y-78562525D01*
X176889500Y-78707475D01*
X176912283Y-78792499D01*
X176927018Y-78847492D01*
X176997631Y-78969795D01*
X176999489Y-78973013D01*
X177101985Y-79075509D01*
X177102674Y-79076005D01*
X177105178Y-79077353D01*
X177224069Y-79145995D01*
X177227087Y-79147869D01*
X177227514Y-79147983D01*
X177227515Y-79147984D01*
X177367525Y-79185500D01*
X177367528Y-79185500D01*
X177512472Y-79185500D01*
X177512475Y-79185500D01*
X177652485Y-79147984D01*
X177778015Y-79075509D01*
X177880509Y-78973015D01*
X177952984Y-78847485D01*
X177990500Y-78707475D01*
X177990500Y-78562525D01*
X183239500Y-78562525D01*
X183239500Y-78707475D01*
X183262283Y-78792499D01*
X183277018Y-78847492D01*
X183347631Y-78969795D01*
X183349489Y-78973013D01*
X183451985Y-79075509D01*
X183452674Y-79076005D01*
X183455178Y-79077353D01*
X183574069Y-79145995D01*
X183577087Y-79147869D01*
X183577514Y-79147983D01*
X183577515Y-79147984D01*
X183717525Y-79185500D01*
X183717528Y-79185500D01*
X183862472Y-79185500D01*
X183862475Y-79185500D01*
X184002485Y-79147984D01*
X184128015Y-79075509D01*
X184230509Y-78973015D01*
X184302984Y-78847485D01*
X184340500Y-78707475D01*
X184340500Y-78562525D01*
X189589500Y-78562525D01*
X189589500Y-78707475D01*
X189612283Y-78792499D01*
X189627018Y-78847492D01*
X189697631Y-78969795D01*
X189699489Y-78973013D01*
X189801985Y-79075509D01*
X189802674Y-79076005D01*
X189805178Y-79077353D01*
X189924069Y-79145995D01*
X189927087Y-79147869D01*
X189927514Y-79147983D01*
X189927515Y-79147984D01*
X190067525Y-79185500D01*
X190067528Y-79185500D01*
X190212472Y-79185500D01*
X190212475Y-79185500D01*
X190352485Y-79147984D01*
X190478015Y-79075509D01*
X190580509Y-78973015D01*
X190652984Y-78847485D01*
X190690500Y-78707475D01*
X190690500Y-78562525D01*
X190652984Y-78422515D01*
X190641179Y-78402069D01*
X190634167Y-78389924D01*
X190580513Y-78296991D01*
X190580508Y-78296984D01*
X190580493Y-78296968D01*
X190478030Y-78194505D01*
X190478014Y-78194490D01*
X190478006Y-78194485D01*
X190424243Y-78163445D01*
X190395808Y-78133624D01*
X190341007Y-78118939D01*
X190341007Y-78118940D01*
X190276740Y-78101720D01*
X190212475Y-78084500D01*
X190212474Y-78084500D01*
X190067525Y-78084500D01*
X189938994Y-78118939D01*
X189938993Y-78118940D01*
X189931338Y-78120991D01*
X189927510Y-78122017D01*
X189801991Y-78194485D01*
X189801984Y-78194490D01*
X189801968Y-78194505D01*
X189699505Y-78296968D01*
X189699490Y-78296984D01*
X189699485Y-78296992D01*
X189627017Y-78422509D01*
X189626989Y-78422578D01*
X189626748Y-78423511D01*
X189589500Y-78562525D01*
X184340500Y-78562525D01*
X184302984Y-78422515D01*
X184291179Y-78402069D01*
X184265428Y-78357467D01*
X184230513Y-78296991D01*
X184230508Y-78296984D01*
X184230493Y-78296968D01*
X184128030Y-78194505D01*
X184128014Y-78194490D01*
X184128006Y-78194485D01*
X184074243Y-78163445D01*
X184045808Y-78133624D01*
X183991007Y-78118939D01*
X183991007Y-78118940D01*
X183926740Y-78101720D01*
X183862475Y-78084500D01*
X183862474Y-78084500D01*
X183717525Y-78084500D01*
X183588994Y-78118939D01*
X183588993Y-78118940D01*
X183581338Y-78120991D01*
X183577510Y-78122017D01*
X183451991Y-78194485D01*
X183451984Y-78194490D01*
X183451968Y-78194505D01*
X183349505Y-78296968D01*
X183349490Y-78296984D01*
X183349485Y-78296992D01*
X183277017Y-78422509D01*
X183276989Y-78422578D01*
X183276748Y-78423511D01*
X183239500Y-78562525D01*
X177990500Y-78562525D01*
X177952984Y-78422515D01*
X177941179Y-78402069D01*
X177915428Y-78357467D01*
X177880513Y-78296991D01*
X177880508Y-78296984D01*
X177880493Y-78296968D01*
X177778030Y-78194505D01*
X177778014Y-78194490D01*
X177778006Y-78194485D01*
X177724243Y-78163445D01*
X177695808Y-78133624D01*
X177641007Y-78118939D01*
X177641007Y-78118940D01*
X177576740Y-78101720D01*
X177512475Y-78084500D01*
X177512474Y-78084500D01*
X177367525Y-78084500D01*
X177238994Y-78118939D01*
X177238993Y-78118940D01*
X177231338Y-78120991D01*
X177227510Y-78122017D01*
X177101991Y-78194485D01*
X177101984Y-78194490D01*
X177101968Y-78194505D01*
X176999505Y-78296968D01*
X176999490Y-78296984D01*
X176999485Y-78296992D01*
X176927017Y-78422509D01*
X176927004Y-78422541D01*
X176926909Y-78422914D01*
X176889500Y-78562525D01*
X175300500Y-78562525D01*
X175300500Y-73581642D01*
X175300579Y-73577217D01*
X175300737Y-73572792D01*
X175300974Y-73568371D01*
X175304271Y-73522272D01*
X175307113Y-73482525D01*
X176889500Y-73482525D01*
X176889500Y-73489925D01*
X176889500Y-73627474D01*
X176927013Y-73767477D01*
X176927017Y-73767488D01*
X176927018Y-73767489D01*
X176997631Y-73889795D01*
X176999489Y-73893013D01*
X177101985Y-73995509D01*
X177102674Y-73996005D01*
X177105178Y-73997353D01*
X177224069Y-74065995D01*
X177227087Y-74067869D01*
X177227514Y-74067983D01*
X177227515Y-74067984D01*
X177367525Y-74105500D01*
X177367528Y-74105500D01*
X177512472Y-74105500D01*
X177512475Y-74105500D01*
X177652485Y-74067984D01*
X177778015Y-73995509D01*
X177880509Y-73893015D01*
X177952984Y-73767485D01*
X177990500Y-73627475D01*
X177990500Y-73482525D01*
X183239500Y-73482525D01*
X183239500Y-73489925D01*
X183239500Y-73627474D01*
X183277013Y-73767477D01*
X183277017Y-73767488D01*
X183277018Y-73767489D01*
X183347631Y-73889795D01*
X183349489Y-73893013D01*
X183451985Y-73995509D01*
X183452674Y-73996005D01*
X183455178Y-73997353D01*
X183574069Y-74065995D01*
X183577087Y-74067869D01*
X183577514Y-74067983D01*
X183577515Y-74067984D01*
X183717525Y-74105500D01*
X183717528Y-74105500D01*
X183862472Y-74105500D01*
X183862475Y-74105500D01*
X184002485Y-74067984D01*
X184128015Y-73995509D01*
X184230509Y-73893015D01*
X184302984Y-73767485D01*
X184340500Y-73627475D01*
X184340500Y-73482525D01*
X189589500Y-73482525D01*
X189589500Y-73489925D01*
X189589500Y-73627474D01*
X189627013Y-73767477D01*
X189627017Y-73767488D01*
X189627018Y-73767489D01*
X189697631Y-73889795D01*
X189699489Y-73893013D01*
X189801985Y-73995509D01*
X189802674Y-73996005D01*
X189805178Y-73997353D01*
X189924069Y-74065995D01*
X189927087Y-74067869D01*
X189927514Y-74067983D01*
X189927515Y-74067984D01*
X190067525Y-74105500D01*
X190067528Y-74105500D01*
X190212472Y-74105500D01*
X190212475Y-74105500D01*
X190352485Y-74067984D01*
X190478015Y-73995509D01*
X190580509Y-73893015D01*
X190652984Y-73767485D01*
X190690500Y-73627475D01*
X190690500Y-73482525D01*
X190652984Y-73342515D01*
X190650785Y-73338707D01*
X190580511Y-73216988D01*
X190580506Y-73216982D01*
X190478013Y-73114489D01*
X190477321Y-73113990D01*
X190474802Y-73112635D01*
X190424243Y-73083445D01*
X190395808Y-73053624D01*
X190341007Y-73038939D01*
X190341007Y-73038940D01*
X190276740Y-73021720D01*
X190212475Y-73004500D01*
X190212474Y-73004500D01*
X190067525Y-73004500D01*
X189938994Y-73038939D01*
X189938993Y-73038940D01*
X189931338Y-73040991D01*
X189927510Y-73042017D01*
X189801991Y-73114485D01*
X189801984Y-73114490D01*
X189801968Y-73114505D01*
X189699505Y-73216968D01*
X189699490Y-73216984D01*
X189699485Y-73216992D01*
X189627017Y-73342509D01*
X189627004Y-73342541D01*
X189626909Y-73342914D01*
X189589500Y-73482525D01*
X184340500Y-73482525D01*
X184302984Y-73342515D01*
X184300785Y-73338707D01*
X184230511Y-73216988D01*
X184230506Y-73216982D01*
X184128013Y-73114489D01*
X184127321Y-73113990D01*
X184124802Y-73112635D01*
X184074243Y-73083445D01*
X184045808Y-73053624D01*
X183991007Y-73038939D01*
X183991007Y-73038940D01*
X183926740Y-73021720D01*
X183862475Y-73004500D01*
X183862474Y-73004500D01*
X183717525Y-73004500D01*
X183588994Y-73038939D01*
X183588993Y-73038940D01*
X183581338Y-73040991D01*
X183577510Y-73042017D01*
X183451991Y-73114485D01*
X183451984Y-73114490D01*
X183451968Y-73114505D01*
X183349505Y-73216968D01*
X183349490Y-73216984D01*
X183349485Y-73216992D01*
X183277017Y-73342509D01*
X183277004Y-73342541D01*
X183276909Y-73342914D01*
X183239500Y-73482525D01*
X177990500Y-73482525D01*
X177952984Y-73342515D01*
X177950785Y-73338707D01*
X177880511Y-73216988D01*
X177880506Y-73216982D01*
X177778013Y-73114489D01*
X177777321Y-73113990D01*
X177774802Y-73112635D01*
X177724243Y-73083445D01*
X177695808Y-73053624D01*
X177641007Y-73038939D01*
X177641007Y-73038940D01*
X177576740Y-73021720D01*
X177512475Y-73004500D01*
X177512474Y-73004500D01*
X177367525Y-73004500D01*
X177238994Y-73038939D01*
X177238993Y-73038940D01*
X177231338Y-73040991D01*
X177227510Y-73042017D01*
X177101991Y-73114485D01*
X177101984Y-73114490D01*
X177101968Y-73114505D01*
X176999505Y-73216968D01*
X176999490Y-73216984D01*
X176999485Y-73216992D01*
X176927017Y-73342509D01*
X176927004Y-73342541D01*
X176926909Y-73342914D01*
X176889500Y-73482525D01*
X175307113Y-73482525D01*
X175308327Y-73465553D01*
X175315830Y-73360630D01*
X175316776Y-73351827D01*
X175318033Y-73343085D01*
X175319605Y-73334375D01*
X175362471Y-73137328D01*
X175364646Y-73128803D01*
X175367145Y-73120294D01*
X175369919Y-73111956D01*
X175440412Y-72922956D01*
X175443784Y-72914818D01*
X175447452Y-72906786D01*
X175451410Y-72898881D01*
X175548057Y-72721886D01*
X175552560Y-72714299D01*
X175557339Y-72706863D01*
X175562373Y-72699612D01*
X175683219Y-72538179D01*
X175688763Y-72531301D01*
X175694546Y-72524627D01*
X175700564Y-72518162D01*
X175843162Y-72375564D01*
X175849627Y-72369546D01*
X175856301Y-72363763D01*
X175863179Y-72358219D01*
X176024612Y-72237373D01*
X176031863Y-72232339D01*
X176039299Y-72227560D01*
X176046886Y-72223057D01*
X176223891Y-72126404D01*
X176231790Y-72122451D01*
X176239818Y-72118784D01*
X176247956Y-72115412D01*
X176436956Y-72044919D01*
X176445294Y-72042145D01*
X176453803Y-72039646D01*
X176462321Y-72037472D01*
X176659407Y-71994598D01*
X176668072Y-71993035D01*
X176676840Y-71991774D01*
X176685604Y-71990832D01*
X176853439Y-71978829D01*
X176893384Y-71975973D01*
X176897794Y-71975737D01*
X176902228Y-71975579D01*
X176906644Y-71975500D01*
X193324829Y-71975500D01*
X193391868Y-71995185D01*
G37*
G04 #@! TD.AperFunction*
G04 #@! TA.AperFunction,Conductor*
G36*
X259904417Y-71975816D02*
G01*
X259939626Y-71978334D01*
X260118791Y-71991147D01*
X260136294Y-71993664D01*
X260341968Y-72038406D01*
X260358934Y-72043387D01*
X260556153Y-72116946D01*
X260572236Y-72124290D01*
X260756972Y-72225165D01*
X260771855Y-72234730D01*
X260940350Y-72360863D01*
X260953721Y-72372449D01*
X261102550Y-72521278D01*
X261114136Y-72534649D01*
X261240269Y-72703144D01*
X261249834Y-72718027D01*
X261350706Y-72902758D01*
X261358056Y-72918852D01*
X261431610Y-73116060D01*
X261436594Y-73133035D01*
X261481334Y-73338699D01*
X261483852Y-73356211D01*
X261499184Y-73570581D01*
X261499500Y-73579427D01*
X261499500Y-93351000D01*
X261479815Y-93418039D01*
X261427011Y-93463794D01*
X261375500Y-93475000D01*
X257151362Y-93475000D01*
X257121921Y-93466355D01*
X257091935Y-93459832D01*
X257086919Y-93456077D01*
X257084323Y-93455315D01*
X257063681Y-93438681D01*
X256936319Y-93311319D01*
X256902834Y-93249996D01*
X256900000Y-93223638D01*
X256900000Y-86575000D01*
X256500000Y-86175000D01*
X252467495Y-86175000D01*
X252400456Y-86155315D01*
X252354701Y-86102511D01*
X252344757Y-86033353D01*
X252373782Y-85969797D01*
X252411200Y-85940515D01*
X252461694Y-85914787D01*
X252622464Y-85797981D01*
X252762981Y-85657464D01*
X252879787Y-85496694D01*
X252970005Y-85319632D01*
X253031413Y-85130636D01*
X253062500Y-84934361D01*
X253062500Y-84735639D01*
X253038895Y-84586604D01*
X253047849Y-84517314D01*
X253092845Y-84463862D01*
X253159597Y-84443222D01*
X253226911Y-84461947D01*
X253230258Y-84464107D01*
X253237134Y-84468701D01*
X253237137Y-84468703D01*
X253391918Y-84532816D01*
X253556228Y-84565499D01*
X253556232Y-84565500D01*
X253556233Y-84565500D01*
X253723768Y-84565500D01*
X253723769Y-84565499D01*
X253888082Y-84532816D01*
X254042863Y-84468703D01*
X254182162Y-84375626D01*
X254300626Y-84257162D01*
X254393703Y-84117863D01*
X254457816Y-83963082D01*
X254490500Y-83798767D01*
X254490500Y-83631233D01*
X254457816Y-83466918D01*
X254393703Y-83312137D01*
X254325524Y-83210100D01*
X254300626Y-83172837D01*
X254182162Y-83054373D01*
X254042860Y-82961295D01*
X253888082Y-82897184D01*
X253888074Y-82897182D01*
X253723771Y-82864500D01*
X253723767Y-82864500D01*
X253556233Y-82864500D01*
X253556228Y-82864500D01*
X253391925Y-82897182D01*
X253391917Y-82897184D01*
X253237139Y-82961295D01*
X253097835Y-83054375D01*
X253095858Y-83055998D01*
X253094620Y-83056523D01*
X253092773Y-83057758D01*
X253092538Y-83057407D01*
X253031546Y-83083306D01*
X252962680Y-83071510D01*
X252911123Y-83024354D01*
X252893245Y-82956811D01*
X252906716Y-82903844D01*
X252970000Y-82779642D01*
X252970006Y-82779629D01*
X253015083Y-82640894D01*
X253031413Y-82590636D01*
X253062500Y-82394361D01*
X253062500Y-82195639D01*
X253031413Y-81999364D01*
X252970005Y-81810368D01*
X252970005Y-81810367D01*
X252879786Y-81633305D01*
X252762981Y-81472536D01*
X252622464Y-81332019D01*
X252461694Y-81215213D01*
X252305218Y-81135484D01*
X252254423Y-81087510D01*
X252237628Y-81019689D01*
X252260165Y-80953554D01*
X252305218Y-80914515D01*
X252461694Y-80834787D01*
X252622464Y-80717981D01*
X252762981Y-80577464D01*
X252879787Y-80416694D01*
X252970005Y-80239632D01*
X253031413Y-80050636D01*
X253062500Y-79854361D01*
X253062500Y-79655639D01*
X253031413Y-79459364D01*
X252976734Y-79291077D01*
X252970006Y-79270370D01*
X252970005Y-79270367D01*
X252922514Y-79177162D01*
X252879787Y-79093306D01*
X252762981Y-78932536D01*
X252622464Y-78792019D01*
X252461694Y-78675213D01*
X252284632Y-78584994D01*
X252284629Y-78584993D01*
X252095637Y-78523587D01*
X251989786Y-78506822D01*
X251899361Y-78492500D01*
X251700639Y-78492500D01*
X251635214Y-78502862D01*
X251504362Y-78523587D01*
X251315370Y-78584993D01*
X251315367Y-78584994D01*
X251138305Y-78675213D01*
X250977533Y-78792021D01*
X250837021Y-78932533D01*
X250720213Y-79093305D01*
X250640485Y-79249780D01*
X250592510Y-79300576D01*
X250524689Y-79317371D01*
X250458554Y-79294833D01*
X250419515Y-79249780D01*
X250382514Y-79177162D01*
X250339787Y-79093306D01*
X250222981Y-78932536D01*
X250082464Y-78792019D01*
X249921694Y-78675213D01*
X249744632Y-78584994D01*
X249744629Y-78584993D01*
X249555637Y-78523587D01*
X249449786Y-78506822D01*
X249359361Y-78492500D01*
X249160639Y-78492500D01*
X249095214Y-78502862D01*
X248964362Y-78523587D01*
X248775370Y-78584993D01*
X248775367Y-78584994D01*
X248598305Y-78675213D01*
X248437537Y-78792018D01*
X248337602Y-78891953D01*
X248276279Y-78925437D01*
X248206587Y-78920453D01*
X248150654Y-78878581D01*
X248126237Y-78813116D01*
X248128304Y-78780079D01*
X248140500Y-78718767D01*
X248140500Y-78551233D01*
X248107816Y-78386918D01*
X248043703Y-78232137D01*
X247950626Y-78092838D01*
X247950625Y-78092837D01*
X247950624Y-78092835D01*
X247903030Y-78045241D01*
X256138651Y-78045241D01*
X256138651Y-78224758D01*
X256166734Y-78402069D01*
X256222206Y-78572797D01*
X256262958Y-78652776D01*
X256296584Y-78718771D01*
X256303710Y-78732755D01*
X256409220Y-78877980D01*
X256536170Y-79004930D01*
X256657810Y-79093305D01*
X256681399Y-79110443D01*
X256812342Y-79177162D01*
X256841353Y-79191944D01*
X256926717Y-79219680D01*
X257012083Y-79247417D01*
X257189392Y-79275500D01*
X257189393Y-79275500D01*
X257368909Y-79275500D01*
X257368910Y-79275500D01*
X257546219Y-79247417D01*
X257716951Y-79191943D01*
X257876903Y-79110443D01*
X257958444Y-79051200D01*
X258022131Y-79004930D01*
X258022133Y-79004927D01*
X258022137Y-79004925D01*
X258149076Y-78877986D01*
X258149078Y-78877982D01*
X258149081Y-78877980D01*
X258195351Y-78814293D01*
X258254594Y-78732752D01*
X258336094Y-78572800D01*
X258343103Y-78551228D01*
X259139500Y-78551228D01*
X259139500Y-78718771D01*
X259172182Y-78883074D01*
X259172184Y-78883082D01*
X259236295Y-79037860D01*
X259329373Y-79177162D01*
X259447837Y-79295626D01*
X259540494Y-79357537D01*
X259587137Y-79388703D01*
X259741918Y-79452816D01*
X259906228Y-79485499D01*
X259906232Y-79485500D01*
X259906233Y-79485500D01*
X260073768Y-79485500D01*
X260073769Y-79485499D01*
X260238082Y-79452816D01*
X260392863Y-79388703D01*
X260532162Y-79295626D01*
X260650626Y-79177162D01*
X260743703Y-79037863D01*
X260807816Y-78883082D01*
X260840500Y-78718767D01*
X260840500Y-78551233D01*
X260807816Y-78386918D01*
X260743703Y-78232137D01*
X260661599Y-78109260D01*
X260650626Y-78092837D01*
X260532162Y-77974373D01*
X260392860Y-77881295D01*
X260238082Y-77817184D01*
X260238074Y-77817182D01*
X260073771Y-77784500D01*
X260073767Y-77784500D01*
X259906233Y-77784500D01*
X259906228Y-77784500D01*
X259741925Y-77817182D01*
X259741917Y-77817184D01*
X259587139Y-77881295D01*
X259447837Y-77974373D01*
X259329373Y-78092837D01*
X259236295Y-78232139D01*
X259172184Y-78386917D01*
X259172182Y-78386925D01*
X259139500Y-78551228D01*
X258343103Y-78551228D01*
X258357532Y-78506823D01*
X258357532Y-78506822D01*
X258391567Y-78402071D01*
X258391566Y-78402071D01*
X258391568Y-78402068D01*
X258419651Y-78224759D01*
X258419651Y-78045241D01*
X258391568Y-77867932D01*
X258336094Y-77697200D01*
X258254594Y-77537248D01*
X258218978Y-77488226D01*
X258149081Y-77392019D01*
X258022131Y-77265069D01*
X257876906Y-77159559D01*
X257876905Y-77159558D01*
X257876903Y-77159557D01*
X257796927Y-77118807D01*
X257716948Y-77078055D01*
X257546220Y-77022583D01*
X257457564Y-77008541D01*
X257368910Y-76994500D01*
X257189392Y-76994500D01*
X257130289Y-77003861D01*
X257012081Y-77022583D01*
X256841353Y-77078055D01*
X256681395Y-77159559D01*
X256536170Y-77265069D01*
X256409220Y-77392019D01*
X256303710Y-77537244D01*
X256222206Y-77697202D01*
X256166734Y-77867930D01*
X256138651Y-78045241D01*
X247903030Y-78045241D01*
X247832162Y-77974373D01*
X247692860Y-77881295D01*
X247538082Y-77817184D01*
X247538074Y-77817182D01*
X247373771Y-77784500D01*
X247373767Y-77784500D01*
X247206233Y-77784500D01*
X247206228Y-77784500D01*
X247041925Y-77817182D01*
X247041917Y-77817184D01*
X246887139Y-77881295D01*
X246747837Y-77974373D01*
X246629373Y-78092837D01*
X246536295Y-78232139D01*
X246472184Y-78386917D01*
X246472182Y-78386925D01*
X246439500Y-78551228D01*
X246439500Y-78718771D01*
X246472182Y-78883074D01*
X246472184Y-78883082D01*
X246536295Y-79037860D01*
X246629373Y-79177162D01*
X246747837Y-79295626D01*
X246840494Y-79357537D01*
X246887137Y-79388703D01*
X247041918Y-79452816D01*
X247206228Y-79485499D01*
X247206232Y-79485500D01*
X247206233Y-79485500D01*
X247373768Y-79485500D01*
X247373769Y-79485499D01*
X247538082Y-79452816D01*
X247692863Y-79388703D01*
X247832162Y-79295626D01*
X247836711Y-79291077D01*
X247898032Y-79257588D01*
X247967724Y-79262569D01*
X248023660Y-79304437D01*
X248048081Y-79369900D01*
X248042328Y-79417070D01*
X248028587Y-79459360D01*
X247997500Y-79655639D01*
X247997500Y-79854360D01*
X248028587Y-80050637D01*
X248089993Y-80239629D01*
X248089994Y-80239632D01*
X248180213Y-80416694D01*
X248297019Y-80577464D01*
X248437536Y-80717981D01*
X248598306Y-80834787D01*
X248676247Y-80874500D01*
X248754780Y-80914515D01*
X248805576Y-80962490D01*
X248822371Y-81030311D01*
X248799833Y-81096446D01*
X248754780Y-81135485D01*
X248598305Y-81215213D01*
X248437533Y-81332021D01*
X248297021Y-81472533D01*
X248180213Y-81633305D01*
X248089994Y-81810367D01*
X248089993Y-81810370D01*
X248028587Y-81999362D01*
X247997500Y-82195639D01*
X247997500Y-82394360D01*
X248028587Y-82590637D01*
X248089993Y-82779629D01*
X248089994Y-82779632D01*
X248149890Y-82897182D01*
X248180213Y-82956694D01*
X248297019Y-83117464D01*
X248437536Y-83257981D01*
X248598306Y-83374787D01*
X248716832Y-83435179D01*
X248754780Y-83454515D01*
X248805576Y-83502490D01*
X248822371Y-83570311D01*
X248799833Y-83636446D01*
X248754780Y-83675485D01*
X248598305Y-83755213D01*
X248437537Y-83872018D01*
X248337602Y-83971953D01*
X248276279Y-84005437D01*
X248206587Y-84000453D01*
X248150654Y-83958581D01*
X248126237Y-83893116D01*
X248128304Y-83860079D01*
X248130243Y-83850332D01*
X248140500Y-83798767D01*
X248140500Y-83631233D01*
X248107816Y-83466918D01*
X248043703Y-83312137D01*
X247975524Y-83210100D01*
X247950626Y-83172837D01*
X247832162Y-83054373D01*
X247692860Y-82961295D01*
X247538082Y-82897184D01*
X247538074Y-82897182D01*
X247373771Y-82864500D01*
X247373767Y-82864500D01*
X247206233Y-82864500D01*
X247206228Y-82864500D01*
X247041925Y-82897182D01*
X247041917Y-82897184D01*
X246887139Y-82961295D01*
X246747837Y-83054373D01*
X246629373Y-83172837D01*
X246536295Y-83312139D01*
X246472184Y-83466917D01*
X246472182Y-83466925D01*
X246439500Y-83631228D01*
X246439500Y-83798771D01*
X246472182Y-83963074D01*
X246472184Y-83963082D01*
X246536295Y-84117860D01*
X246629373Y-84257162D01*
X246747837Y-84375626D01*
X246840494Y-84437537D01*
X246887137Y-84468703D01*
X247041918Y-84532816D01*
X247206228Y-84565499D01*
X247206232Y-84565500D01*
X247206233Y-84565500D01*
X247373768Y-84565500D01*
X247373769Y-84565499D01*
X247538082Y-84532816D01*
X247692863Y-84468703D01*
X247832162Y-84375626D01*
X247836711Y-84371077D01*
X247898032Y-84337588D01*
X247967724Y-84342569D01*
X248023660Y-84384437D01*
X248048081Y-84449900D01*
X248042328Y-84497070D01*
X248028587Y-84539360D01*
X247997500Y-84735639D01*
X247997500Y-84934360D01*
X248028587Y-85130637D01*
X248089993Y-85319629D01*
X248089994Y-85319632D01*
X248180213Y-85496694D01*
X248297019Y-85657464D01*
X248437536Y-85797981D01*
X248598306Y-85914787D01*
X248633731Y-85932837D01*
X248648800Y-85940515D01*
X248699596Y-85988490D01*
X248716391Y-86056311D01*
X248693853Y-86122446D01*
X248639138Y-86165897D01*
X248592505Y-86175000D01*
X203299999Y-86175000D01*
X199936319Y-89538681D01*
X199874996Y-89572166D01*
X199848638Y-89575000D01*
X193724000Y-89575000D01*
X193656961Y-89555315D01*
X193611206Y-89502511D01*
X193600000Y-89451000D01*
X193600000Y-86391228D01*
X197309925Y-86391228D01*
X197309925Y-86558771D01*
X197342607Y-86723074D01*
X197342609Y-86723082D01*
X197406720Y-86877860D01*
X197499798Y-87017162D01*
X197618262Y-87135626D01*
X197710919Y-87197537D01*
X197757562Y-87228703D01*
X197912343Y-87292816D01*
X198076653Y-87325499D01*
X198076657Y-87325500D01*
X198076658Y-87325500D01*
X198244193Y-87325500D01*
X198244194Y-87325499D01*
X198408507Y-87292816D01*
X198563288Y-87228703D01*
X198702587Y-87135626D01*
X198821051Y-87017162D01*
X198914128Y-86877863D01*
X198978241Y-86723082D01*
X199010925Y-86558767D01*
X199010925Y-86391233D01*
X198978241Y-86226918D01*
X198914128Y-86072137D01*
X198858237Y-85988490D01*
X198821051Y-85932837D01*
X198702587Y-85814373D01*
X198563285Y-85721295D01*
X198408507Y-85657184D01*
X198408499Y-85657182D01*
X198244196Y-85624500D01*
X198244192Y-85624500D01*
X198076658Y-85624500D01*
X198076653Y-85624500D01*
X197912350Y-85657182D01*
X197912342Y-85657184D01*
X197757564Y-85721295D01*
X197618262Y-85814373D01*
X197499798Y-85932837D01*
X197406720Y-86072139D01*
X197342609Y-86226917D01*
X197342607Y-86226925D01*
X197309925Y-86391228D01*
X193600000Y-86391228D01*
X193600000Y-83631228D01*
X201989500Y-83631228D01*
X201989500Y-83798771D01*
X202022182Y-83963074D01*
X202022184Y-83963082D01*
X202086295Y-84117860D01*
X202179373Y-84257162D01*
X202297837Y-84375626D01*
X202390494Y-84437537D01*
X202437137Y-84468703D01*
X202591918Y-84532816D01*
X202756228Y-84565499D01*
X202756232Y-84565500D01*
X202756233Y-84565500D01*
X202923768Y-84565500D01*
X202923769Y-84565499D01*
X203088082Y-84532816D01*
X203242863Y-84468703D01*
X203382162Y-84375626D01*
X203500626Y-84257162D01*
X203593703Y-84117863D01*
X203657816Y-83963082D01*
X203690500Y-83798767D01*
X203690500Y-83631233D01*
X203690499Y-83631228D01*
X214689500Y-83631228D01*
X214689500Y-83798771D01*
X214722182Y-83963074D01*
X214722184Y-83963082D01*
X214786295Y-84117860D01*
X214879373Y-84257162D01*
X214997837Y-84375626D01*
X215090494Y-84437537D01*
X215137137Y-84468703D01*
X215291918Y-84532816D01*
X215456228Y-84565499D01*
X215456232Y-84565500D01*
X215456233Y-84565500D01*
X215623768Y-84565500D01*
X215623769Y-84565499D01*
X215788082Y-84532816D01*
X215942863Y-84468703D01*
X216082162Y-84375626D01*
X216200626Y-84257162D01*
X216293703Y-84117863D01*
X216357816Y-83963082D01*
X216390500Y-83798767D01*
X216390500Y-83631233D01*
X216390499Y-83631228D01*
X221039500Y-83631228D01*
X221039500Y-83798771D01*
X221072182Y-83963074D01*
X221072184Y-83963082D01*
X221136295Y-84117860D01*
X221229373Y-84257162D01*
X221347837Y-84375626D01*
X221440494Y-84437537D01*
X221487137Y-84468703D01*
X221641918Y-84532816D01*
X221806228Y-84565499D01*
X221806232Y-84565500D01*
X221806233Y-84565500D01*
X221973768Y-84565500D01*
X221973769Y-84565499D01*
X222138082Y-84532816D01*
X222292863Y-84468703D01*
X222432162Y-84375626D01*
X222550626Y-84257162D01*
X222643703Y-84117863D01*
X222707816Y-83963082D01*
X222740500Y-83798767D01*
X222740500Y-83631233D01*
X222740499Y-83631228D01*
X227389500Y-83631228D01*
X227389500Y-83798771D01*
X227422182Y-83963074D01*
X227422184Y-83963082D01*
X227486295Y-84117860D01*
X227579373Y-84257162D01*
X227697837Y-84375626D01*
X227790494Y-84437537D01*
X227837137Y-84468703D01*
X227991918Y-84532816D01*
X228156228Y-84565499D01*
X228156232Y-84565500D01*
X228156233Y-84565500D01*
X228323768Y-84565500D01*
X228323769Y-84565499D01*
X228488082Y-84532816D01*
X228642863Y-84468703D01*
X228782162Y-84375626D01*
X228900626Y-84257162D01*
X228993703Y-84117863D01*
X229057816Y-83963082D01*
X229090500Y-83798767D01*
X229090500Y-83631233D01*
X229090499Y-83631228D01*
X233739500Y-83631228D01*
X233739500Y-83798771D01*
X233772182Y-83963074D01*
X233772184Y-83963082D01*
X233836295Y-84117860D01*
X233929373Y-84257162D01*
X234047837Y-84375626D01*
X234140494Y-84437537D01*
X234187137Y-84468703D01*
X234341918Y-84532816D01*
X234506228Y-84565499D01*
X234506232Y-84565500D01*
X234506233Y-84565500D01*
X234673768Y-84565500D01*
X234673769Y-84565499D01*
X234838082Y-84532816D01*
X234992863Y-84468703D01*
X235132162Y-84375626D01*
X235250626Y-84257162D01*
X235343703Y-84117863D01*
X235407816Y-83963082D01*
X235440500Y-83798767D01*
X235440500Y-83631233D01*
X235440499Y-83631228D01*
X240089500Y-83631228D01*
X240089500Y-83798771D01*
X240122182Y-83963074D01*
X240122184Y-83963082D01*
X240186295Y-84117860D01*
X240279373Y-84257162D01*
X240397837Y-84375626D01*
X240490494Y-84437537D01*
X240537137Y-84468703D01*
X240691918Y-84532816D01*
X240856228Y-84565499D01*
X240856232Y-84565500D01*
X240856233Y-84565500D01*
X241023768Y-84565500D01*
X241023769Y-84565499D01*
X241188082Y-84532816D01*
X241342863Y-84468703D01*
X241482162Y-84375626D01*
X241600626Y-84257162D01*
X241693703Y-84117863D01*
X241757816Y-83963082D01*
X241790500Y-83798767D01*
X241790500Y-83631233D01*
X241757816Y-83466918D01*
X241693703Y-83312137D01*
X241625524Y-83210100D01*
X241600626Y-83172837D01*
X241482162Y-83054373D01*
X241342860Y-82961295D01*
X241188082Y-82897184D01*
X241188074Y-82897182D01*
X241023771Y-82864500D01*
X241023767Y-82864500D01*
X240856233Y-82864500D01*
X240856228Y-82864500D01*
X240691925Y-82897182D01*
X240691917Y-82897184D01*
X240537139Y-82961295D01*
X240397837Y-83054373D01*
X240279373Y-83172837D01*
X240186295Y-83312139D01*
X240122184Y-83466917D01*
X240122182Y-83466925D01*
X240089500Y-83631228D01*
X235440499Y-83631228D01*
X235407816Y-83466918D01*
X235343703Y-83312137D01*
X235275524Y-83210100D01*
X235250626Y-83172837D01*
X235132162Y-83054373D01*
X234992860Y-82961295D01*
X234838082Y-82897184D01*
X234838074Y-82897182D01*
X234673771Y-82864500D01*
X234673767Y-82864500D01*
X234506233Y-82864500D01*
X234506228Y-82864500D01*
X234341925Y-82897182D01*
X234341917Y-82897184D01*
X234187139Y-82961295D01*
X234047837Y-83054373D01*
X233929373Y-83172837D01*
X233836295Y-83312139D01*
X233772184Y-83466917D01*
X233772182Y-83466925D01*
X233739500Y-83631228D01*
X229090499Y-83631228D01*
X229057816Y-83466918D01*
X228993703Y-83312137D01*
X228925524Y-83210100D01*
X228900626Y-83172837D01*
X228782162Y-83054373D01*
X228642860Y-82961295D01*
X228488082Y-82897184D01*
X228488074Y-82897182D01*
X228323771Y-82864500D01*
X228323767Y-82864500D01*
X228156233Y-82864500D01*
X228156228Y-82864500D01*
X227991925Y-82897182D01*
X227991917Y-82897184D01*
X227837139Y-82961295D01*
X227697837Y-83054373D01*
X227579373Y-83172837D01*
X227486295Y-83312139D01*
X227422184Y-83466917D01*
X227422182Y-83466925D01*
X227389500Y-83631228D01*
X222740499Y-83631228D01*
X222707816Y-83466918D01*
X222643703Y-83312137D01*
X222575524Y-83210100D01*
X222550626Y-83172837D01*
X222432162Y-83054373D01*
X222292860Y-82961295D01*
X222138082Y-82897184D01*
X222138074Y-82897182D01*
X221973771Y-82864500D01*
X221973767Y-82864500D01*
X221806233Y-82864500D01*
X221806228Y-82864500D01*
X221641925Y-82897182D01*
X221641917Y-82897184D01*
X221487139Y-82961295D01*
X221347837Y-83054373D01*
X221229373Y-83172837D01*
X221136295Y-83312139D01*
X221072184Y-83466917D01*
X221072182Y-83466925D01*
X221039500Y-83631228D01*
X216390499Y-83631228D01*
X216357816Y-83466918D01*
X216293703Y-83312137D01*
X216225524Y-83210100D01*
X216200626Y-83172837D01*
X216082162Y-83054373D01*
X215942860Y-82961295D01*
X215788082Y-82897184D01*
X215788074Y-82897182D01*
X215623771Y-82864500D01*
X215623767Y-82864500D01*
X215456233Y-82864500D01*
X215456228Y-82864500D01*
X215291925Y-82897182D01*
X215291917Y-82897184D01*
X215137139Y-82961295D01*
X214997837Y-83054373D01*
X214879373Y-83172837D01*
X214786295Y-83312139D01*
X214722184Y-83466917D01*
X214722182Y-83466925D01*
X214689500Y-83631228D01*
X203690499Y-83631228D01*
X203657816Y-83466918D01*
X203593703Y-83312137D01*
X203525524Y-83210100D01*
X203500626Y-83172837D01*
X203382162Y-83054373D01*
X203242860Y-82961295D01*
X203088082Y-82897184D01*
X203088074Y-82897182D01*
X202923771Y-82864500D01*
X202923767Y-82864500D01*
X202756233Y-82864500D01*
X202756228Y-82864500D01*
X202591925Y-82897182D01*
X202591917Y-82897184D01*
X202437139Y-82961295D01*
X202297837Y-83054373D01*
X202179373Y-83172837D01*
X202086295Y-83312139D01*
X202022184Y-83466917D01*
X202022182Y-83466925D01*
X201989500Y-83631228D01*
X193600000Y-83631228D01*
X193600000Y-82749704D01*
X193619685Y-82682665D01*
X193672489Y-82636910D01*
X193676476Y-82635173D01*
X193826547Y-82573013D01*
X193974035Y-82474464D01*
X194099464Y-82349035D01*
X194198013Y-82201547D01*
X194265894Y-82037666D01*
X194300500Y-81863691D01*
X194300500Y-81686309D01*
X194300500Y-81686306D01*
X194300499Y-81686304D01*
X194265896Y-81512341D01*
X194265893Y-81512332D01*
X194198016Y-81348459D01*
X194198009Y-81348446D01*
X194099464Y-81200965D01*
X194099461Y-81200961D01*
X193974038Y-81075538D01*
X193974034Y-81075535D01*
X193826553Y-80976990D01*
X193826544Y-80976985D01*
X193676547Y-80914855D01*
X193622144Y-80871014D01*
X193600079Y-80804720D01*
X193600000Y-80800294D01*
X193600000Y-80291228D01*
X197309925Y-80291228D01*
X197309925Y-80458771D01*
X197342607Y-80623074D01*
X197342609Y-80623082D01*
X197406720Y-80777860D01*
X197499798Y-80917162D01*
X197618262Y-81035626D01*
X197709286Y-81096446D01*
X197757562Y-81128703D01*
X197912343Y-81192816D01*
X198076653Y-81225499D01*
X198076657Y-81225500D01*
X198076658Y-81225500D01*
X198244193Y-81225500D01*
X198244194Y-81225499D01*
X198408507Y-81192816D01*
X198563288Y-81128703D01*
X198702587Y-81035626D01*
X198821051Y-80917162D01*
X198914128Y-80777863D01*
X198978241Y-80623082D01*
X199010925Y-80458767D01*
X199010925Y-80291233D01*
X198978241Y-80126918D01*
X198914128Y-79972137D01*
X198882962Y-79925494D01*
X198821051Y-79832837D01*
X198702587Y-79714373D01*
X198563285Y-79621295D01*
X198408507Y-79557184D01*
X198408499Y-79557182D01*
X198244196Y-79524500D01*
X198244192Y-79524500D01*
X198076658Y-79524500D01*
X198076653Y-79524500D01*
X197912350Y-79557182D01*
X197912342Y-79557184D01*
X197757564Y-79621295D01*
X197618262Y-79714373D01*
X197499798Y-79832837D01*
X197406720Y-79972139D01*
X197342609Y-80126917D01*
X197342607Y-80126925D01*
X197309925Y-80291228D01*
X193600000Y-80291228D01*
X193600000Y-78551228D01*
X195639500Y-78551228D01*
X195639500Y-78718771D01*
X195672182Y-78883074D01*
X195672184Y-78883082D01*
X195736295Y-79037860D01*
X195829373Y-79177162D01*
X195947837Y-79295626D01*
X196040494Y-79357537D01*
X196087137Y-79388703D01*
X196241918Y-79452816D01*
X196406228Y-79485499D01*
X196406232Y-79485500D01*
X196406233Y-79485500D01*
X196573768Y-79485500D01*
X196573769Y-79485499D01*
X196738082Y-79452816D01*
X196892863Y-79388703D01*
X197032162Y-79295626D01*
X197150626Y-79177162D01*
X197243703Y-79037863D01*
X197307816Y-78883082D01*
X197340500Y-78718767D01*
X197340500Y-78551233D01*
X197307816Y-78386918D01*
X197243703Y-78232137D01*
X197161599Y-78109260D01*
X197150626Y-78092837D01*
X197032162Y-77974373D01*
X196892860Y-77881295D01*
X196738082Y-77817184D01*
X196738074Y-77817182D01*
X196573771Y-77784500D01*
X196573767Y-77784500D01*
X196406233Y-77784500D01*
X196406228Y-77784500D01*
X196241925Y-77817182D01*
X196241917Y-77817184D01*
X196087139Y-77881295D01*
X195947837Y-77974373D01*
X195829373Y-78092837D01*
X195736295Y-78232139D01*
X195672184Y-78386917D01*
X195672182Y-78386925D01*
X195639500Y-78551228D01*
X193600000Y-78551228D01*
X193600000Y-75703711D01*
X201049500Y-75703711D01*
X201049500Y-75946288D01*
X201081161Y-76186785D01*
X201143947Y-76421104D01*
X201236773Y-76645205D01*
X201236776Y-76645212D01*
X201358064Y-76855289D01*
X201358066Y-76855292D01*
X201358067Y-76855293D01*
X201505733Y-77047736D01*
X201505739Y-77047743D01*
X201677256Y-77219260D01*
X201677262Y-77219265D01*
X201869711Y-77366936D01*
X202079788Y-77488224D01*
X202303900Y-77581054D01*
X202472092Y-77626121D01*
X202531750Y-77662485D01*
X202562279Y-77725332D01*
X202553984Y-77794708D01*
X202509499Y-77848586D01*
X202487450Y-77860455D01*
X202437143Y-77881293D01*
X202437139Y-77881295D01*
X202297837Y-77974373D01*
X202179373Y-78092837D01*
X202086295Y-78232139D01*
X202022184Y-78386917D01*
X202022182Y-78386925D01*
X201989500Y-78551228D01*
X201989500Y-78718771D01*
X202022182Y-78883074D01*
X202022184Y-78883082D01*
X202086295Y-79037860D01*
X202179373Y-79177162D01*
X202297837Y-79295626D01*
X202390494Y-79357537D01*
X202437137Y-79388703D01*
X202591918Y-79452816D01*
X202756228Y-79485499D01*
X202756232Y-79485500D01*
X202756233Y-79485500D01*
X202923768Y-79485500D01*
X202923769Y-79485499D01*
X203088082Y-79452816D01*
X203242863Y-79388703D01*
X203382162Y-79295626D01*
X203500626Y-79177162D01*
X203593703Y-79037863D01*
X203657816Y-78883082D01*
X203690500Y-78718767D01*
X203690500Y-78551233D01*
X203690499Y-78551228D01*
X208339500Y-78551228D01*
X208339500Y-78718771D01*
X208372182Y-78883074D01*
X208372184Y-78883082D01*
X208436295Y-79037860D01*
X208529373Y-79177162D01*
X208647837Y-79295626D01*
X208740494Y-79357537D01*
X208787137Y-79388703D01*
X208941918Y-79452816D01*
X209106228Y-79485499D01*
X209106232Y-79485500D01*
X209106233Y-79485500D01*
X209273768Y-79485500D01*
X209273769Y-79485499D01*
X209438082Y-79452816D01*
X209592863Y-79388703D01*
X209732162Y-79295626D01*
X209850626Y-79177162D01*
X209943703Y-79037863D01*
X210007816Y-78883082D01*
X210040500Y-78718767D01*
X210040500Y-78551233D01*
X210040499Y-78551228D01*
X221039500Y-78551228D01*
X221039500Y-78718771D01*
X221072182Y-78883074D01*
X221072184Y-78883082D01*
X221136295Y-79037860D01*
X221229373Y-79177162D01*
X221347837Y-79295626D01*
X221440494Y-79357537D01*
X221487137Y-79388703D01*
X221641918Y-79452816D01*
X221806228Y-79485499D01*
X221806232Y-79485500D01*
X221806233Y-79485500D01*
X221973768Y-79485500D01*
X221973769Y-79485499D01*
X222138082Y-79452816D01*
X222292863Y-79388703D01*
X222432162Y-79295626D01*
X222550626Y-79177162D01*
X222643703Y-79037863D01*
X222707816Y-78883082D01*
X222740500Y-78718767D01*
X222740500Y-78551233D01*
X222740499Y-78551228D01*
X227389500Y-78551228D01*
X227389500Y-78718771D01*
X227422182Y-78883074D01*
X227422184Y-78883082D01*
X227486295Y-79037860D01*
X227579373Y-79177162D01*
X227697837Y-79295626D01*
X227790494Y-79357537D01*
X227837137Y-79388703D01*
X227991918Y-79452816D01*
X228156228Y-79485499D01*
X228156232Y-79485500D01*
X228156233Y-79485500D01*
X228323768Y-79485500D01*
X228323769Y-79485499D01*
X228488082Y-79452816D01*
X228642863Y-79388703D01*
X228782162Y-79295626D01*
X228900626Y-79177162D01*
X228993703Y-79037863D01*
X229057816Y-78883082D01*
X229090500Y-78718767D01*
X229090500Y-78551233D01*
X229090499Y-78551228D01*
X233739500Y-78551228D01*
X233739500Y-78718771D01*
X233772182Y-78883074D01*
X233772184Y-78883082D01*
X233836295Y-79037860D01*
X233929373Y-79177162D01*
X234047837Y-79295626D01*
X234140494Y-79357537D01*
X234187137Y-79388703D01*
X234341918Y-79452816D01*
X234506228Y-79485499D01*
X234506232Y-79485500D01*
X234506233Y-79485500D01*
X234673768Y-79485500D01*
X234673769Y-79485499D01*
X234838082Y-79452816D01*
X234992863Y-79388703D01*
X235132162Y-79295626D01*
X235250626Y-79177162D01*
X235343703Y-79037863D01*
X235407816Y-78883082D01*
X235440500Y-78718767D01*
X235440500Y-78551233D01*
X235440499Y-78551228D01*
X240089500Y-78551228D01*
X240089500Y-78718771D01*
X240122182Y-78883074D01*
X240122184Y-78883082D01*
X240186295Y-79037860D01*
X240279373Y-79177162D01*
X240397837Y-79295626D01*
X240490494Y-79357537D01*
X240537137Y-79388703D01*
X240691918Y-79452816D01*
X240856228Y-79485499D01*
X240856232Y-79485500D01*
X240856233Y-79485500D01*
X241023768Y-79485500D01*
X241023769Y-79485499D01*
X241188082Y-79452816D01*
X241342863Y-79388703D01*
X241482162Y-79295626D01*
X241600626Y-79177162D01*
X241693703Y-79037863D01*
X241757816Y-78883082D01*
X241790500Y-78718767D01*
X241790500Y-78551233D01*
X241757816Y-78386918D01*
X241693703Y-78232137D01*
X241611599Y-78109260D01*
X241600626Y-78092837D01*
X241482162Y-77974373D01*
X241342860Y-77881295D01*
X241188082Y-77817184D01*
X241188074Y-77817182D01*
X241023771Y-77784500D01*
X241023767Y-77784500D01*
X240856233Y-77784500D01*
X240856228Y-77784500D01*
X240691925Y-77817182D01*
X240691917Y-77817184D01*
X240537139Y-77881295D01*
X240397837Y-77974373D01*
X240279373Y-78092837D01*
X240186295Y-78232139D01*
X240122184Y-78386917D01*
X240122182Y-78386925D01*
X240089500Y-78551228D01*
X235440499Y-78551228D01*
X235407816Y-78386918D01*
X235343703Y-78232137D01*
X235261599Y-78109260D01*
X235250626Y-78092837D01*
X235132162Y-77974373D01*
X234992860Y-77881295D01*
X234838082Y-77817184D01*
X234838074Y-77817182D01*
X234673771Y-77784500D01*
X234673767Y-77784500D01*
X234506233Y-77784500D01*
X234506228Y-77784500D01*
X234341925Y-77817182D01*
X234341917Y-77817184D01*
X234187139Y-77881295D01*
X234047837Y-77974373D01*
X233929373Y-78092837D01*
X233836295Y-78232139D01*
X233772184Y-78386917D01*
X233772182Y-78386925D01*
X233739500Y-78551228D01*
X229090499Y-78551228D01*
X229057816Y-78386918D01*
X228993703Y-78232137D01*
X228911599Y-78109260D01*
X228900626Y-78092837D01*
X228782162Y-77974373D01*
X228642860Y-77881295D01*
X228488082Y-77817184D01*
X228488074Y-77817182D01*
X228323771Y-77784500D01*
X228323767Y-77784500D01*
X228156233Y-77784500D01*
X228156228Y-77784500D01*
X227991925Y-77817182D01*
X227991917Y-77817184D01*
X227837139Y-77881295D01*
X227697837Y-77974373D01*
X227579373Y-78092837D01*
X227486295Y-78232139D01*
X227422184Y-78386917D01*
X227422182Y-78386925D01*
X227389500Y-78551228D01*
X222740499Y-78551228D01*
X222707816Y-78386918D01*
X222643703Y-78232137D01*
X222561599Y-78109260D01*
X222550626Y-78092837D01*
X222432162Y-77974373D01*
X222292860Y-77881295D01*
X222138082Y-77817184D01*
X222138074Y-77817182D01*
X221973771Y-77784500D01*
X221973767Y-77784500D01*
X221806233Y-77784500D01*
X221806228Y-77784500D01*
X221641925Y-77817182D01*
X221641917Y-77817184D01*
X221487139Y-77881295D01*
X221347837Y-77974373D01*
X221229373Y-78092837D01*
X221136295Y-78232139D01*
X221072184Y-78386917D01*
X221072182Y-78386925D01*
X221039500Y-78551228D01*
X210040499Y-78551228D01*
X210007816Y-78386918D01*
X209943703Y-78232137D01*
X209861599Y-78109260D01*
X209850626Y-78092837D01*
X209732162Y-77974373D01*
X209592860Y-77881295D01*
X209438082Y-77817184D01*
X209438074Y-77817182D01*
X209273771Y-77784500D01*
X209273767Y-77784500D01*
X209106233Y-77784500D01*
X209106228Y-77784500D01*
X208941925Y-77817182D01*
X208941917Y-77817184D01*
X208787139Y-77881295D01*
X208647837Y-77974373D01*
X208529373Y-78092837D01*
X208436295Y-78232139D01*
X208372184Y-78386917D01*
X208372182Y-78386925D01*
X208339500Y-78551228D01*
X203690499Y-78551228D01*
X203657816Y-78386918D01*
X203593703Y-78232137D01*
X203511599Y-78109260D01*
X203500626Y-78092837D01*
X203382162Y-77974373D01*
X203242860Y-77881295D01*
X203242857Y-77881293D01*
X203239360Y-77879845D01*
X203237809Y-77878595D01*
X203237485Y-77878422D01*
X203237517Y-77878360D01*
X203184959Y-77836000D01*
X203162899Y-77769705D01*
X203180182Y-77702006D01*
X203231323Y-77654399D01*
X203257970Y-77645270D01*
X203257868Y-77644888D01*
X203261784Y-77643838D01*
X203261789Y-77643838D01*
X203496100Y-77581054D01*
X203720212Y-77488224D01*
X203930289Y-77366936D01*
X204122738Y-77219265D01*
X204294265Y-77047738D01*
X204441936Y-76855289D01*
X204563224Y-76645212D01*
X204656054Y-76421100D01*
X204718838Y-76186789D01*
X204750500Y-75946288D01*
X204750500Y-75703712D01*
X204718838Y-75463211D01*
X204656054Y-75228900D01*
X204563224Y-75004788D01*
X204441936Y-74794711D01*
X204294265Y-74602262D01*
X204294260Y-74602256D01*
X204122743Y-74430739D01*
X204122736Y-74430733D01*
X203930293Y-74283067D01*
X203930292Y-74283066D01*
X203930289Y-74283064D01*
X203720212Y-74161776D01*
X203720205Y-74161773D01*
X203496104Y-74068947D01*
X203261785Y-74006161D01*
X203021289Y-73974500D01*
X203021288Y-73974500D01*
X202778712Y-73974500D01*
X202778711Y-73974500D01*
X202538214Y-74006161D01*
X202303895Y-74068947D01*
X202079794Y-74161773D01*
X202079785Y-74161777D01*
X201869706Y-74283067D01*
X201677263Y-74430733D01*
X201677256Y-74430739D01*
X201505739Y-74602256D01*
X201505733Y-74602263D01*
X201358067Y-74794706D01*
X201236777Y-75004785D01*
X201236773Y-75004794D01*
X201143947Y-75228895D01*
X201081161Y-75463214D01*
X201049500Y-75703711D01*
X193600000Y-75703711D01*
X193600000Y-73471228D01*
X195639500Y-73471228D01*
X195639500Y-73638771D01*
X195672182Y-73803074D01*
X195672184Y-73803082D01*
X195736295Y-73957860D01*
X195829373Y-74097162D01*
X195947837Y-74215626D01*
X196040494Y-74277537D01*
X196087137Y-74308703D01*
X196241918Y-74372816D01*
X196406228Y-74405499D01*
X196406232Y-74405500D01*
X196406233Y-74405500D01*
X196573768Y-74405500D01*
X196573769Y-74405499D01*
X196738082Y-74372816D01*
X196892863Y-74308703D01*
X197032162Y-74215626D01*
X197150626Y-74097162D01*
X197243703Y-73957863D01*
X197307816Y-73803082D01*
X197340500Y-73638767D01*
X197340500Y-73471233D01*
X197340499Y-73471228D01*
X208339500Y-73471228D01*
X208339500Y-73638771D01*
X208372182Y-73803074D01*
X208372184Y-73803082D01*
X208436295Y-73957860D01*
X208529373Y-74097162D01*
X208647837Y-74215626D01*
X208740494Y-74277537D01*
X208787137Y-74308703D01*
X208941918Y-74372816D01*
X209106228Y-74405499D01*
X209106232Y-74405500D01*
X209106233Y-74405500D01*
X209273768Y-74405500D01*
X209273769Y-74405499D01*
X209438082Y-74372816D01*
X209592863Y-74308703D01*
X209732162Y-74215626D01*
X209850626Y-74097162D01*
X209943703Y-73957863D01*
X210007816Y-73803082D01*
X210040500Y-73638767D01*
X210040500Y-73471233D01*
X210040499Y-73471228D01*
X214689500Y-73471228D01*
X214689500Y-73638771D01*
X214722182Y-73803074D01*
X214722184Y-73803082D01*
X214786295Y-73957860D01*
X214879373Y-74097162D01*
X214997837Y-74215626D01*
X215090494Y-74277537D01*
X215137137Y-74308703D01*
X215291918Y-74372816D01*
X215456228Y-74405499D01*
X215456232Y-74405500D01*
X215456233Y-74405500D01*
X215623768Y-74405500D01*
X215623769Y-74405499D01*
X215788082Y-74372816D01*
X215942863Y-74308703D01*
X216082162Y-74215626D01*
X216200626Y-74097162D01*
X216293703Y-73957863D01*
X216357816Y-73803082D01*
X216390500Y-73638767D01*
X216390500Y-73471233D01*
X216390499Y-73471228D01*
X221039500Y-73471228D01*
X221039500Y-73638771D01*
X221072182Y-73803074D01*
X221072184Y-73803082D01*
X221136295Y-73957860D01*
X221229373Y-74097162D01*
X221347837Y-74215626D01*
X221440494Y-74277537D01*
X221487137Y-74308703D01*
X221641918Y-74372816D01*
X221806228Y-74405499D01*
X221806232Y-74405500D01*
X221806233Y-74405500D01*
X221973768Y-74405500D01*
X221973769Y-74405499D01*
X222138082Y-74372816D01*
X222292863Y-74308703D01*
X222432162Y-74215626D01*
X222550626Y-74097162D01*
X222643703Y-73957863D01*
X222707816Y-73803082D01*
X222740500Y-73638767D01*
X222740500Y-73471233D01*
X222740499Y-73471228D01*
X227389500Y-73471228D01*
X227389500Y-73638771D01*
X227422182Y-73803074D01*
X227422184Y-73803082D01*
X227486295Y-73957860D01*
X227579373Y-74097162D01*
X227697837Y-74215626D01*
X227790494Y-74277537D01*
X227837137Y-74308703D01*
X227991918Y-74372816D01*
X228156228Y-74405499D01*
X228156232Y-74405500D01*
X228156233Y-74405500D01*
X228323768Y-74405500D01*
X228323769Y-74405499D01*
X228488082Y-74372816D01*
X228642863Y-74308703D01*
X228782162Y-74215626D01*
X228900626Y-74097162D01*
X228993703Y-73957863D01*
X229057816Y-73803082D01*
X229090500Y-73638767D01*
X229090500Y-73471233D01*
X229090499Y-73471228D01*
X233739500Y-73471228D01*
X233739500Y-73638771D01*
X233772182Y-73803074D01*
X233772184Y-73803082D01*
X233836295Y-73957860D01*
X233929373Y-74097162D01*
X234047837Y-74215626D01*
X234140494Y-74277537D01*
X234187137Y-74308703D01*
X234341918Y-74372816D01*
X234506228Y-74405499D01*
X234506232Y-74405500D01*
X234506233Y-74405500D01*
X234673768Y-74405500D01*
X234673769Y-74405499D01*
X234838082Y-74372816D01*
X234992863Y-74308703D01*
X235132162Y-74215626D01*
X235250626Y-74097162D01*
X235343703Y-73957863D01*
X235407816Y-73803082D01*
X235440500Y-73638767D01*
X235440500Y-73471233D01*
X235440499Y-73471228D01*
X240089500Y-73471228D01*
X240089500Y-73638771D01*
X240122182Y-73803074D01*
X240122184Y-73803082D01*
X240186295Y-73957860D01*
X240279373Y-74097162D01*
X240397837Y-74215626D01*
X240490494Y-74277537D01*
X240537137Y-74308703D01*
X240691918Y-74372816D01*
X240856228Y-74405499D01*
X240856232Y-74405500D01*
X240856233Y-74405500D01*
X241023768Y-74405500D01*
X241023769Y-74405499D01*
X241188082Y-74372816D01*
X241342863Y-74308703D01*
X241482162Y-74215626D01*
X241600626Y-74097162D01*
X241693703Y-73957863D01*
X241757816Y-73803082D01*
X241790500Y-73638767D01*
X241790500Y-73471233D01*
X241790499Y-73471228D01*
X246439500Y-73471228D01*
X246439500Y-73638771D01*
X246472182Y-73803074D01*
X246472184Y-73803082D01*
X246536295Y-73957860D01*
X246629373Y-74097162D01*
X246747837Y-74215626D01*
X246840494Y-74277537D01*
X246887137Y-74308703D01*
X247041918Y-74372816D01*
X247206228Y-74405499D01*
X247206232Y-74405500D01*
X247206233Y-74405500D01*
X247373768Y-74405500D01*
X247373769Y-74405499D01*
X247538082Y-74372816D01*
X247692863Y-74308703D01*
X247832162Y-74215626D01*
X247950626Y-74097162D01*
X248043703Y-73957863D01*
X248107816Y-73803082D01*
X248140500Y-73638767D01*
X248140500Y-73471233D01*
X248140499Y-73471228D01*
X252789500Y-73471228D01*
X252789500Y-73638771D01*
X252822182Y-73803074D01*
X252822184Y-73803082D01*
X252886295Y-73957860D01*
X252979373Y-74097162D01*
X253097837Y-74215626D01*
X253190494Y-74277537D01*
X253237137Y-74308703D01*
X253391918Y-74372816D01*
X253556228Y-74405499D01*
X253556232Y-74405500D01*
X253556233Y-74405500D01*
X253723768Y-74405500D01*
X253723769Y-74405499D01*
X253888082Y-74372816D01*
X254042863Y-74308703D01*
X254182162Y-74215626D01*
X254300626Y-74097162D01*
X254393703Y-73957863D01*
X254457816Y-73803082D01*
X254490500Y-73638767D01*
X254490500Y-73471233D01*
X254490499Y-73471228D01*
X259139500Y-73471228D01*
X259139500Y-73638771D01*
X259172182Y-73803074D01*
X259172184Y-73803082D01*
X259236295Y-73957860D01*
X259329373Y-74097162D01*
X259447837Y-74215626D01*
X259540494Y-74277537D01*
X259587137Y-74308703D01*
X259741918Y-74372816D01*
X259906228Y-74405499D01*
X259906232Y-74405500D01*
X259906233Y-74405500D01*
X260073768Y-74405500D01*
X260073769Y-74405499D01*
X260238082Y-74372816D01*
X260392863Y-74308703D01*
X260532162Y-74215626D01*
X260650626Y-74097162D01*
X260743703Y-73957863D01*
X260807816Y-73803082D01*
X260840500Y-73638767D01*
X260840500Y-73471233D01*
X260807816Y-73306918D01*
X260743703Y-73152137D01*
X260712537Y-73105494D01*
X260650626Y-73012837D01*
X260532162Y-72894373D01*
X260392860Y-72801295D01*
X260238082Y-72737184D01*
X260238074Y-72737182D01*
X260073771Y-72704500D01*
X260073767Y-72704500D01*
X259906233Y-72704500D01*
X259906228Y-72704500D01*
X259741925Y-72737182D01*
X259741917Y-72737184D01*
X259587139Y-72801295D01*
X259447837Y-72894373D01*
X259329373Y-73012837D01*
X259236295Y-73152139D01*
X259172184Y-73306917D01*
X259172182Y-73306925D01*
X259139500Y-73471228D01*
X254490499Y-73471228D01*
X254457816Y-73306918D01*
X254393703Y-73152137D01*
X254362537Y-73105494D01*
X254300626Y-73012837D01*
X254182162Y-72894373D01*
X254042860Y-72801295D01*
X253888082Y-72737184D01*
X253888074Y-72737182D01*
X253723771Y-72704500D01*
X253723767Y-72704500D01*
X253556233Y-72704500D01*
X253556228Y-72704500D01*
X253391925Y-72737182D01*
X253391917Y-72737184D01*
X253237139Y-72801295D01*
X253097837Y-72894373D01*
X252979373Y-73012837D01*
X252886295Y-73152139D01*
X252822184Y-73306917D01*
X252822182Y-73306925D01*
X252789500Y-73471228D01*
X248140499Y-73471228D01*
X248107816Y-73306918D01*
X248043703Y-73152137D01*
X248012537Y-73105494D01*
X247950626Y-73012837D01*
X247832162Y-72894373D01*
X247692860Y-72801295D01*
X247538082Y-72737184D01*
X247538074Y-72737182D01*
X247373771Y-72704500D01*
X247373767Y-72704500D01*
X247206233Y-72704500D01*
X247206228Y-72704500D01*
X247041925Y-72737182D01*
X247041917Y-72737184D01*
X246887139Y-72801295D01*
X246747837Y-72894373D01*
X246629373Y-73012837D01*
X246536295Y-73152139D01*
X246472184Y-73306917D01*
X246472182Y-73306925D01*
X246439500Y-73471228D01*
X241790499Y-73471228D01*
X241757816Y-73306918D01*
X241693703Y-73152137D01*
X241662537Y-73105494D01*
X241600626Y-73012837D01*
X241482162Y-72894373D01*
X241342860Y-72801295D01*
X241188082Y-72737184D01*
X241188074Y-72737182D01*
X241023771Y-72704500D01*
X241023767Y-72704500D01*
X240856233Y-72704500D01*
X240856228Y-72704500D01*
X240691925Y-72737182D01*
X240691917Y-72737184D01*
X240537139Y-72801295D01*
X240397837Y-72894373D01*
X240279373Y-73012837D01*
X240186295Y-73152139D01*
X240122184Y-73306917D01*
X240122182Y-73306925D01*
X240089500Y-73471228D01*
X235440499Y-73471228D01*
X235407816Y-73306918D01*
X235343703Y-73152137D01*
X235312537Y-73105494D01*
X235250626Y-73012837D01*
X235132162Y-72894373D01*
X234992860Y-72801295D01*
X234838082Y-72737184D01*
X234838074Y-72737182D01*
X234673771Y-72704500D01*
X234673767Y-72704500D01*
X234506233Y-72704500D01*
X234506228Y-72704500D01*
X234341925Y-72737182D01*
X234341917Y-72737184D01*
X234187139Y-72801295D01*
X234047837Y-72894373D01*
X233929373Y-73012837D01*
X233836295Y-73152139D01*
X233772184Y-73306917D01*
X233772182Y-73306925D01*
X233739500Y-73471228D01*
X229090499Y-73471228D01*
X229057816Y-73306918D01*
X228993703Y-73152137D01*
X228962537Y-73105494D01*
X228900626Y-73012837D01*
X228782162Y-72894373D01*
X228642860Y-72801295D01*
X228488082Y-72737184D01*
X228488074Y-72737182D01*
X228323771Y-72704500D01*
X228323767Y-72704500D01*
X228156233Y-72704500D01*
X228156228Y-72704500D01*
X227991925Y-72737182D01*
X227991917Y-72737184D01*
X227837139Y-72801295D01*
X227697837Y-72894373D01*
X227579373Y-73012837D01*
X227486295Y-73152139D01*
X227422184Y-73306917D01*
X227422182Y-73306925D01*
X227389500Y-73471228D01*
X222740499Y-73471228D01*
X222707816Y-73306918D01*
X222643703Y-73152137D01*
X222612537Y-73105494D01*
X222550626Y-73012837D01*
X222432162Y-72894373D01*
X222292860Y-72801295D01*
X222138082Y-72737184D01*
X222138074Y-72737182D01*
X221973771Y-72704500D01*
X221973767Y-72704500D01*
X221806233Y-72704500D01*
X221806228Y-72704500D01*
X221641925Y-72737182D01*
X221641917Y-72737184D01*
X221487139Y-72801295D01*
X221347837Y-72894373D01*
X221229373Y-73012837D01*
X221136295Y-73152139D01*
X221072184Y-73306917D01*
X221072182Y-73306925D01*
X221039500Y-73471228D01*
X216390499Y-73471228D01*
X216357816Y-73306918D01*
X216293703Y-73152137D01*
X216262537Y-73105494D01*
X216200626Y-73012837D01*
X216082162Y-72894373D01*
X215942860Y-72801295D01*
X215788082Y-72737184D01*
X215788074Y-72737182D01*
X215623771Y-72704500D01*
X215623767Y-72704500D01*
X215456233Y-72704500D01*
X215456228Y-72704500D01*
X215291925Y-72737182D01*
X215291917Y-72737184D01*
X215137139Y-72801295D01*
X214997837Y-72894373D01*
X214879373Y-73012837D01*
X214786295Y-73152139D01*
X214722184Y-73306917D01*
X214722182Y-73306925D01*
X214689500Y-73471228D01*
X210040499Y-73471228D01*
X210007816Y-73306918D01*
X209943703Y-73152137D01*
X209912537Y-73105494D01*
X209850626Y-73012837D01*
X209732162Y-72894373D01*
X209592860Y-72801295D01*
X209438082Y-72737184D01*
X209438074Y-72737182D01*
X209273771Y-72704500D01*
X209273767Y-72704500D01*
X209106233Y-72704500D01*
X209106228Y-72704500D01*
X208941925Y-72737182D01*
X208941917Y-72737184D01*
X208787139Y-72801295D01*
X208647837Y-72894373D01*
X208529373Y-73012837D01*
X208436295Y-73152139D01*
X208372184Y-73306917D01*
X208372182Y-73306925D01*
X208339500Y-73471228D01*
X197340499Y-73471228D01*
X197307816Y-73306918D01*
X197243703Y-73152137D01*
X197212537Y-73105494D01*
X197150626Y-73012837D01*
X197032162Y-72894373D01*
X196892860Y-72801295D01*
X196738082Y-72737184D01*
X196738074Y-72737182D01*
X196573771Y-72704500D01*
X196573767Y-72704500D01*
X196406233Y-72704500D01*
X196406228Y-72704500D01*
X196241925Y-72737182D01*
X196241917Y-72737184D01*
X196087139Y-72801295D01*
X195947837Y-72894373D01*
X195829373Y-73012837D01*
X195736295Y-73152139D01*
X195672184Y-73306917D01*
X195672182Y-73306925D01*
X195639500Y-73471228D01*
X193600000Y-73471228D01*
X193600000Y-72765937D01*
X193619685Y-72698898D01*
X193636319Y-72678256D01*
X194302756Y-72011819D01*
X194364079Y-71978334D01*
X194390437Y-71975500D01*
X259842417Y-71975500D01*
X259895572Y-71975500D01*
X259904417Y-71975816D01*
G37*
G04 #@! TD.AperFunction*
M02*
